{
.appVersion = "1280";
classes = (
{
automatic = 1;
code = "A Aacute Abreve Acircumflex Adieresis Agrave Amacron Aogonek Aring Atilde AE B C Cacute Ccaron Ccedilla Cdotaccent D Eth Dcaron Dcroat E Eacute Ecaron Ecircumflex Edieresis Edotaccent Egrave Emacron Eogonek F G Gbreve Gcommaaccent Gdotaccent H Hbar I Iacute Icircumflex Idieresis Idotaccent Igrave Imacron Iogonek J K Kcommaaccent L Lacute Lcaron Lcommaaccent Lslash M N Nacute Ncaron Ncommaaccent Eng Ntilde O Oacute Ocircumflex Odieresis Ograve Ohungarumlaut Omacron Oslash Otilde OE P Thorn Q R Racute Rcaron Rcommaaccent S Sacute Scaron Scedilla Scommaaccent Germandbls T Tbar Tcaron Tcedilla Tcommaaccent U Uacute Ucircumflex Udieresis Ugrave Uhungarumlaut Umacron Uogonek Uring V W Wacute Wcircumflex Wdieresis Wgrave X Y Yacute Ycircumflex Ydieresis Ygrave Z Zacute Zcaron Zdotaccent Delta Omega";
name = Uppercase;
}
);
copyright = "Copyright (c) 2019, Protype Foundry";
customParameters = (
{
name = "Family Alignment Zones";
value = (
"{850, 16}",
"{700, 16}",
"{500, 16}",
"{0, -16}",
"{-550, -16}"
);
},
{
name = license;
value = "SIL Open Font License v1.1";
}
);
date = "2019-11-02 22:07:50 +0000";
designer = "Abdo Mohamed and Ibrahim Hamdi";
designerURL = behance.net/abdo_mohamed;
familyName = Dongol;
featurePrefixes = (
{
automatic = 1;
code = "languagesystem DFLT dflt;\012\012languagesystem arab dflt;\012languagesystem arab URD;\012\012languagesystem latn dflt;\012languagesystem latn AZE;\012languagesystem latn CRT;\012languagesystem latn KAZ;\012languagesystem latn TAT;\012languagesystem latn TRK;\012languagesystem latn ROM;\012languagesystem latn MOL;\012";
name = Languagesystems;
}
);
features = (
{
automatic = 1;
code = "feature locl;\012feature sups;\012feature frac;\012feature ordn;\012feature init;\012feature medi;\012feature fina;\012";
name = aalt;
},
{
automatic = 1;

glyphs = (
{
glyphname = A;
lastChange = "2019-11-30 15:48:57 +0000";
layers = (
{
anchors = (
{
name = bottom;
position = "{241, 0}";
},
{
name = ogonek;
position = "{434, 10}";
},
{
name = top;
position = "{249, 571}";
}
);
layerId = "F775FF55-200A-4C1E-99C8-011CF6498227";
paths = (
{
closed = 1;
nodes = (
"85.667 0 OFFCURVE",
"105.333 37 OFFCURVE",
"128 111 CURVE",
"338 136 LINE",
"345.333 117.333 OFFCURVE",
"351.667 99.333 OFFCURVE",
"357 82 CURVE SMOOTH",
"365.667 56 OFFCURVE",
"372 39 OFFCURVE",
"376 31 CURVE SMOOTH",
"386.667 11 OFFCURVE",
"400 1 OFFCURVE",
"416 1 CURVE SMOOTH",
"440 1 OFFCURVE",
"452 8.667 OFFCURVE",
"452 24 CURVE",
"452 24 LINE",
"452 34.667 OFFCURVE",
"446.667 55 OFFCURVE",
"436 85 CURVE SMOOTH",
"428 105.667 OFFCURVE",
"420.333 126.333 OFFCURVE",
"413 147 CURVE",
"423.667 153 OFFCURVE",
"429 163 OFFCURVE",
"429 177 CURVE SMOOTH",
"429 199.667 OFFCURVE",
"416.333 222 OFFCURVE",
"395 222 CURVE SMOOTH",
"392.333 222 OFFCURVE",
"390.333 221.667 OFFCURVE",
"389 221 CURVE",
"380.333 245 OFFCURVE",
"367.333 297.667 OFFCURVE",
"350 379 CURVE SMOOTH",
"336 444.333 OFFCURVE",
"320 495.667 OFFCURVE",
"302 533 CURVE SMOOTH",
"290 558.333 OFFCURVE",
"272.333 571 OFFCURVE",
"249 571 CURVE SMOOTH",
"218.333 571 OFFCURVE",
"194.667 553.667 OFFCURVE",
"178 519 CURVE SMOOTH",
"165.333 491.667 OFFCURVE",
"137.667 410 OFFCURVE",
"95 274 CURVE SMOOTH",
"51.667 135.333 OFFCURVE",
"30 57 OFFCURVE",
"30 39 CURVE SMOOTH",
"30 13 OFFCURVE",
"43 0 OFFCURVE",
"69 0 CURVE",
"69 0 LINE"
);
},
{
closed = 1;
nodes = (
"179 287 OFFCURVE",
"209.667 385.667 OFFCURVE",
"241 485 CURVE",
"312 211 LINE",
"312 211 LINE",
"266.667 200.333 OFFCURVE",
"212.333 193 OFFCURVE",
"149 189 CURVE",
"149 189 LINE"
);
}
);
userData = {
assembly = "NPUSHB[ ]	/* 27 values pushed */\0121 41 41 64 42 0 39 37 8 39 36 32 30 13 0 25 27 6 2 19 3 2 11 1 1 13 70 \012SROUND[ ]	/* SuperRound */\012MDAP[1]	/* MoveDirectAbsPt */\012SHZ[1]	/* ShiftZoneByLastPoint */\012RTG[ ]	/* RoundToGrid */\012SVTCA[0]	/* SetFreedomAndProjectionVectorToAxis */\012MIAP[1]	/* MoveIndirectAbsPt */\012ALIGNRP[ ]	/* AlignRelativePt */\012MIAP[1]	/* MoveIndirectAbsPt */\012SRP0[ ]	/* SetRefPoint0 */\012MIRP[11101]	/* MoveIndirectRelPt */\012ALIGNRP[ ]	/* AlignRelativePt */\012SVTCA[1]	/* SetFreedomAndProjectionVectorToAxis */\012MDAP[0]	/* MoveDirectAbsPt */\012MDAP[0]	/* MoveDirectAbsPt */\012MDAP[0]	/* MoveDirectAbsPt */\012MDAP[0]	/* MoveDirectAbsPt */\012MDAP[0]	/* MoveDirectAbsPt */\012MDAP[0]	/* MoveDirectAbsPt */\012SVTCA[0]	/* SetFreedomAndProjectionVectorToAxis */\012MDAP[0]	/* MoveDirectAbsPt */\012MDAP[0]	/* MoveDirectAbsPt */\012MDAP[0]	/* MoveDirectAbsPt */\012IUP[1]	/* InterpolateUntPts */\012IUP[0]	/* InterpolateUntPts */\012SVTCA[1]	/* SetFreedomAndProjectionVectorToAxis */\012MD[0]	/* MeasureDistance */\012ROUND[00]	/* Round */\012PUSHW[ ]	/* 2 values pushed */\01213 41 \012MD[0]	/* MeasureDistance */\012ROUND[00]	/* Round */\012SUB[ ]	/* Subtract */\012PUSHB[ ]	/* 1 value pushed */\01264 \012GT[ ]	/* GreaterThan */\012IF[ ]	/* If */\012SHPIX[ ]	/* ShiftZoneByPixel */\012SRP1[ ]	/* SetRefPoint1 */\012SHZ[1]	/* ShiftZoneByLastPoint */\012PUSHW[ ]	/* 2 values pushed */\01241 -64 \012SHPIX[ ]	/* ShiftZoneByPixel */\012EIF[ ]	/* EndIf */";
};
width = 482;
}
);
note = A;
unicode = 0041;
},
{
glyphname = Agrave;
lastChange = "2019-11-30 15:48:57 +0000";
layers = (
{
layerId = "F775FF55-200A-4C1E-99C8-011CF6498227";
paths = (
{
closed = 1;
nodes = (
"81 -5 OFFCURVE",
"93.333 10.333 OFFCURVE",
"106 41 CURVE SMOOTH",
"109.333 49.667 OFFCURVE",
"116.667 71.333 OFFCURVE",
"128 106 CURVE",
"338 131 LINE",
"346.667 104.333 OFFCURVE",
"355.667 77.667 OFFCURVE",
"365 51 CURVE SMOOTH",
"381 14.333 OFFCURVE",
"398 -4 OFFCURVE",
"416 -4 CURVE SMOOTH",
"440.667 -4 OFFCURVE",
"453 3.667 OFFCURVE",
"453 19 CURVE",
"453 19 LINE",
"453 29 OFFCURVE",
"447.667 49 OFFCURVE",
"437 79 CURVE SMOOTH",
"429 100.333 OFFCURVE",
"421.333 121.333 OFFCURVE",
"414 142 CURVE",
"424 148 OFFCURVE",
"429 158 OFFCURVE",
"429 172 CURVE SMOOTH",
"429 194.667 OFFCURVE",
"416 217 OFFCURVE",
"396 217 CURVE SMOOTH",
"393.333 217 OFFCURVE",
"391 216.667 OFFCURVE",
"389 216 CURVE",
"380.333 241.333 OFFCURVE",
"367.333 294 OFFCURVE",
"350 374 CURVE SMOOTH",
"335.333 440 OFFCURVE",
"319.667 491.667 OFFCURVE",
"303 529 CURVE SMOOTH",
"291 555 OFFCURVE",
"273 568 OFFCURVE",
"249 568 CURVE SMOOTH",
"218.333 568 OFFCURVE",
"194.667 550 OFFCURVE",
"178 514 CURVE SMOOTH",
"166 488.667 OFFCURVE",
"138.667 407 OFFCURVE",
"96 269 CURVE SMOOTH",
"52 128.333 OFFCURVE",
"30 50 OFFCURVE",
"30 34 CURVE SMOOTH",
"30 8 OFFCURVE",
"43 -5 OFFCURVE",
"69 -5 CURVE",
"69 -5 LINE"
);
},
{
closed = 1;
nodes = (
"181.667 290.667 OFFCURVE",
"212.333 389.667 OFFCURVE",
"241 481 CURVE",
"312 206 LINE",
"312 206 LINE",
"267.333 195.333 OFFCURVE",
"213 188 OFFCURVE",
"149 184 CURVE",
"149 184 LINE"
);
},
{
closed = 1;
nodes = (
"273.667 589 OFFCURVE",
"279 593 OFFCURVE",
"279 601 CURVE",
"279 601 LINE",
"279 609.667 OFFCURVE",
"270.667 626.333 OFFCURVE",
"254 651 CURVE SMOOTH",
"220.667 697.667 OFFCURVE",
"210.333 709 OFFCURVE",
"177 709 CURVE SMOOTH",
"147 709 OFFCURVE",
"132 701.333 OFFCURVE",
"132 686 CURVE SMOOTH",
"132 666 OFFCURVE",
"149.333 644.333 OFFCURVE",
"184 621 CURVE SMOOTH",
"215.333 599.667 OFFCURVE",
"241.667 589 OFFCURVE",
"263 589 CURVE",
"263 589 LINE"
);
}
);
userData = {
assembly = "NPUSHB[ ]	/* 29 values pushed */\0121 54 54 64 55 13 52 50 32 19 2 52 49 45 43 26 13 6 0 38 40 6 15 8 15 24 1 26 70 \012SROUND[ ]	/* SuperRound */\012MDAP[1]	/* MoveDirectAbsPt */\012SHZ[1]	/* ShiftZoneByLastPoint */\012RTG[ ]	/* RoundToGrid */\012SVTCA[0]	/* SetFreedomAndProjectionVectorToAxis */\012MDAP[1]	/* MoveDirectAbsPt */\012ALIGNRP[ ]	/* AlignRelativePt */\012MDAP[1]	/* MoveDirectAbsPt */\012SRP0[ ]	/* SetRefPoint0 */\012MIRP[11101]	/* MoveIndirectRelPt */\012ALIGNRP[ ]	/* AlignRelativePt */\012SVTCA[1]	/* SetFreedomAndProjectionVectorToAxis */\012MDAP[0]	/* MoveDirectAbsPt */\012MDAP[0]	/* MoveDirectAbsPt */\012MDAP[0]	/* MoveDirectAbsPt */\012MDAP[0]	/* MoveDirectAbsPt */\012MDAP[0]	/* MoveDirectAbsPt */\012MDAP[0]	/* MoveDirectAbsPt */\012MDAP[0]	/* MoveDirectAbsPt */\012MDAP[0]	/* MoveDirectAbsPt */\012SVTCA[0]	/* SetFreedomAndProjectionVectorToAxis */\012MDAP[0]	/* MoveDirectAbsPt */\012MDAP[0]	/* MoveDirectAbsPt */\012MDAP[0]	/* MoveDirectAbsPt */\012MDAP[0]	/* MoveDirectAbsPt */\012MDAP[0]	/* MoveDirectAbsPt */\012IUP[1]	/* InterpolateUntPts */\012IUP[0]	/* InterpolateUntPts */\012SVTCA[1]	/* SetFreedomAndProjectionVectorToAxis */\012MD[0]	/* MeasureDistance */\012ROUND[00]	/* Round */\012PUSHW[ ]	/* 2 values pushed */\01226 54 \012MD[0]	/* MeasureDistance */\012ROUND[00]	/* Round */\012SUB[ ]	/* Subtract */\012PUSHB[ ]	/* 1 value pushed */\01264 \012GT[ ]	/* GreaterThan */\012IF[ ]	/* If */\012SHPIX[ ]	/* ShiftZoneByPixel */\012SRP1[ ]	/* SetRefPoint1 */\012SHZ[1]	/* ShiftZoneByLastPoint */\012PUSHW[ ]	/* 2 values pushed */\01254 -64 \012SHPIX[ ]	/* ShiftZoneByPixel */\012EIF[ ]	/* EndIf */";
};
width = 483;
}
);
note = Agrave;
unicode = 00C0;
},
{
glyphname = Aring;
lastChange = "2019-11-30 15:48:57 +0000";
layers = (
{
layerId = "F775FF55-200A-4C1E-99C8-011CF6498227";
paths = (
{
closed = 1;
nodes = (
"81 -5 OFFCURVE",
"93.333 10.333 OFFCURVE",
"106 41 CURVE SMOOTH",
"109.333 49.667 OFFCURVE",
"116.667 71.333 OFFCURVE",
"128 106 CURVE",
"338 131 LINE",
"346.667 104.333 OFFCURVE",
"355.667 77.667 OFFCURVE",
"365 51 CURVE SMOOTH",
"381 14.333 OFFCURVE",
"398 -4 OFFCURVE",
"416 -4 CURVE SMOOTH",
"440.667 -4 OFFCURVE",
"453 3.667 OFFCURVE",
"453 19 CURVE",
"453 19 LINE",
"453 29 OFFCURVE",
"447.667 49 OFFCURVE",
"437 79 CURVE SMOOTH",
"429 100.333 OFFCURVE",
"421.333 121.333 OFFCURVE",
"414 142 CURVE",
"424 148 OFFCURVE",
"429 158 OFFCURVE",
"429 172 CURVE SMOOTH",
"429 194.667 OFFCURVE",
"416 217 OFFCURVE",
"396 217 CURVE SMOOTH",
"393.333 217 OFFCURVE",
"391 216.667 OFFCURVE",
"389 216 CURVE",
"380.333 241.333 OFFCURVE",
"367.333 294 OFFCURVE",
"350 374 CURVE SMOOTH",
"335.333 440 OFFCURVE",
"319.667 491.667 OFFCURVE",
"303 529 CURVE SMOOTH",
"291 555 OFFCURVE",
"273 568 OFFCURVE",
"249 568 CURVE SMOOTH",
"218.333 568 OFFCURVE",
"194.667 550 OFFCURVE",
"178 514 CURVE SMOOTH",
"166 488.667 OFFCURVE",
"138.667 407 OFFCURVE",
"96 269 CURVE SMOOTH",
"52 128.333 OFFCURVE",
"30 50 OFFCURVE",
"30 34 CURVE SMOOTH",
"30 8 OFFCURVE",
"43 -5 OFFCURVE",
"69 -5 CURVE",
"69 -5 LINE"
);
},
{
closed = 1;
nodes = (
"181.667 290.667 OFFCURVE",
"212.333 389.667 OFFCURVE",
"241 481 CURVE",
"312 206 LINE",
"312 206 LINE",
"267.333 195.333 OFFCURVE",
"213 188 OFFCURVE",
"149 184 CURVE",
"149 184 LINE"
);
},
{
closed = 1;
nodes = (
"266.333 581 OFFCURVE",
"301 611.667 OFFCURVE",
"301 649 CURVE",
"301 649 LINE",
"301 681 OFFCURVE",
"278.667 709 OFFCURVE",
"248 709 CURVE SMOOTH",
"216 709 OFFCURVE",
"181 668 OFFCURVE",
"181 636 CURVE SMOOTH",
"181 608 OFFCURVE",
"202.333 581 OFFCURVE",
"229 581 CURVE",
"229 581 LINE"
);
},
{
closed = 1;
nodes = (
"223.333 618 OFFCURVE",
"216 630.333 OFFCURVE",
"216 641 CURVE SMOOTH",
"216 658.333 OFFCURVE",
"235 673 OFFCURVE",
"251 673 CURVE SMOOTH",
"263 673 OFFCURVE",
"269 665.333 OFFCURVE",
"269 650 CURVE",
"269 650 LINE",
"269 632.667 OFFCURVE",
"250 618 OFFCURVE",
"234 618 CURVE",
"234 618 LINE"
);
}
);
userData = {
assembly = "NPUSHB[ ]	/* 38 values pushed */\0121 64 64 64 65 23 62 60 42 29 62 59 55 53 36 23 17 5 6 12 5 0 48 50 6 25 3 7 20 14 7 9 9 25 34 1 36 70 \012SROUND[ ]	/* SuperRound */\012MDAP[1]	/* MoveDirectAbsPt */\012SHZ[1]	/* ShiftZoneByLastPoint */\012RTG[ ]	/* RoundToGrid */\012SVTCA[0]	/* SetFreedomAndProjectionVectorToAxis */\012MDAP[1]	/* MoveDirectAbsPt */\012ALIGNRP[ ]	/* AlignRelativePt */\012MDAP[1]	/* MoveDirectAbsPt */\012SRP0[ ]	/* SetRefPoint0 */\012MIRP[11101]	/* MoveIndirectRelPt */\012MDAP[1]	/* MoveDirectAbsPt */\012MIRP[11101]	/* MoveIndirectRelPt */\012SRP0[ ]	/* SetRefPoint0 */\012MIRP[11101]	/* MoveIndirectRelPt */\012ALIGNRP[ ]	/* AlignRelativePt */\012SVTCA[1]	/* SetFreedomAndProjectionVectorToAxis */\012MDAP[1]	/* MoveDirectAbsPt */\012MIRP[11101]	/* MoveIndirectRelPt */\012MDAP[1]	/* MoveDirectAbsPt */\012MIRP[11101]	/* MoveIndirectRelPt */\012MDAP[0]	/* MoveDirectAbsPt */\012MDAP[0]	/* MoveDirectAbsPt */\012MDAP[0]	/* MoveDirectAbsPt */\012MDAP[0]	/* MoveDirectAbsPt */\012MDAP[0]	/* MoveDirectAbsPt */\012MDAP[0]	/* MoveDirectAbsPt */\012SVTCA[0]	/* SetFreedomAndProjectionVectorToAxis */\012MDAP[0]	/* MoveDirectAbsPt */\012MDAP[0]	/* MoveDirectAbsPt */\012MDAP[0]	/* MoveDirectAbsPt */\012MDAP[0]	/* MoveDirectAbsPt */\012IUP[1]	/* InterpolateUntPts */\012IUP[0]	/* InterpolateUntPts */\012SVTCA[1]	/* SetFreedomAndProjectionVectorToAxis */\012MD[0]	/* MeasureDistance */\012ROUND[00]	/* Round */\012PUSHW[ ]	/* 2 values pushed */\01236 64 \012MD[0]	/* MeasureDistance */\012ROUND[00]	/* Round */\012SUB[ ]	/* Subtract */\012PUSHB[ ]	/* 1 value pushed */\01264 \012GT[ ]	/* GreaterThan */\012IF[ ]	/* If */\012SHPIX[ ]	/* ShiftZoneByPixel */\012SRP1[ ]	/* SetRefPoint1 */\012SHZ[1]	/* ShiftZoneByLastPoint */\012PUSHW[ ]	/* 2 values pushed */\01264 -64 \012SHPIX[ ]	/* ShiftZoneByPixel */\012EIF[ ]	/* EndIf */";
};
width = 483;
}
);
note = Aring;
unicode = 00C5;
},
{
glyphname = Atilde;
lastChange = "2019-11-30 15:48:57 +0000";
layers = (
{
layerId = "F775FF55-200A-4C1E-99C8-011CF6498227";
paths = (
{
closed = 1;
nodes = (
"81 -9 OFFCURVE",
"93.333 6.333 OFFCURVE",
"106 37 CURVE SMOOTH",
"109.333 44.333 OFFCURVE",
"116.667 66 OFFCURVE",
"128 102 CURVE",
"338 127 LINE",
"345.333 109.667 OFFCURVE",
"351.667 92 OFFCURVE",
"357 74 CURVE SMOOTH",
"365.667 48 OFFCURVE",
"372 30.667 OFFCURVE",
"376 22 CURVE SMOOTH",
"387.333 2 OFFCURVE",
"400.667 -8 OFFCURVE",
"416 -8 CURVE SMOOTH",
"440.667 -8 OFFCURVE",
"453 -0.333 OFFCURVE",
"453 15 CURVE",
"453 15 LINE",
"453 24.333 OFFCURVE",
"440 65.667 OFFCURVE",
"414 139 CURVE",
"424 144.333 OFFCURVE",
"429 154.333 OFFCURVE",
"429 169 CURVE SMOOTH",
"429 190.333 OFFCURVE",
"416 213 OFFCURVE",
"396 213 CURVE SMOOTH",
"393.333 213 OFFCURVE",
"391 212.667 OFFCURVE",
"389 212 CURVE",
"380.333 238 OFFCURVE",
"367.333 290.667 OFFCURVE",
"350 370 CURVE SMOOTH",
"335.333 436 OFFCURVE",
"319.667 487.667 OFFCURVE",
"303 525 CURVE SMOOTH",
"291 551 OFFCURVE",
"273 564 OFFCURVE",
"249 564 CURVE SMOOTH",
"217 564 OFFCURVE",
"193.333 546.333 OFFCURVE",
"178 511 CURVE SMOOTH",
"165.333 483.667 OFFCURVE",
"138 401.667 OFFCURVE",
"96 265 CURVE SMOOTH",
"52 125 OFFCURVE",
"30 46.667 OFFCURVE",
"30 30 CURVE SMOOTH",
"30 4 OFFCURVE",
"43 -9 OFFCURVE",
"69 -9 CURVE",
"69 -9 LINE"
);
},
{
closed = 1;
nodes = (
"181.667 286.667 OFFCURVE",
"212.333 385.667 OFFCURVE",
"241 477 CURVE",
"312 202 LINE",
"312 202 LINE",
"269.333 192 OFFCURVE",
"215 184.667 OFFCURVE",
"149 180 CURVE",
"149 180 LINE"
);
},
{
closed = 1;
nodes = (
"139 596 OFFCURVE",
"151.5 603.333 OFFCURVE",
"166.5 618 CURVE SMOOTH",
"181.5 632.667 OFFCURVE",
"195 640 OFFCURVE",
"207 640 CURVE SMOOTH",
"216.333 640 OFFCURVE",
"228.5 634.5 OFFCURVE",
"243.5 623.5 CURVE SMOOTH",
"258.5 612.5 OFFCURVE",
"270.333 607 OFFCURVE",
"279 607 CURVE SMOOTH",
"303 607 OFFCURVE",
"365 665 OFFCURVE",
"365 689 CURVE",
"365 689 LINE",
"365 699 OFFCURVE",
"358 704 OFFCURVE",
"344 704 CURVE SMOOTH",
"334 704 OFFCURVE",
"321 699.167 OFFCURVE",
"305 689.5 CURVE SMOOTH",
"289 679.833 OFFCURVE",
"280 675 OFFCURVE",
"278 675 CURVE SMOOTH",
"271.333 675 OFFCURVE",
"260.167 680 OFFCURVE",
"244.5 690 CURVE SMOOTH",
"228.833 700 OFFCURVE",
"215.667 705 OFFCURVE",
"205 705 CURVE SMOOTH",
"169 705 OFFCURVE",
"116 649 OFFCURVE",
"116 613 CURVE SMOOTH",
"116 601.667 OFFCURVE",
"120.333 596 OFFCURVE",
"129 596 CURVE",
"129 596 LINE"
);
}
);
userData = {
assembly = "NPUSHB[ ]	/* 36 values pushed */\0121 63 63 64 64 22 61 59 43 30 9 61 58 56 54 37 22 11 0 49 51 6 24 3 6 17 6 6 14 20 14 24 35 1 37 70 \012SROUND[ ]	/* SuperRound */\012MDAP[1]	/* MoveDirectAbsPt */\012SHZ[1]	/* ShiftZoneByLastPoint */\012RTG[ ]	/* RoundToGrid */\012SVTCA[0]	/* SetFreedomAndProjectionVectorToAxis */\012MDAP[1]	/* MoveDirectAbsPt */\012ALIGNRP[ ]	/* AlignRelativePt */\012MDAP[1]	/* MoveDirectAbsPt */\012ALIGNRP[ ]	/* AlignRelativePt */\012SRP0[ ]	/* SetRefPoint0 */\012MIRP[11101]	/* MoveIndirectRelPt */\012MDAP[1]	/* MoveDirectAbsPt */\012MIRP[11101]	/* MoveIndirectRelPt */\012SRP0[ ]	/* SetRefPoint0 */\012MIRP[11101]	/* MoveIndirectRelPt */\012ALIGNRP[ ]	/* AlignRelativePt */\012SVTCA[1]	/* SetFreedomAndProjectionVectorToAxis */\012MDAP[0]	/* MoveDirectAbsPt */\012MDAP[0]	/* MoveDirectAbsPt */\012MDAP[0]	/* MoveDirectAbsPt */\012MDAP[0]	/* MoveDirectAbsPt */\012MDAP[0]	/* MoveDirectAbsPt */\012MDAP[0]	/* MoveDirectAbsPt */\012MDAP[0]	/* MoveDirectAbsPt */\012MDAP[0]	/* MoveDirectAbsPt */\012SVTCA[0]	/* SetFreedomAndProjectionVectorToAxis */\012MDAP[0]	/* MoveDirectAbsPt */\012MDAP[0]	/* MoveDirectAbsPt */\012MDAP[0]	/* MoveDirectAbsPt */\012MDAP[0]	/* MoveDirectAbsPt */\012MDAP[0]	/* MoveDirectAbsPt */\012IUP[1]	/* InterpolateUntPts */\012IUP[0]	/* InterpolateUntPts */\012SVTCA[1]	/* SetFreedomAndProjectionVectorToAxis */\012MD[0]	/* MeasureDistance */\012ROUND[00]	/* Round */\012PUSHW[ ]	/* 2 values pushed */\01237 63 \012MD[0]	/* MeasureDistance */\012ROUND[00]	/* Round */\012SUB[ ]	/* Subtract */\012PUSHB[ ]	/* 1 value pushed */\01264 \012GT[ ]	/* GreaterThan */\012IF[ ]	/* If */\012SHPIX[ ]	/* ShiftZoneByPixel */\012SRP1[ ]	/* SetRefPoint1 */\012SHZ[1]	/* ShiftZoneByLastPoint */\012PUSHW[ ]	/* 2 values pushed */\01263 -64 \012SHPIX[ ]	/* ShiftZoneByPixel */\012EIF[ ]	/* EndIf */";
};
width = 483;
}
);
note = Atilde;
unicode = 00C3;
},
{
glyphname = AE;
lastChange = "2019-11-30 15:48:57 +0000";
layers = (
{
layerId = "F775FF55-200A-4C1E-99C8-011CF6498227";
paths = (
{
closed = 1;
nodes = (
"81 0 OFFCURVE",
"93.333 15.667 OFFCURVE",
"106 47 CURVE",
"106 48.333 OFFCURVE",
"112.667 69.667 OFFCURVE",
"126 111 CURVE",
"334 136 LINE",
"341.333 118 OFFCURVE",
"347.667 100.667 OFFCURVE",
"353 84 CURVE SMOOTH",
"361.667 57.333 OFFCURVE",
"368 40.333 OFFCURVE",
"372 33 CURVE SMOOTH",
"382.667 12.333 OFFCURVE",
"396 2 OFFCURVE",
"412 2 CURVE SMOOTH",
"418 2 OFFCURVE",
"426.5 3.167 OFFCURVE",
"437.5 5.5 CURVE SMOOTH",
"448.5 7.833 OFFCURVE",
"457 9 OFFCURVE",
"463 9 CURVE SMOOTH",
"468.333 9 OFFCURVE",
"476.833 8.5 OFFCURVE",
"488.5 7.5 CURVE SMOOTH",
"500.167 6.5 OFFCURVE",
"509 6 OFFCURVE",
"515 6 CURVE SMOOTH",
"547.667 6 OFFCURVE",
"564 17.333 OFFCURVE",
"564 40 CURVE SMOOTH",
"564 72 OFFCURVE",
"555 81 OFFCURVE",
"523 81 CURVE SMOOTH",
"432 81 LINE",
"387 232 LINE",
"398.333 232 OFFCURVE",
"415.833 231.667 OFFCURVE",
"439.5 231 CURVE SMOOTH",
"463.167 230.333 OFFCURVE",
"481.333 230 OFFCURVE",
"494 230 CURVE SMOOTH",
"540.667 230 OFFCURVE",
"564 241.667 OFFCURVE",
"564 265 CURVE SMOOTH",
"564 282.333 OFFCURVE",
"557.667 294.333 OFFCURVE",
"545 301 CURVE SMOOTH",
"535.667 305.667 OFFCURVE",
"521 308 OFFCURVE",
"501 308 CURVE SMOOTH",
"486.333 308 OFFCURVE",
"463.667 307.667 OFFCURVE",
"433 307 CURVE SMOOTH",
"402.333 306.333 OFFCURVE",
"379.667 306 OFFCURVE",
"365 306 CURVE",
"343.667 378.667 OFFCURVE",
"325.333 441.667 OFFCURVE",
"310 495 CURVE",
"325.333 495 OFFCURVE",
"348.167 494.667 OFFCURVE",
"378.5 494 CURVE SMOOTH",
"408.833 493.333 OFFCURVE",
"431.667 493 OFFCURVE",
"447 493 CURVE SMOOTH",
"481.667 493 OFFCURVE",
"511 494 OFFCURVE",
"535 496 CURVE SMOOTH",
"566.333 499.333 OFFCURVE",
"582 510.333 OFFCURVE",
"582 529 CURVE",
"582 529 LINE",
"582 558.333 OFFCURVE",
"555.667 573 OFFCURVE",
"503 573 CURVE SMOOTH",
"491.667 573 OFFCURVE",
"474.833 572.667 OFFCURVE",
"452.5 572 CURVE SMOOTH",
"430.167 571.333 OFFCURVE",
"413.333 571 OFFCURVE",
"402 571 CURVE SMOOTH",
"244 571 LINE SMOOTH",
"213.333 571 OFFCURVE",
"190.667 553.5 OFFCURVE",
"176 518.5 CURVE SMOOTH",
"161.333 483.5 OFFCURVE",
"134 401.667 OFFCURVE",
"94 273 CURVE SMOOTH",
"51.333 137 OFFCURVE",
"30 59 OFFCURVE",
"30 39 CURVE SMOOTH",
"30 13 OFFCURVE",
"43 0 OFFCURVE",
"69 0 CURVE",
"69 0 LINE"
);
},
{
closed = 1;
nodes = (
"182 301.667 OFFCURVE",
"212.333 400.333 OFFCURVE",
"239 485 CURVE",
"309 211 LINE",
"309 211 LINE",
"264.333 200.333 OFFCURVE",
"210.667 193 OFFCURVE",
"148 189 CURVE",
"148 189 LINE"
);
}
);
userData = {
assembly = "NPUSHB[ ]	/* 46 values pushed */\0121 63 63 64 64 0 61 59 40 34 21 7 61 58 47 26 21 16 7 0 31 6 22 2 6 56 4 6 52 9 12 6 18 23 22 6 28 56 53 52 3 45 1 1 47 70 \012SROUND[ ]	/* SuperRound */\012MDAP[1]	/* MoveDirectAbsPt */\012SHZ[1]	/* ShiftZoneByLastPoint */\012RTG[ ]	/* RoundToGrid */\012SVTCA[0]	/* SetFreedomAndProjectionVectorToAxis */\012MIAP[1]	/* MoveIndirectAbsPt */\012MIAP[1]	/* MoveIndirectAbsPt */\012ALIGNRP[ ]	/* AlignRelativePt */\012ALIGNRP[ ]	/* AlignRelativePt */\012MDAP[1]	/* MoveDirectAbsPt */\012MIRP[11101]	/* MoveIndirectRelPt */\012ALIGNRP[ ]	/* AlignRelativePt */\012MDAP[1]	/* MoveDirectAbsPt */\012MIRP[11101]	/* MoveIndirectRelPt */\012ALIGNRP[ ]	/* AlignRelativePt */\012SRP0[ ]	/* SetRefPoint0 */\012MIRP[11101]	/* MoveIndirectRelPt */\012SRP0[ ]	/* SetRefPoint0 */\012MIRP[11101]	/* MoveIndirectRelPt */\012SRP0[ ]	/* SetRefPoint0 */\012MIRP[11101]	/* MoveIndirectRelPt */\012SVTCA[1]	/* SetFreedomAndProjectionVectorToAxis */\012MDAP[0]	/* MoveDirectAbsPt */\012MDAP[0]	/* MoveDirectAbsPt */\012MDAP[0]	/* MoveDirectAbsPt */\012MDAP[0]	/* MoveDirectAbsPt */\012MDAP[0]	/* MoveDirectAbsPt */\012MDAP[0]	/* MoveDirectAbsPt */\012MDAP[0]	/* MoveDirectAbsPt */\012MDAP[0]	/* MoveDirectAbsPt */\012SVTCA[0]	/* SetFreedomAndProjectionVectorToAxis */\012MDAP[0]	/* MoveDirectAbsPt */\012MDAP[0]	/* MoveDirectAbsPt */\012MDAP[0]	/* MoveDirectAbsPt */\012MDAP[0]	/* MoveDirectAbsPt */\012MDAP[0]	/* MoveDirectAbsPt */\012MDAP[0]	/* MoveDirectAbsPt */\012IUP[1]	/* InterpolateUntPts */\012IUP[0]	/* InterpolateUntPts */\012SVTCA[1]	/* SetFreedomAndProjectionVectorToAxis */\012MD[0]	/* MeasureDistance */\012ROUND[00]	/* Round */\012PUSHW[ ]	/* 2 values pushed */\01247 63 \012MD[0]	/* MeasureDistance */\012ROUND[00]	/* Round */\012SUB[ ]	/* Subtract */\012PUSHB[ ]	/* 1 value pushed */\01264 \012GT[ ]	/* GreaterThan */\012IF[ ]	/* If */\012SHPIX[ ]	/* ShiftZoneByPixel */\012SRP1[ ]	/* SetRefPoint1 */\012SHZ[1]	/* ShiftZoneByLastPoint */\012PUSHW[ ]	/* 2 values pushed */\01263 -64 \012SHPIX[ ]	/* ShiftZoneByPixel */\012EIF[ ]	/* EndIf */";
};
width = 612;
}
);
note = AE;
unicode = 00C6;
},
{
glyphname = B;
lastChange = "2019-11-30 15:48:57 +0000";
layers = (
{
layerId = "F775FF55-200A-4C1E-99C8-011CF6498227";
paths = (
{
closed = 1;
nodes = (
"240 0 OFFCURVE",
"299.333 9.667 OFFCURVE",
"354 29 CURVE SMOOTH",
"428 55.667 OFFCURVE",
"465 94.667 OFFCURVE",
"465 146 CURVE SMOOTH",
"465 176.667 OFFCURVE",
"449.667 202.667 OFFCURVE",
"419 224 CURVE SMOOTH",
"394.333 240.667 OFFCURVE",
"364.667 252.333 OFFCURVE",
"330 259 CURVE",
"366 277 OFFCURVE",
"396.667 301 OFFCURVE",
"422 331 CURVE SMOOTH",
"451.333 365 OFFCURVE",
"466 400 OFFCURVE",
"466 436 CURVE",
"466 436 LINE",
"466 484.667 OFFCURVE",
"444 520.667 OFFCURVE",
"400 544 CURVE SMOOTH",
"366 562 OFFCURVE",
"322 571 OFFCURVE",
"268 571 CURVE SMOOTH",
"228.667 571 OFFCURVE",
"183 564.333 OFFCURVE",
"131 551 CURVE SMOOTH",
"63.667 533 OFFCURVE",
"30 510.667 OFFCURVE",
"30 484 CURVE SMOOTH",
"30 465.333 OFFCURVE",
"40.333 456 OFFCURVE",
"61 456 CURVE SMOOTH",
"71 456 OFFCURVE",
"81 457.667 OFFCURVE",
"91 461 CURVE",
"91 444.333 OFFCURVE",
"91 427 OFFCURVE",
"91 409 CURVE SMOOTH",
"91 332.333 OFFCURVE",
"87.667 220.667 OFFCURVE",
"81 74 CURVE",
"61.667 70 OFFCURVE",
"52 58.333 OFFCURVE",
"52 39 CURVE SMOOTH",
"52 25.667 OFFCURVE",
"59.333 16 OFFCURVE",
"74 10 CURVE SMOOTH",
"82 7.333 OFFCURVE",
"95.333 5.333 OFFCURVE",
"114 4 CURVE SMOOTH",
"142 1.333 OFFCURVE",
"162.667 0 OFFCURVE",
"176 0 CURVE",
"176 0 LINE"
);
},
{
closed = 1;
nodes = (
"157.333 76 OFFCURVE",
"154 79.667 OFFCURVE",
"154 87 CURVE SMOOTH",
"154 114 LINE SMOOTH",
"154 194 OFFCURVE",
"161 203 OFFCURVE",
"241 203 CURVE SMOOTH",
"306.333 203 OFFCURVE",
"354.667 185.667 OFFCURVE",
"386 151 CURVE SMOOTH",
"389.333 147 OFFCURVE",
"391 143.667 OFFCURVE",
"391 141 CURVE",
"391 141 LINE",
"391 123 OFFCURVE",
"357.667 107.333 OFFCURVE",
"291 94 CURVE SMOOTH",
"237 82 OFFCURVE",
"194.667 76 OFFCURVE",
"164 76 CURVE",
"164 76 LINE"
);
},
{
closed = 1;
nodes = (
"162 391.333 OFFCURVE",
"161 461.333 OFFCURVE",
"161 476 CURVE",
"201 489.333 OFFCURVE",
"239.333 496 OFFCURVE",
"276 496 CURVE SMOOTH",
"350.667 496 OFFCURVE",
"388 476 OFFCURVE",
"388 436 CURVE",
"388 436 LINE",
"388 376 OFFCURVE",
"313.333 319.333 OFFCURVE",
"164 266 CURVE",
"164 266 LINE"
);
}
);
userData = {
assembly = "NPUSHB[ ]	/* 43 values pushed */\0121 58 58 64 59 0 48 42 26 24 40 18 4 28 4 42 52 51 5 20 42 5 22 36 4 0 44 4 0 8 54 6 12 38 6 32 32 3 12 1 1 28 70 \012SROUND[ ]	/* SuperRound */\012MDAP[1]	/* MoveDirectAbsPt */\012SHZ[1]	/* ShiftZoneByLastPoint */\012RTG[ ]	/* RoundToGrid */\012SVTCA[0]	/* SetFreedomAndProjectionVectorToAxis */\012MIAP[1]	/* MoveIndirectAbsPt */\012MIAP[1]	/* MoveIndirectAbsPt */\012SRP0[ ]	/* SetRefPoint0 */\012MIRP[11101]	/* MoveIndirectRelPt */\012SRP0[ ]	/* SetRefPoint0 */\012MIRP[11101]	/* MoveIndirectRelPt */\012SVTCA[1]	/* SetFreedomAndProjectionVectorToAxis */\012MDAP[1]	/* MoveDirectAbsPt */\012ALIGNRP[ ]	/* AlignRelativePt */\012MIRP[11101]	/* MoveIndirectRelPt */\012SRP0[ ]	/* SetRefPoint0 */\012MIRP[11101]	/* MoveIndirectRelPt */\012MDAP[1]	/* MoveDirectAbsPt */\012MIRP[11101]	/* MoveIndirectRelPt */\012MDAP[1]	/* MoveDirectAbsPt */\012MIRP[11101]	/* MoveIndirectRelPt */\012ALIGNRP[ ]	/* AlignRelativePt */\012SRP0[ ]	/* SetRefPoint0 */\012MIRP[11101]	/* MoveIndirectRelPt */\012MDAP[0]	/* MoveDirectAbsPt */\012MDAP[0]	/* MoveDirectAbsPt */\012MDAP[0]	/* MoveDirectAbsPt */\012SVTCA[0]	/* SetFreedomAndProjectionVectorToAxis */\012MDAP[0]	/* MoveDirectAbsPt */\012MDAP[0]	/* MoveDirectAbsPt */\012MDAP[0]	/* MoveDirectAbsPt */\012MDAP[0]	/* MoveDirectAbsPt */\012IUP[1]	/* InterpolateUntPts */\012IUP[0]	/* InterpolateUntPts */\012SVTCA[1]	/* SetFreedomAndProjectionVectorToAxis */\012MD[0]	/* MeasureDistance */\012ROUND[00]	/* Round */\012PUSHW[ ]	/* 2 values pushed */\01228 58 \012MD[0]	/* MeasureDistance */\012ROUND[00]	/* Round */\012SUB[ ]	/* Subtract */\012PUSHB[ ]	/* 1 value pushed */\01264 \012GT[ ]	/* GreaterThan */\012IF[ ]	/* If */\012SHPIX[ ]	/* ShiftZoneByPixel */\012SRP1[ ]	/* SetRefPoint1 */\012SHZ[1]	/* ShiftZoneByLastPoint */\012PUSHW[ ]	/* 2 values pushed */\01258 -64 \012SHPIX[ ]	/* ShiftZoneByPixel */\012EIF[ ]	/* EndIf */";
};
width = 496;
}
);
note = B;
unicode = 0042;
},
{
glyphname = C;
lastChange = "2019-12-18 07:33:55 +0000";
layers = (
{
anchors = (
{
name = bottom;
position = "{238, 6}";
},
{
name = top;
position = "{244, 567}";
}
);
layerId = "F775FF55-200A-4C1E-99C8-011CF6498227";
paths = (
{
closed = 1;
nodes = (
"310 0 OFFCURVE",
"369.333 36.333 OFFCURVE",
"396 109 CURVE SMOOTH",
"400 119.667 OFFCURVE",
"402 128.667 OFFCURVE",
"402 136 CURVE SMOOTH",
"402 156 OFFCURVE",
"389.667 174 OFFCURVE",
"371 174 CURVE SMOOTH",
"356.333 174 OFFCURVE",
"346 165.667 OFFCURVE",
"340 149 CURVE",
"341.333 128.333 OFFCURVE",
"324.333 110.333 OFFCURVE",
"289 95 CURVE SMOOTH",
"260.333 82.333 OFFCURVE",
"233.667 76 OFFCURVE",
"209 76 CURVE SMOOTH",
"139.667 76 OFFCURVE",
"105 117 OFFCURVE",
"105 199 CURVE SMOOTH",
"105 245 OFFCURVE",
"116.667 291.333 OFFCURVE",
"140 338 CURVE SMOOTH",
"161.333 380 OFFCURVE",
"190 418.667 OFFCURVE",
"226 454 CURVE SMOOTH",
"256 482 OFFCURVE",
"280.333 496 OFFCURVE",
"299 496 CURVE SMOOTH",
"325.667 496 OFFCURVE",
"344 485.333 OFFCURVE",
"354 464 CURVE",
"360 444.667 OFFCURVE",
"365.667 425.333 OFFCURVE",
"371 406 CURVE SMOOTH",
"377.667 384.667 OFFCURVE",
"390 374 OFFCURVE",
"408 374 CURVE SMOOTH",
"420 374 OFFCURVE",
"427.333 374.667 OFFCURVE",
"430 376 CURVE",
"440.667 384.667 OFFCURVE",
"446 403 OFFCURVE",
"446 431 CURVE",
"446 431 LINE",
"446 504.333 OFFCURVE",
"377.333 571 OFFCURVE",
"304 571 CURVE SMOOTH",
"292.667 571 OFFCURVE",
"281 569.333 OFFCURVE",
"269 566 CURVE SMOOTH",
"201 546.667 OFFCURVE",
"143.333 496.667 OFFCURVE",
"96 416 CURVE SMOOTH",
"52 341.333 OFFCURVE",
"30 266.333 OFFCURVE",
"30 191 CURVE SMOOTH",
"30 71 OFFCURVE",
"98 0 OFFCURVE",
"218 0 CURVE",
"218 0 LINE"
);
}
);
userData = {
assembly = "NPUSHB[ ]	/* 30 values pushed */\0121 43 43 64 44 0 24 0 22 5 27 16 4 34 4 6 40 10 6 40 18 6 31 40 3 31 1 1 34 70 \012SROUND[ ]	/* SuperRound */\012MDAP[1]	/* MoveDirectAbsPt */\012SHZ[1]	/* ShiftZoneByLastPoint */\012RTG[ ]	/* RoundToGrid */\012SVTCA[0]	/* SetFreedomAndProjectionVectorToAxis */\012MIAP[1]	/* MoveIndirectAbsPt */\012MIAP[1]	/* MoveIndirectAbsPt */\012SRP0[ ]	/* SetRefPoint0 */\012MIRP[11101]	/* MoveIndirectRelPt */\012SRP0[ ]	/* SetRefPoint0 */\012MIRP[11101]	/* MoveIndirectRelPt */\012SRP0[ ]	/* SetRefPoint0 */\012MIRP[11101]	/* MoveIndirectRelPt */\012SVTCA[1]	/* SetFreedomAndProjectionVectorToAxis */\012MDAP[1]	/* MoveDirectAbsPt */\012MIRP[11101]	/* MoveIndirectRelPt */\012MDAP[1]	/* MoveDirectAbsPt */\012MIRP[11101]	/* MoveIndirectRelPt */\012MDAP[0]	/* MoveDirectAbsPt */\012SVTCA[0]	/* SetFreedomAndProjectionVectorToAxis */\012MDAP[0]	/* MoveDirectAbsPt */\012IUP[1]	/* InterpolateUntPts */\012IUP[0]	/* InterpolateUntPts */\012SVTCA[1]	/* SetFreedomAndProjectionVectorToAxis */\012MD[0]	/* MeasureDistance */\012ROUND[00]	/* Round */\012PUSHW[ ]	/* 2 values pushed */\01234 43 \012MD[0]	/* MeasureDistance */\012ROUND[00]	/* Round */\012SUB[ ]	/* Subtract */\012PUSHB[ ]	/* 1 value pushed */\01264 \012GT[ ]	/* GreaterThan */\012IF[ ]	/* If */\012SHPIX[ ]	/* ShiftZoneByPixel */\012SRP1[ ]	/* SetRefPoint1 */\012SHZ[1]	/* ShiftZoneByLastPoint */\012PUSHW[ ]	/* 2 values pushed */\01243 -64 \012SHPIX[ ]	/* ShiftZoneByPixel */\012EIF[ ]	/* EndIf */";
};
width = 476;
}
);
note = C;
unicode = 0043;
},
{
glyphname = D;
lastChange = "2019-11-30 15:48:57 +0000";
layers = (
{
anchors = (
{
name = bottom;
position = "{252, 0}";
},
{
name = center;
position = "{252, 350}";
},
{
name = top;
position = "{214, 571}";
}
);
layerId = "F775FF55-200A-4C1E-99C8-011CF6498227";
paths = (
{
closed = 1;
nodes = (
"111.667 0 OFFCURVE",
"119.667 0.333 OFFCURVE",
"127 1 CURVE SMOOTH",
"225.667 13.667 OFFCURVE",
"305.333 44.333 OFFCURVE",
"366 93 CURVE SMOOTH",
"438 149.667 OFFCURVE",
"474 224.333 OFFCURVE",
"474 317 CURVE",
"474 317 LINE",
"474 466.333 OFFCURVE",
"363.333 571 OFFCURVE",
"214 571 CURVE SMOOTH",
"176 571 OFFCURVE",
"140 567 OFFCURVE",
"106 559 CURVE SMOOTH",
"55.333 546.333 OFFCURVE",
"30 527 OFFCURVE",
"30 501 CURVE SMOOTH",
"30 486.333 OFFCURVE",
"42.333 479 OFFCURVE",
"67 479 CURVE SMOOTH",
"74.333 479 OFFCURVE",
"81.667 479.667 OFFCURVE",
"89 481 CURVE",
"89 474.333 OFFCURVE",
"89.333 455 OFFCURVE",
"90 423 CURVE SMOOTH",
"90 399.667 OFFCURVE",
"90 380.667 OFFCURVE",
"90 366 CURVE SMOOTH",
"90 164 LINE SMOOTH",
"90 132.667 OFFCURVE",
"89.667 101.667 OFFCURVE",
"89 71 CURVE",
"77 70.333 OFFCURVE",
"66 66.667 OFFCURVE",
"56 60 CURVE SMOOTH",
"45.333 52.667 OFFCURVE",
"40 43.333 OFFCURVE",
"40 32 CURVE SMOOTH",
"40 10.667 OFFCURVE",
"61 0 OFFCURVE",
"103 0 CURVE",
"103 0 LINE"
);
},
{
closed = 1;
nodes = (
"166 489 LINE",
"180 491 OFFCURVE",
"194.333 492 OFFCURVE",
"209 492 CURVE SMOOTH",
"263 492 OFFCURVE",
"307 477.667 OFFCURVE",
"341 449 CURVE SMOOTH",
"378.333 419 OFFCURVE",
"397 377.333 OFFCURVE",
"397 324 CURVE",
"397 324 LINE",
"397 245.333 OFFCURVE",
"374.333 195.667 OFFCURVE",
"313 149 CURVE SMOOTH",
"268.333 114.333 OFFCURVE",
"217.667 92.667 OFFCURVE",
"161 84 CURVE",
"161 84 LINE"
);
}
);
userData = {
assembly = "NPUSHB[ ]	/* 32 values pushed */\0121 42 42 64 43 0 37 21 19 23 8 12 5 37 37 5 17 15 14 30 4 0 34 6 27 27 3 6 1 1 23 70 \012SROUND[ ]	/* SuperRound */\012MDAP[1]	/* MoveDirectAbsPt */\012SHZ[1]	/* ShiftZoneByLastPoint */\012RTG[ ]	/* RoundToGrid */\012SVTCA[0]	/* SetFreedomAndProjectionVectorToAxis */\012MIAP[1]	/* MoveIndirectAbsPt */\012MIAP[1]	/* MoveIndirectAbsPt */\012SRP0[ ]	/* SetRefPoint0 */\012MIRP[11101]	/* MoveIndirectRelPt */\012SVTCA[1]	/* SetFreedomAndProjectionVectorToAxis */\012MDAP[1]	/* MoveDirectAbsPt */\012MIRP[11101]	/* MoveIndirectRelPt */\012MDAP[1]	/* MoveDirectAbsPt */\012ALIGNRP[ ]	/* AlignRelativePt */\012ALIGNRP[ ]	/* AlignRelativePt */\012MIRP[11101]	/* MoveIndirectRelPt */\012SRP0[ ]	/* SetRefPoint0 */\012MIRP[11101]	/* MoveIndirectRelPt */\012MDAP[0]	/* MoveDirectAbsPt */\012MDAP[0]	/* MoveDirectAbsPt */\012SVTCA[0]	/* SetFreedomAndProjectionVectorToAxis */\012MDAP[0]	/* MoveDirectAbsPt */\012MDAP[0]	/* MoveDirectAbsPt */\012MDAP[0]	/* MoveDirectAbsPt */\012IUP[1]	/* InterpolateUntPts */\012IUP[0]	/* InterpolateUntPts */\012SVTCA[1]	/* SetFreedomAndProjectionVectorToAxis */\012MD[0]	/* MeasureDistance */\012ROUND[00]	/* Round */\012PUSHW[ ]	/* 2 values pushed */\01223 42 \012MD[0]	/* MeasureDistance */\012ROUND[00]	/* Round */\012SUB[ ]	/* Subtract */\012PUSHB[ ]	/* 1 value pushed */\01264 \012GT[ ]	/* GreaterThan */\012IF[ ]	/* If */\012SHPIX[ ]	/* ShiftZoneByPixel */\012SRP1[ ]	/* SetRefPoint1 */\012SHZ[1]	/* ShiftZoneByLastPoint */\012PUSHW[ ]	/* 2 values pushed */\01242 -64 \012SHPIX[ ]	/* ShiftZoneByPixel */\012EIF[ ]	/* EndIf */";
};
width = 504;
}
);
note = D;
unicode = 0044;
},
{
glyphname = E;
lastChange = "2019-11-30 15:48:57 +0000";
layers = (
{
anchors = (
{
name = bottom;
position = "{221, 0}";
},
{
name = ogonek;
position = "{397, 10}";
},
{
name = top;
position = "{221, 575}";
},
{
name = topleft;
position = "{34, 527}";
}
);
layerId = "F775FF55-200A-4C1E-99C8-011CF6498227";
paths = (
{
closed = 1;
nodes = (
"134.333 0 OFFCURVE",
"151.667 1.333 OFFCURVE",
"175 4 CURVE SMOOTH",
"198.333 6.667 OFFCURVE",
"215.667 8 OFFCURVE",
"227 8 CURVE SMOOTH",
"268.333 8 OFFCURVE",
"305.333 6.667 OFFCURVE",
"338 4 CURVE SMOOTH",
"365.333 1.333 OFFCURVE",
"380.667 0 OFFCURVE",
"384 0 CURVE SMOOTH",
"400 0 OFFCURVE",
"411 16.667 OFFCURVE",
"411 34 CURVE",
"411 34 LINE",
"411 54.667 OFFCURVE",
"392.333 67.667 OFFCURVE",
"355 73 CURVE SMOOTH",
"297.667 81 OFFCURVE",
"251.667 85 OFFCURVE",
"217 85 CURVE SMOOTH",
"198.333 85 OFFCURVE",
"174.667 83 OFFCURVE",
"146 79 CURVE",
"152 243 LINE",
"216.667 247 OFFCURVE",
"266.333 249 OFFCURVE",
"301 249 CURVE SMOOTH",
"335 249 OFFCURVE",
"349.333 248.667 OFFCURVE",
"344 248 CURVE SMOOTH",
"365.333 249.333 OFFCURVE",
"376 254.667 OFFCURVE",
"376 264 CURVE SMOOTH",
"376 295.333 OFFCURVE",
"345.333 313.667 OFFCURVE",
"284 319 CURVE SMOOTH",
"240.667 321 OFFCURVE",
"198 322.667 OFFCURVE",
"156 324 CURVE",
"158 398 OFFCURVE",
"159.667 453.667 OFFCURVE",
"161 491 CURVE",
"175.667 491 OFFCURVE",
"194 491 OFFCURVE",
"216 491 CURVE SMOOTH",
"224.667 491 OFFCURVE",
"237.833 490.833 OFFCURVE",
"255.5 490.5 CURVE SMOOTH",
"273.167 490.167 OFFCURVE",
"286.333 490 OFFCURVE",
"295 490 CURVE SMOOTH",
"325.667 490 OFFCURVE",
"348 491.667 OFFCURVE",
"362 495 CURVE SMOOTH",
"390 501.667 OFFCURVE",
"404 515.333 OFFCURVE",
"404 536 CURVE SMOOTH",
"404 557.333 OFFCURVE",
"384.667 569 OFFCURVE",
"362 569 CURVE SMOOTH",
"334.667 569 OFFCURVE",
"293.167 569.667 OFFCURVE",
"237.5 571 CURVE SMOOTH",
"181.833 572.333 OFFCURVE",
"140.333 573 OFFCURVE",
"113 573 CURVE SMOOTH",
"60.333 573 OFFCURVE",
"34 557.667 OFFCURVE",
"34 527 CURVE SMOOTH",
"34 505.667 OFFCURVE",
"50.333 494.667 OFFCURVE",
"83 494 CURVE",
"83 472.667 OFFCURVE",
"82 444.333 OFFCURVE",
"80 409 CURVE SMOOTH",
"77.333 366.333 OFFCURVE",
"76 338 OFFCURVE",
"76 324 CURVE",
"52 324 OFFCURVE",
"30 307.667 OFFCURVE",
"30 285 CURVE SMOOTH",
"30 262.333 OFFCURVE",
"51 247.333 OFFCURVE",
"75 246 CURVE",
"74.333 235.333 OFFCURVE",
"72.667 202.333 OFFCURVE",
"70 147 CURVE SMOOTH",
"67.333 106.333 OFFCURVE",
"66 73.333 OFFCURVE",
"66 48 CURVE SMOOTH",
"66 28.667 OFFCURVE",
"71 15.667 OFFCURVE",
"81 9 CURVE SMOOTH",
"89.667 3 OFFCURVE",
"103.667 0 OFFCURVE",
"123 0 CURVE",
"123 0 LINE"
);
}
);
userData = {
assembly = "NPUSHB[ ]	/* 37 values pushed */\0121 66 66 64 67 0 60 57 55 53 38 30 28 21 18 0 60 4 14 49 4 24 62 6 7 42 45 6 35 32 3 10 3 1 1 21 70 \012SROUND[ ]	/* SuperRound */\012MDAP[1]	/* MoveDirectAbsPt */\012SHZ[1]	/* ShiftZoneByLastPoint */\012RTG[ ]	/* RoundToGrid */\012SVTCA[0]	/* SetFreedomAndProjectionVectorToAxis */\012MIAP[1]	/* MoveIndirectAbsPt */\012ALIGNRP[ ]	/* AlignRelativePt */\012MIAP[1]	/* MoveIndirectAbsPt */\012MDAP[1]	/* MoveDirectAbsPt */\012MIRP[11101]	/* MoveIndirectRelPt */\012ALIGNRP[ ]	/* AlignRelativePt */\012MDAP[1]	/* MoveDirectAbsPt */\012MIRP[11101]	/* MoveIndirectRelPt */\012SVTCA[1]	/* SetFreedomAndProjectionVectorToAxis */\012MDAP[1]	/* MoveDirectAbsPt */\012MIRP[11101]	/* MoveIndirectRelPt */\012MDAP[1]	/* MoveDirectAbsPt */\012MIRP[11101]	/* MoveIndirectRelPt */\012MDAP[0]	/* MoveDirectAbsPt */\012MDAP[0]	/* MoveDirectAbsPt */\012MDAP[0]	/* MoveDirectAbsPt */\012MDAP[0]	/* MoveDirectAbsPt */\012MDAP[0]	/* MoveDirectAbsPt */\012MDAP[0]	/* MoveDirectAbsPt */\012MDAP[0]	/* MoveDirectAbsPt */\012SVTCA[0]	/* SetFreedomAndProjectionVectorToAxis */\012MDAP[0]	/* MoveDirectAbsPt */\012MDAP[0]	/* MoveDirectAbsPt */\012MDAP[0]	/* MoveDirectAbsPt */\012IUP[1]	/* InterpolateUntPts */\012IUP[0]	/* InterpolateUntPts */\012SVTCA[1]	/* SetFreedomAndProjectionVectorToAxis */\012MD[0]	/* MeasureDistance */\012ROUND[00]	/* Round */\012PUSHW[ ]	/* 2 values pushed */\01221 66 \012MD[0]	/* MeasureDistance */\012ROUND[00]	/* Round */\012SUB[ ]	/* Subtract */\012PUSHB[ ]	/* 1 value pushed */\01264 \012GT[ ]	/* GreaterThan */\012IF[ ]	/* If */\012SHPIX[ ]	/* ShiftZoneByPixel */\012SRP1[ ]	/* SetRefPoint1 */\012SHZ[1]	/* ShiftZoneByLastPoint */\012PUSHW[ ]	/* 2 values pushed */\01266 -64 \012SHPIX[ ]	/* ShiftZoneByPixel */\012EIF[ ]	/* EndIf */";
};
width = 441;
}
);
note = E;
unicode = 0045;
},
{
glyphname = Ecircumflex;
lastChange = "2019-11-30 15:48:57 +0000";
layers = (
{
layerId = "F775FF55-200A-4C1E-99C8-011CF6498227";
paths = (
{
closed = 1;
nodes = (
"134.333 -9 OFFCURVE",
"151.667 -7.667 OFFCURVE",
"175 -5 CURVE SMOOTH",
"198.333 -2.333 OFFCURVE",
"215.667 -1 OFFCURVE",
"227 -1 CURVE SMOOTH",
"267.667 -1 OFFCURVE",
"304.667 -2.333 OFFCURVE",
"338 -5 CURVE SMOOTH",
"365.333 -7.667 OFFCURVE",
"380.667 -9 OFFCURVE",
"384 -9 CURVE SMOOTH",
"398.667 -9 OFFCURVE",
"411 9 OFFCURVE",
"411 25 CURVE",
"411 25 LINE",
"411 45.667 OFFCURVE",
"392.333 58.667 OFFCURVE",
"355 64 CURVE SMOOTH",
"294.333 72 OFFCURVE",
"248 76 OFFCURVE",
"216 76 CURVE SMOOTH",
"198 76 OFFCURVE",
"174.667 74 OFFCURVE",
"146 70 CURVE",
"152 234 LINE",
"216.667 238 OFFCURVE",
"266.333 240 OFFCURVE",
"301 240 CURVE SMOOTH",
"334.333 240 OFFCURVE",
"348.333 239.667 OFFCURVE",
"343 239 CURVE SMOOTH",
"364.333 240.333 OFFCURVE",
"375 245.667 OFFCURVE",
"375 255 CURVE SMOOTH",
"375 286.333 OFFCURVE",
"344.667 304.667 OFFCURVE",
"284 310 CURVE SMOOTH",
"240.667 312 OFFCURVE",
"198 313.667 OFFCURVE",
"156 315 CURVE",
"158 389 OFFCURVE",
"159.667 444.667 OFFCURVE",
"161 482 CURVE",
"174.333 482 OFFCURVE",
"189.333 482 OFFCURVE",
"206 482 CURVE SMOOTH",
"216.667 482 OFFCURVE",
"233.167 481.833 OFFCURVE",
"255.5 481.5 CURVE SMOOTH",
"277.833 481.167 OFFCURVE",
"294.667 481 OFFCURVE",
"306 481 CURVE SMOOTH",
"371.333 481 OFFCURVE",
"404 496.333 OFFCURVE",
"404 527 CURVE SMOOTH",
"404 569.968 OFFCURVE",
"333.08 558.606 OFFCURVE",
"237 561.5 CURVE SMOOTH",
"181.667 563.167 OFFCURVE",
"140 564 OFFCURVE",
"112 564 CURVE SMOOTH",
"60 564 OFFCURVE",
"34 548.667 OFFCURVE",
"34 518 CURVE SMOOTH",
"34 496.667 OFFCURVE",
"50.333 485.667 OFFCURVE",
"83 485 CURVE",
"83 463.667 OFFCURVE",
"82 435 OFFCURVE",
"80 399 CURVE SMOOTH",
"77.333 356.333 OFFCURVE",
"76 328 OFFCURVE",
"76 314 CURVE",
"52 314 OFFCURVE",
"30 297.667 OFFCURVE",
"30 275 CURVE SMOOTH",
"30 252.333 OFFCURVE",
"51 238.333 OFFCURVE",
"75 237 CURVE",
"74.333 226.333 OFFCURVE",
"72.667 193.333 OFFCURVE",
"70 138 CURVE SMOOTH",
"67.333 97.333 OFFCURVE",
"66 64.333 OFFCURVE",
"66 39 CURVE SMOOTH",
"66 19.667 OFFCURVE",
"71 6.667 OFFCURVE",
"81 0 CURVE SMOOTH",
"89.667 -6 OFFCURVE",
"103.667 -9 OFFCURVE",
"123 -9 CURVE",
"123 -9 LINE"
);
},
{
closed = 1;
nodes = (
"331 585 OFFCURVE",
"334 587.667 OFFCURVE",
"334 593 CURVE",
"334 593 LINE",
"334 603 OFFCURVE",
"327 619 OFFCURVE",
"313 641 CURVE SMOOTH",
"301 659.667 OFFCURVE",
"289.667 674.333 OFFCURVE",
"279 685 CURVE SMOOTH",
"267 698.333 OFFCURVE",
"254.333 705 OFFCURVE",
"241 705 CURVE SMOOTH",
"227.667 705 OFFCURVE",
"212.333 697.333 OFFCURVE",
"195 682 CURVE SMOOTH",
"152.333 642.667 OFFCURVE",
"131 614.667 OFFCURVE",
"131 598 CURVE SMOOTH",
"131 593.333 OFFCURVE",
"134.333 591 OFFCURVE",
"141 591 CURVE SMOOTH",
"163.667 591 OFFCURVE",
"196 608.667 OFFCURVE",
"238 644 CURVE",
"278 604.667 OFFCURVE",
"307 585 OFFCURVE",
"325 585 CURVE",
"325 585 LINE"
);
}
);
userData = {
assembly = "NPUSHB[ ]	/* 42 values pushed */\0121 80 80 64 81 18 74 71 69 59 56 50 6 2 67 54 48 46 39 36 18 8 4 0 74 4 32 63 4 42 4 7 12 76 6 25 12 28 21 1 39 70 \012SROUND[ ]	/* SuperRound */\012MDAP[1]	/* MoveDirectAbsPt */\012SHZ[1]	/* ShiftZoneByLastPoint */\012RTG[ ]	/* RoundToGrid */\012SVTCA[0]	/* SetFreedomAndProjectionVectorToAxis */\012MDAP[1]	/* MoveDirectAbsPt */\012ALIGNRP[ ]	/* AlignRelativePt */\012MDAP[1]	/* MoveDirectAbsPt */\012MDAP[1]	/* MoveDirectAbsPt */\012MIRP[11101]	/* MoveIndirectRelPt */\012SRP0[ ]	/* SetRefPoint0 */\012MIRP[11101]	/* MoveIndirectRelPt */\012SVTCA[1]	/* SetFreedomAndProjectionVectorToAxis */\012MDAP[1]	/* MoveDirectAbsPt */\012MIRP[11101]	/* MoveIndirectRelPt */\012MDAP[1]	/* MoveDirectAbsPt */\012MIRP[11101]	/* MoveIndirectRelPt */\012MDAP[1]	/* MoveDirectAbsPt */\012MIRP[11101]	/* MoveIndirectRelPt */\012MDAP[0]	/* MoveDirectAbsPt */\012MDAP[0]	/* MoveDirectAbsPt */\012MDAP[0]	/* MoveDirectAbsPt */\012MDAP[0]	/* MoveDirectAbsPt */\012MDAP[0]	/* MoveDirectAbsPt */\012MDAP[0]	/* MoveDirectAbsPt */\012MDAP[0]	/* MoveDirectAbsPt */\012SVTCA[0]	/* SetFreedomAndProjectionVectorToAxis */\012MDAP[0]	/* MoveDirectAbsPt */\012MDAP[0]	/* MoveDirectAbsPt */\012MDAP[0]	/* MoveDirectAbsPt */\012MDAP[0]	/* MoveDirectAbsPt */\012MDAP[0]	/* MoveDirectAbsPt */\012MDAP[0]	/* MoveDirectAbsPt */\012MDAP[0]	/* MoveDirectAbsPt */\012MDAP[0]	/* MoveDirectAbsPt */\012IUP[1]	/* InterpolateUntPts */\012IUP[0]	/* InterpolateUntPts */\012SVTCA[1]	/* SetFreedomAndProjectionVectorToAxis */\012MD[0]	/* MeasureDistance */\012ROUND[00]	/* Round */\012PUSHW[ ]	/* 2 values pushed */\01239 80 \012MD[0]	/* MeasureDistance */\012ROUND[00]	/* Round */\012SUB[ ]	/* Subtract */\012PUSHB[ ]	/* 1 value pushed */\01264 \012GT[ ]	/* GreaterThan */\012IF[ ]	/* If */\012SHPIX[ ]	/* ShiftZoneByPixel */\012SRP1[ ]	/* SetRefPoint1 */\012SHZ[1]	/* ShiftZoneByLastPoint */\012PUSHW[ ]	/* 2 values pushed */\01280 -64 \012SHPIX[ ]	/* ShiftZoneByPixel */\012EIF[ ]	/* EndIf */";
};
width = 441;
}
);
note = Ecircumflex;
unicode = 00CA;
},
{
glyphname = Egrave;
lastChange = "2019-11-30 15:48:57 +0000";
layers = (
{
layerId = "F775FF55-200A-4C1E-99C8-011CF6498227";
paths = (
{
closed = 1;
nodes = (
"134.333 -2 OFFCURVE",
"151.667 -0.667 OFFCURVE",
"175 2 CURVE SMOOTH",
"198.333 4.667 OFFCURVE",
"215.667 6 OFFCURVE",
"227 6 CURVE SMOOTH",
"267.667 6 OFFCURVE",
"304.667 4.667 OFFCURVE",
"338 2 CURVE SMOOTH",
"365.333 -0.667 OFFCURVE",
"380.667 -2 OFFCURVE",
"384 -2 CURVE SMOOTH",
"398.667 -2 OFFCURVE",
"411 16 OFFCURVE",
"411 32 CURVE",
"411 32 LINE",
"411 52.667 OFFCURVE",
"392.333 65.667 OFFCURVE",
"355 71 CURVE SMOOTH",
"294.333 79 OFFCURVE",
"248 83 OFFCURVE",
"216 83 CURVE SMOOTH",
"198 83 OFFCURVE",
"174.667 81 OFFCURVE",
"146 77 CURVE",
"152 241 LINE",
"216.667 245 OFFCURVE",
"266.333 247 OFFCURVE",
"301 247 CURVE SMOOTH",
"334.333 247 OFFCURVE",
"348.333 246.667 OFFCURVE",
"343 246 CURVE SMOOTH",
"364.333 247.333 OFFCURVE",
"375 252.667 OFFCURVE",
"375 262 CURVE SMOOTH",
"375 293.333 OFFCURVE",
"344.667 311.667 OFFCURVE",
"284 317 CURVE SMOOTH",
"240.667 319 OFFCURVE",
"198 320.667 OFFCURVE",
"156 322 CURVE",
"158 396 OFFCURVE",
"159.667 451.667 OFFCURVE",
"161 489 CURVE",
"174.333 489 OFFCURVE",
"189.333 489 OFFCURVE",
"206 489 CURVE SMOOTH",
"216.667 489 OFFCURVE",
"233.167 488.833 OFFCURVE",
"255.5 488.5 CURVE SMOOTH",
"277.833 488.167 OFFCURVE",
"294.667 488 OFFCURVE",
"306 488 CURVE SMOOTH",
"371.333 488 OFFCURVE",
"404 503.333 OFFCURVE",
"404 534 CURVE SMOOTH",
"404 576.968 OFFCURVE",
"333.08 565.606 OFFCURVE",
"237 568.5 CURVE SMOOTH",
"181.667 570.167 OFFCURVE",
"140 571 OFFCURVE",
"112 571 CURVE SMOOTH",
"60 571 OFFCURVE",
"34 555.667 OFFCURVE",
"34 525 CURVE SMOOTH",
"34 503.667 OFFCURVE",
"50.333 492.667 OFFCURVE",
"83 492 CURVE",
"83 470.667 OFFCURVE",
"82 442 OFFCURVE",
"80 406 CURVE SMOOTH",
"77.333 363.333 OFFCURVE",
"76 335 OFFCURVE",
"76 321 CURVE",
"52 321 OFFCURVE",
"30 304.667 OFFCURVE",
"30 282 CURVE SMOOTH",
"30 259.333 OFFCURVE",
"51 245.333 OFFCURVE",
"75 244 CURVE",
"74.333 233.333 OFFCURVE",
"72.667 200.333 OFFCURVE",
"70 145 CURVE SMOOTH",
"67.333 104.333 OFFCURVE",
"66 71.333 OFFCURVE",
"66 46 CURVE SMOOTH",
"66 26.667 OFFCURVE",
"71 13.667 OFFCURVE",
"81 7 CURVE SMOOTH",
"89.667 1 OFFCURVE",
"103.667 -2 OFFCURVE",
"123 -2 CURVE",
"123 -2 LINE"
);
},
{
closed = 1;
nodes = (
"252 592 OFFCURVE",
"257 596 OFFCURVE",
"257 604 CURVE",
"257 604 LINE",
"257 612.667 OFFCURVE",
"248.333 629.667 OFFCURVE",
"231 655 CURVE SMOOTH",
"215 679 OFFCURVE",
"202.667 694.333 OFFCURVE",
"194 701 CURVE SMOOTH",
"184 708.333 OFFCURVE",
"171 712 OFFCURVE",
"155 712 CURVE SMOOTH",
"124.333 712 OFFCURVE",
"109 704.333 OFFCURVE",
"109 689 CURVE SMOOTH",
"109 669 OFFCURVE",
"126.333 647.333 OFFCURVE",
"161 624 CURVE SMOOTH",
"194.333 602.667 OFFCURVE",
"221.333 592 OFFCURVE",
"242 592 CURVE",
"242 592 LINE"
);
}
);
userData = {
assembly = "NPUSHB[ ]	/* 41 values pushed */\0121 76 76 64 77 14 70 67 65 2 63 50 44 42 35 32 14 6 0 70 4 28 59 4 38 52 55 6 8 72 6 21 8 46 3 24 17 1 1 35 70 \012SROUND[ ]	/* SuperRound */\012MDAP[1]	/* MoveDirectAbsPt */\012SHZ[1]	/* ShiftZoneByLastPoint */\012RTG[ ]	/* RoundToGrid */\012SVTCA[0]	/* SetFreedomAndProjectionVectorToAxis */\012MIAP[1]	/* MoveIndirectAbsPt */\012ALIGNRP[ ]	/* AlignRelativePt */\012MIAP[1]	/* MoveIndirectAbsPt */\012MDAP[1]	/* MoveDirectAbsPt */\012MDAP[1]	/* MoveDirectAbsPt */\012MIRP[11101]	/* MoveIndirectRelPt */\012SRP0[ ]	/* SetRefPoint0 */\012MIRP[11101]	/* MoveIndirectRelPt */\012ALIGNRP[ ]	/* AlignRelativePt */\012SVTCA[1]	/* SetFreedomAndProjectionVectorToAxis */\012MDAP[1]	/* MoveDirectAbsPt */\012MIRP[11101]	/* MoveIndirectRelPt */\012MDAP[1]	/* MoveDirectAbsPt */\012MIRP[11101]	/* MoveIndirectRelPt */\012MDAP[0]	/* MoveDirectAbsPt */\012MDAP[0]	/* MoveDirectAbsPt */\012MDAP[0]	/* MoveDirectAbsPt */\012MDAP[0]	/* MoveDirectAbsPt */\012MDAP[0]	/* MoveDirectAbsPt */\012MDAP[0]	/* MoveDirectAbsPt */\012MDAP[0]	/* MoveDirectAbsPt */\012MDAP[0]	/* MoveDirectAbsPt */\012MDAP[0]	/* MoveDirectAbsPt */\012SVTCA[0]	/* SetFreedomAndProjectionVectorToAxis */\012MDAP[0]	/* MoveDirectAbsPt */\012MDAP[0]	/* MoveDirectAbsPt */\012MDAP[0]	/* MoveDirectAbsPt */\012MDAP[0]	/* MoveDirectAbsPt */\012IUP[1]	/* InterpolateUntPts */\012IUP[0]	/* InterpolateUntPts */\012SVTCA[1]	/* SetFreedomAndProjectionVectorToAxis */\012MD[0]	/* MeasureDistance */\012ROUND[00]	/* Round */\012PUSHW[ ]	/* 2 values pushed */\01235 76 \012MD[0]	/* MeasureDistance */\012ROUND[00]	/* Round */\012SUB[ ]	/* Subtract */\012PUSHB[ ]	/* 1 value pushed */\01264 \012GT[ ]	/* GreaterThan */\012IF[ ]	/* If */\012SHPIX[ ]	/* ShiftZoneByPixel */\012SRP1[ ]	/* SetRefPoint1 */\012SHZ[1]	/* ShiftZoneByLastPoint */\012PUSHW[ ]	/* 2 values pushed */\01276 -64 \012SHPIX[ ]	/* ShiftZoneByPixel */\012EIF[ ]	/* EndIf */";
};
width = 441;
}
);
note = Egrave;
unicode = 00C8;
},
{
glyphname = F;
lastChange = "2019-11-30 15:48:57 +0000";
layers = (
{
layerId = "F775FF55-200A-4C1E-99C8-011CF6498227";
paths = (
{
closed = 1;
nodes = (
"151.667 0 OFFCURVE",
"166 23.667 OFFCURVE",
"166 49 CURVE SMOOTH",
"166 63 OFFCURVE",
"165.667 84.333 OFFCURVE",
"165 113 CURVE SMOOTH",
"164.333 141.667 OFFCURVE",
"164 163 OFFCURVE",
"164 177 CURVE SMOOTH",
"164 198.333 OFFCURVE",
"164.667 220.667 OFFCURVE",
"166 244 CURVE",
"209.333 246 OFFCURVE",
"240 247 OFFCURVE",
"258 247 CURVE SMOOTH",
"265.333 247 OFFCURVE",
"275.667 246.5 OFFCURVE",
"289 245.5 CURVE SMOOTH",
"302.333 244.5 OFFCURVE",
"312.667 244 OFFCURVE",
"320 244 CURVE SMOOTH",
"355.333 244 OFFCURVE",
"373 255 OFFCURVE",
"373 277 CURVE SMOOTH",
"373 308.333 OFFCURVE",
"328.667 324 OFFCURVE",
"240 324 CURVE SMOOTH",
"214 324 OFFCURVE",
"189.333 324 OFFCURVE",
"166 324 CURVE",
"166 335.333 OFFCURVE",
"165.667 354.333 OFFCURVE",
"165 381 CURVE SMOOTH",
"165 406.333 OFFCURVE",
"165 425.667 OFFCURVE",
"165 439 CURVE SMOOTH",
"165 462.333 OFFCURVE",
"165.333 479 OFFCURVE",
"166 489 CURVE",
"174.667 489 OFFCURVE",
"195.333 488 OFFCURVE",
"228 486 CURVE SMOOTH",
"253.333 485.333 OFFCURVE",
"274.333 485 OFFCURVE",
"291 485 CURVE SMOOTH",
"369.667 485 OFFCURVE",
"409 501.333 OFFCURVE",
"409 534 CURVE",
"409 534 LINE",
"409 552.667 OFFCURVE",
"392.667 567 OFFCURVE",
"374 567 CURVE SMOOTH",
"367.333 567 OFFCURVE",
"357.5 566.667 OFFCURVE",
"344.5 566 CURVE SMOOTH",
"331.5 565.333 OFFCURVE",
"321.667 565 OFFCURVE",
"315 565 CURVE SMOOTH",
"288.333 565 OFFCURVE",
"248.333 566 OFFCURVE",
"195 568 CURVE SMOOTH",
"141.667 570 OFFCURVE",
"101.667 571 OFFCURVE",
"75 571 CURVE SMOOTH",
"51 571 OFFCURVE",
"30 557.667 OFFCURVE",
"30 535 CURVE SMOOTH",
"30 507.667 OFFCURVE",
"49.667 494 OFFCURVE",
"89 494 CURVE",
"89 494 OFFCURVE",
"89 455.667 OFFCURVE",
"89 379 CURVE SMOOTH",
"89 357 OFFCURVE",
"88 337.333 OFFCURVE",
"86 320 CURVE",
"62 320 OFFCURVE",
"42 305.667 OFFCURVE",
"42 283 CURVE SMOOTH",
"42 259 OFFCURVE",
"63 241 OFFCURVE",
"87 241 CURVE",
"87 215 LINE SMOOTH",
"87 206.333 OFFCURVE",
"86.667 187.667 OFFCURVE",
"86 159 CURVE SMOOTH",
"86 135.667 OFFCURVE",
"86 116.667 OFFCURVE",
"86 102 CURVE SMOOTH",
"86.667 81.333 OFFCURVE",
"88.333 62.667 OFFCURVE",
"91 46 CURVE SMOOTH",
"95.667 15.333 OFFCURVE",
"108.333 0 OFFCURVE",
"129 0 CURVE",
"129 0 LINE"
);
}
);
userData = {
assembly = "NPUSHB[ ]	/* 41 values pushed */\0121 64 64 64 65 0 61 18 6 52 43 35 28 16 0 10 8 25 4 39 6 4 50 40 39 3 48 2 6 58 12 14 6 21 55 3 31 1 1 52 70 \012SROUND[ ]	/* SuperRound */\012MDAP[1]	/* MoveDirectAbsPt */\012SHZ[1]	/* ShiftZoneByLastPoint */\012RTG[ ]	/* RoundToGrid */\012SVTCA[0]	/* SetFreedomAndProjectionVectorToAxis */\012MIAP[1]	/* MoveIndirectAbsPt */\012MIAP[1]	/* MoveIndirectAbsPt */\012MDAP[1]	/* MoveDirectAbsPt */\012MIRP[11101]	/* MoveIndirectRelPt */\012ALIGNRP[ ]	/* AlignRelativePt */\012MDAP[1]	/* MoveDirectAbsPt */\012MIRP[11101]	/* MoveIndirectRelPt */\012SVTCA[1]	/* SetFreedomAndProjectionVectorToAxis */\012MDAP[1]	/* MoveDirectAbsPt */\012SLOOP[ ]	/* SetLoopVariable */\012ALIGNRP[ ]	/* AlignRelativePt */\012MIRP[11101]	/* MoveIndirectRelPt */\012SRP0[ ]	/* SetRefPoint0 */\012MIRP[11101]	/* MoveIndirectRelPt */\012ALIGNRP[ ]	/* AlignRelativePt */\012ALIGNRP[ ]	/* AlignRelativePt */\012MDAP[0]	/* MoveDirectAbsPt */\012MDAP[0]	/* MoveDirectAbsPt */\012MDAP[0]	/* MoveDirectAbsPt */\012MDAP[0]	/* MoveDirectAbsPt */\012MDAP[0]	/* MoveDirectAbsPt */\012MDAP[0]	/* MoveDirectAbsPt */\012SVTCA[0]	/* SetFreedomAndProjectionVectorToAxis */\012MDAP[0]	/* MoveDirectAbsPt */\012MDAP[0]	/* MoveDirectAbsPt */\012MDAP[0]	/* MoveDirectAbsPt */\012IUP[1]	/* InterpolateUntPts */\012IUP[0]	/* InterpolateUntPts */\012SVTCA[1]	/* SetFreedomAndProjectionVectorToAxis */\012MD[0]	/* MeasureDistance */\012ROUND[00]	/* Round */\012PUSHW[ ]	/* 2 values pushed */\01252 64 \012MD[0]	/* MeasureDistance */\012ROUND[00]	/* Round */\012SUB[ ]	/* Subtract */\012PUSHB[ ]	/* 1 value pushed */\01264 \012GT[ ]	/* GreaterThan */\012IF[ ]	/* If */\012SHPIX[ ]	/* ShiftZoneByPixel */\012SRP1[ ]	/* SetRefPoint1 */\012SHZ[1]	/* ShiftZoneByLastPoint */\012PUSHW[ ]	/* 2 values pushed */\01264 -64 \012SHPIX[ ]	/* ShiftZoneByPixel */\012EIF[ ]	/* EndIf */";
};
width = 439;
}
);
note = F;
unicode = 0046;
},
{
glyphname = G;
lastChange = "2019-11-30 15:48:57 +0000";
layers = (
{
anchors = (
{
name = bottom;
position = "{246, 0}";
},
{
name = top;
position = "{251, 564}";
}
);
layerId = "F775FF55-200A-4C1E-99C8-011CF6498227";
paths = (
{
closed = 1;
nodes = (
"448.667 -2 OFFCURVE",
"461 16.333 OFFCURVE",
"461 35 CURVE",
"461 35 LINE",
"461 53 OFFCURVE",
"456.167 78.833 OFFCURVE",
"446.5 112.5 CURVE SMOOTH",
"436.833 146.167 OFFCURVE",
"432 171.667 OFFCURVE",
"432 189 CURVE SMOOTH",
"432 194.333 OFFCURVE",
"432.333 202.167 OFFCURVE",
"433 212.5 CURVE SMOOTH",
"433.667 222.833 OFFCURVE",
"434 230.667 OFFCURVE",
"434 236 CURVE SMOOTH",
"434 268 OFFCURVE",
"422.333 284 OFFCURVE",
"399 284 CURVE SMOOTH",
"374.333 284 OFFCURVE",
"362 263 OFFCURVE",
"362 221 CURVE SMOOTH",
"362 217 LINE",
"364 226 LINE",
"364 222 LINE SMOOTH",
"366.667 186.667 OFFCURVE",
"350.333 154 OFFCURVE",
"315 124 CURVE SMOOTH",
"281.667 95.333 OFFCURVE",
"246.667 81 OFFCURVE",
"210 81 CURVE SMOOTH",
"172 81 OFFCURVE",
"143 96.667 OFFCURVE",
"123 128 CURVE SMOOTH",
"106.333 154 OFFCURVE",
"98 187.333 OFFCURVE",
"98 228 CURVE SMOOTH",
"98 269.333 OFFCURVE",
"107.333 309.667 OFFCURVE",
"126 349 CURVE SMOOTH",
"142.667 385 OFFCURVE",
"167.333 417.667 OFFCURVE",
"200 447 CURVE SMOOTH",
"237.333 480.333 OFFCURVE",
"273.667 497 OFFCURVE",
"309 497 CURVE SMOOTH",
"338.333 497 OFFCURVE",
"364 478.333 OFFCURVE",
"364 449 CURVE SMOOTH",
"364 446.333 OFFCURVE",
"363.5 442.333 OFFCURVE",
"362.5 437 CURVE SMOOTH",
"361.5 431.667 OFFCURVE",
"361 427.667 OFFCURVE",
"361 425 CURVE SMOOTH",
"361 409.667 OFFCURVE",
"373 402 OFFCURVE",
"397 402 CURVE SMOOTH",
"421 402 OFFCURVE",
"433 420.333 OFFCURVE",
"433 457 CURVE SMOOTH",
"433 493.667 OFFCURVE",
"418.333 522.333 OFFCURVE",
"389 543 CURVE SMOOTH",
"363 561.667 OFFCURVE",
"331 571 OFFCURVE",
"293 571 CURVE SMOOTH",
"278.333 571 OFFCURVE",
"264.333 568.667 OFFCURVE",
"251 564 CURVE SMOOTH",
"129.667 525.333 OFFCURVE",
"30 383.333 OFFCURVE",
"30 254 CURVE SMOOTH",
"30 186.667 OFFCURVE",
"40.333 132 OFFCURVE",
"61 90 CURVE SMOOTH",
"89 34.667 OFFCURVE",
"133.333 7 OFFCURVE",
"194 7 CURVE SMOOTH",
"259.333 7 OFFCURVE",
"335.333 40.333 OFFCURVE",
"378 87 CURVE",
"390 27.667 OFFCURVE",
"407.333 -2 OFFCURVE",
"430 -2 CURVE",
"430 -2 LINE"
);
}
);
userData = {
assembly = "NPUSHB[ ]	/* 39 values pushed */\0121 58 58 64 59 0 50 47 46 23 5 55 46 45 0 37 5 12 48 28 25 3 47 5 21 52 41 6 8 31 6 17 17 3 3 1 1 12 70 \012SROUND[ ]	/* SuperRound */\012MDAP[1]	/* MoveDirectAbsPt */\012SHZ[1]	/* ShiftZoneByLastPoint */\012RTG[ ]	/* RoundToGrid */\012SVTCA[0]	/* SetFreedomAndProjectionVectorToAxis */\012MIAP[1]	/* MoveIndirectAbsPt */\012MIAP[1]	/* MoveIndirectAbsPt */\012SRP0[ ]	/* SetRefPoint0 */\012MIRP[11101]	/* MoveIndirectRelPt */\012MDAP[1]	/* MoveDirectAbsPt */\012MIRP[11101]	/* MoveIndirectRelPt */\012SVTCA[1]	/* SetFreedomAndProjectionVectorToAxis */\012MDAP[1]	/* MoveDirectAbsPt */\012ALIGNRP[ ]	/* AlignRelativePt */\012MIRP[11101]	/* MoveIndirectRelPt */\012SLOOP[ ]	/* SetLoopVariable */\012ALIGNRP[ ]	/* AlignRelativePt */\012MDAP[1]	/* MoveDirectAbsPt */\012MIRP[11101]	/* MoveIndirectRelPt */\012MDAP[0]	/* MoveDirectAbsPt */\012MDAP[0]	/* MoveDirectAbsPt */\012MDAP[0]	/* MoveDirectAbsPt */\012MDAP[0]	/* MoveDirectAbsPt */\012SVTCA[0]	/* SetFreedomAndProjectionVectorToAxis */\012MDAP[0]	/* MoveDirectAbsPt */\012MDAP[0]	/* MoveDirectAbsPt */\012MDAP[0]	/* MoveDirectAbsPt */\012MDAP[0]	/* MoveDirectAbsPt */\012MDAP[0]	/* MoveDirectAbsPt */\012IUP[1]	/* InterpolateUntPts */\012IUP[0]	/* InterpolateUntPts */\012SVTCA[1]	/* SetFreedomAndProjectionVectorToAxis */\012MD[0]	/* MeasureDistance */\012ROUND[00]	/* Round */\012PUSHW[ ]	/* 2 values pushed */\01212 58 \012MD[0]	/* MeasureDistance */\012ROUND[00]	/* Round */\012SUB[ ]	/* Subtract */\012PUSHB[ ]	/* 1 value pushed */\01264 \012GT[ ]	/* GreaterThan */\012IF[ ]	/* If */\012SHPIX[ ]	/* ShiftZoneByPixel */\012SRP1[ ]	/* SetRefPoint1 */\012SHZ[1]	/* ShiftZoneByLastPoint */\012PUSHW[ ]	/* 2 values pushed */\01258 -64 \012SHPIX[ ]	/* ShiftZoneByPixel */\012EIF[ ]	/* EndIf */";
};
width = 491;
}
);
note = G;
unicode = 0047;
},
{
glyphname = H;
lastChange = "2019-11-30 15:48:57 +0000";
layers = (
{
layerId = "F775FF55-200A-4C1E-99C8-011CF6498227";
paths = (
{
closed = 1;
nodes = (
"117.667 0 OFFCURVE",
"127.333 5.333 OFFCURVE",
"134 16 CURVE SMOOTH",
"140 24.667 OFFCURVE",
"143 35.667 OFFCURVE",
"143 49 CURVE SMOOTH",
"143 69 OFFCURVE",
"143 98 OFFCURVE",
"143 136 CURVE SMOOTH",
"143.667 176 OFFCURVE",
"144 205.333 OFFCURVE",
"144 224 CURVE",
"237.333 235.333 OFFCURVE",
"307.333 243 OFFCURVE",
"354 247 CURVE",
"354 211.667 OFFCURVE",
"354 176.333 OFFCURVE",
"354 141 CURVE SMOOTH",
"354 99 OFFCURVE",
"357.333 64 OFFCURVE",
"364 36 CURVE SMOOTH",
"370 12.667 OFFCURVE",
"381.667 1 OFFCURVE",
"399 1 CURVE SMOOTH",
"411.667 1 OFFCURVE",
"421.333 7 OFFCURVE",
"428 19 CURVE SMOOTH",
"433.333 29 OFFCURVE",
"436 41 OFFCURVE",
"436 55 CURVE SMOOTH",
"436 75 OFFCURVE",
"435.667 104.833 OFFCURVE",
"435 144.5 CURVE SMOOTH",
"434.333 184.167 OFFCURVE",
"434 214 OFFCURVE",
"434 234 CURVE SMOOTH",
"434 252 LINE",
"456.667 253.333 OFFCURVE",
"476 273.333 OFFCURVE",
"476 296 CURVE",
"476 296 LINE",
"476 317.333 OFFCURVE",
"461.333 334 OFFCURVE",
"440 334 CURVE SMOOTH",
"437.333 334 OFFCURVE",
"434.667 334 OFFCURVE",
"432 334 CURVE",
"434 524 LINE SMOOTH",
"434 546.667 OFFCURVE",
"420.333 571 OFFCURVE",
"399 571 CURVE SMOOTH",
"377.667 571 OFFCURVE",
"357 549.667 OFFCURVE",
"357 527 CURVE SMOOTH",
"355 326 LINE",
"261 316 OFFCURVE",
"190.667 308.667 OFFCURVE",
"144 304 CURVE",
"144 325.333 OFFCURVE",
"144.5 357.667 OFFCURVE",
"145.5 401 CURVE SMOOTH",
"146.5 444.333 OFFCURVE",
"147 477 OFFCURVE",
"147 499 CURVE SMOOTH",
"147 544.333 OFFCURVE",
"133.333 567 OFFCURVE",
"106 567 CURVE SMOOTH",
"83.333 567 OFFCURVE",
"69 549.667 OFFCURVE",
"69 527 CURVE SMOOTH",
"69 389.667 OFFCURVE",
"69 313 OFFCURVE",
"69 297 CURVE",
"47.667 295.667 OFFCURVE",
"30 280.333 OFFCURVE",
"30 259 CURVE SMOOTH",
"30 236.333 OFFCURVE",
"46.333 218.667 OFFCURVE",
"69 220 CURVE",
"70.333 198 OFFCURVE",
"71 176.667 OFFCURVE",
"71 156 CURVE SMOOTH",
"71 142.667 OFFCURVE",
"70.667 123.333 OFFCURVE",
"70 98 CURVE SMOOTH",
"69.333 72.667 OFFCURVE",
"69 53.667 OFFCURVE",
"69 41 CURVE SMOOTH",
"69 18.333 OFFCURVE",
"82.333 0 OFFCURVE",
"105 0 CURVE",
"105 0 LINE"
);
}
);
userData = {
assembly = "NPUSHB[ ]	/* 49 values pushed */\0121 66 66 64 67 0 63 61 51 46 17 48 38 0 51 53 8 53 54 19 17 17 19 7 4 53 33 5 21 23 21 51 4 30 53 4 60 4 3 3 61 57 3 27 11 1 1 38 70 \012SROUND[ ]	/* SuperRound */\012MDAP[1]	/* MoveDirectAbsPt */\012SHZ[1]	/* ShiftZoneByLastPoint */\012RTG[ ]	/* RoundToGrid */\012SVTCA[0]	/* SetFreedomAndProjectionVectorToAxis */\012MIAP[1]	/* MoveIndirectAbsPt */\012ALIGNRP[ ]	/* AlignRelativePt */\012MIAP[1]	/* MoveIndirectAbsPt */\012SVTCA[1]	/* SetFreedomAndProjectionVectorToAxis */\012MDAP[1]	/* MoveDirectAbsPt */\012SLOOP[ ]	/* SetLoopVariable */\012ALIGNRP[ ]	/* AlignRelativePt */\012MIRP[11101]	/* MoveIndirectRelPt */\012MDAP[1]	/* MoveDirectAbsPt */\012MIRP[11101]	/* MoveIndirectRelPt */\012ALIGNRP[ ]	/* AlignRelativePt */\012ALIGNRP[ ]	/* AlignRelativePt */\012SRP0[ ]	/* SetRefPoint0 */\012MIRP[11101]	/* MoveIndirectRelPt */\012SRP0[ ]	/* SetRefPoint0 */\012MIRP[11101]	/* MoveIndirectRelPt */\012SDPVTL[1]	/* SetDualPVectorToLine */\012MDAP[0]	/* MoveDirectAbsPt */\012SFVTPV[ ]	/* SetFVectorToPVector */\012MDRP[00100]	/* MoveDirectRelPt */\012SFVTL[0]	/* SetFVectorToLine */\012MIRP[11100]	/* MoveIndirectRelPt */\012SFVTPV[ ]	/* SetFVectorToPVector */\012MDRP[00100]	/* MoveDirectRelPt */\012SVTCA[1]	/* SetFreedomAndProjectionVectorToAxis */\012MDAP[0]	/* MoveDirectAbsPt */\012MDAP[0]	/* MoveDirectAbsPt */\012MDAP[0]	/* MoveDirectAbsPt */\012SVTCA[0]	/* SetFreedomAndProjectionVectorToAxis */\012MDAP[0]	/* MoveDirectAbsPt */\012MDAP[0]	/* MoveDirectAbsPt */\012MDAP[0]	/* MoveDirectAbsPt */\012MDAP[0]	/* MoveDirectAbsPt */\012MDAP[0]	/* MoveDirectAbsPt */\012IUP[1]	/* InterpolateUntPts */\012IUP[0]	/* InterpolateUntPts */\012SVTCA[1]	/* SetFreedomAndProjectionVectorToAxis */\012MD[0]	/* MeasureDistance */\012ROUND[00]	/* Round */\012PUSHW[ ]	/* 2 values pushed */\01238 66 \012MD[0]	/* MeasureDistance */\012ROUND[00]	/* Round */\012SUB[ ]	/* Subtract */\012PUSHB[ ]	/* 1 value pushed */\01264 \012GT[ ]	/* GreaterThan */\012IF[ ]	/* If */\012SHPIX[ ]	/* ShiftZoneByPixel */\012SRP1[ ]	/* SetRefPoint1 */\012SHZ[1]	/* ShiftZoneByLastPoint */\012PUSHW[ ]	/* 2 values pushed */\01266 -64 \012SHPIX[ ]	/* ShiftZoneByPixel */\012EIF[ ]	/* EndIf */";
};
width = 506;
}
);
note = H;
unicode = 0048;
},
{
glyphname = I;
lastChange = "2019-11-30 15:48:57 +0000";
layers = (
{
anchors = (
{
name = bottom;
position = "{72, 0}";
},
{
name = ogonek;
position = "{130, 10}";
},
{
name = top;
position = "{70, 571}";
},
{
name = topleft;
position = "{13, 572}";
}
);
layerId = "F775FF55-200A-4C1E-99C8-011CF6498227";
paths = (
{
closed = 1;
nodes = (
"89.333 0 OFFCURVE",
"99.333 6.333 OFFCURVE",
"106 19 CURVE SMOOTH",
"111.333 29 OFFCURVE",
"114 40.667 OFFCURVE",
"114 54 CURVE",
"114 54 LINE",
"114 101.333 OFFCURVE",
"112.833 172.333 OFFCURVE",
"110.5 267 CURVE SMOOTH",
"108.167 361.667 OFFCURVE",
"107 432.333 OFFCURVE",
"107 479 CURVE SMOOTH",
"107 509 OFFCURVE",
"106 528 OFFCURVE",
"104 536 CURVE SMOOTH",
"99.333 559.333 OFFCURVE",
"88 571 OFFCURVE",
"70 571 CURVE SMOOTH",
"56 571 OFFCURVE",
"45.333 563.667 OFFCURVE",
"38 549 CURVE SMOOTH",
"32.667 537 OFFCURVE",
"30 523.333 OFFCURVE",
"30 508 CURVE SMOOTH",
"30 471.333 OFFCURVE",
"31.5 416.333 OFFCURVE",
"34.5 343 CURVE SMOOTH",
"37.5 269.667 OFFCURVE",
"39 214.667 OFFCURVE",
"39 178 CURVE SMOOTH",
"39 166.667 OFFCURVE",
"38.5 149.5 OFFCURVE",
"37.5 126.5 CURVE SMOOTH",
"36.5 103.5 OFFCURVE",
"36 86.333 OFFCURVE",
"36 75 CURVE SMOOTH",
"36 25 OFFCURVE",
"49.333 0 OFFCURVE",
"76 0 CURVE",
"76 0 LINE"
);
}
);
userData = {
assembly = "NPUSHB[ ]	/* 22 values pushed */\0121 23 23 64 24 0 12 4 0 6 4 0 9 4 0 16 3 4 1 1 12 70 \012SROUND[ ]	/* SuperRound */\012MDAP[1]	/* MoveDirectAbsPt */\012SHZ[1]	/* ShiftZoneByLastPoint */\012RTG[ ]	/* RoundToGrid */\012SVTCA[0]	/* SetFreedomAndProjectionVectorToAxis */\012MIAP[1]	/* MoveIndirectAbsPt */\012MIAP[1]	/* MoveIndirectAbsPt */\012SVTCA[1]	/* SetFreedomAndProjectionVectorToAxis */\012MDAP[1]	/* MoveDirectAbsPt */\012MIRP[11101]	/* MoveIndirectRelPt */\012SRP0[ ]	/* SetRefPoint0 */\012MIRP[11101]	/* MoveIndirectRelPt */\012SRP0[ ]	/* SetRefPoint0 */\012MIRP[11101]	/* MoveIndirectRelPt */\012SVTCA[0]	/* SetFreedomAndProjectionVectorToAxis */\012IUP[1]	/* InterpolateUntPts */\012IUP[0]	/* InterpolateUntPts */\012SVTCA[1]	/* SetFreedomAndProjectionVectorToAxis */\012MD[0]	/* MeasureDistance */\012ROUND[00]	/* Round */\012PUSHW[ ]	/* 2 values pushed */\01212 23 \012MD[0]	/* MeasureDistance */\012ROUND[00]	/* Round */\012SUB[ ]	/* Subtract */\012PUSHB[ ]	/* 1 value pushed */\01264 \012GT[ ]	/* GreaterThan */\012IF[ ]	/* If */\012SHPIX[ ]	/* ShiftZoneByPixel */\012SRP1[ ]	/* SetRefPoint1 */\012SHZ[1]	/* ShiftZoneByLastPoint */\012PUSHW[ ]	/* 2 values pushed */\01223 -64 \012SHPIX[ ]	/* ShiftZoneByPixel */\012EIF[ ]	/* EndIf */";
};
width = 144;
}
);
note = I;
unicode = 0049;
},
{
glyphname = Idieresis;
lastChange = "2019-11-30 15:48:57 +0000";
layers = (
{
layerId = "F775FF55-200A-4C1E-99C8-011CF6498227";
paths = (
{
closed = 1;
nodes = (
"184.667 -1 OFFCURVE",
"194.333 5.333 OFFCURVE",
"201 18 CURVE SMOOTH",
"206.333 28 OFFCURVE",
"209 39.667 OFFCURVE",
"209 53 CURVE",
"209 53 LINE",
"209 99.667 OFFCURVE",
"208.167 169.667 OFFCURVE",
"206.5 263 CURVE SMOOTH",
"204.833 356.333 OFFCURVE",
"204 426.333 OFFCURVE",
"204 473 CURVE SMOOTH",
"204 506.333 OFFCURVE",
"203.333 526.333 OFFCURVE",
"202 533 CURVE SMOOTH",
"197.333 558.333 OFFCURVE",
"185.333 571 OFFCURVE",
"166 571 CURVE SMOOTH",
"152 571 OFFCURVE",
"141.333 563.667 OFFCURVE",
"134 549 CURVE SMOOTH",
"128.667 537 OFFCURVE",
"126 523.333 OFFCURVE",
"126 508 CURVE SMOOTH",
"126 469.333 OFFCURVE",
"127.333 411.333 OFFCURVE",
"130 334 CURVE SMOOTH",
"132.667 256.667 OFFCURVE",
"134 198.667 OFFCURVE",
"134 160 CURVE SMOOTH",
"134 150 OFFCURVE",
"133.833 135.667 OFFCURVE",
"133.5 117 CURVE SMOOTH",
"133.167 98.333 OFFCURVE",
"133 84.333 OFFCURVE",
"133 75 CURVE SMOOTH",
"133 24.333 OFFCURVE",
"146 -1 OFFCURVE",
"172 -1 CURVE",
"172 -1 LINE"
);
},
{
closed = 1;
nodes = (
"96 591 LINE",
"134.667 610.333 OFFCURVE",
"154 636 OFFCURVE",
"154 668 CURVE",
"154 668 LINE",
"154 694.667 OFFCURVE",
"126 715 OFFCURVE",
"98 715 CURVE SMOOTH",
"62 715 OFFCURVE",
"30 677.333 OFFCURVE",
"30 640 CURVE SMOOTH",
"30 607.333 OFFCURVE",
"48 591 OFFCURVE",
"84 591 CURVE",
"84 591 LINE"
);
},
{
closed = 1;
nodes = (
"266 594 LINE",
"302.667 613.333 OFFCURVE",
"321 638 OFFCURVE",
"321 668 CURVE",
"321 668 LINE",
"321 694.667 OFFCURVE",
"293.667 715 OFFCURVE",
"267 715 CURVE SMOOTH",
"232.333 715 OFFCURVE",
"201 679 OFFCURVE",
"201 643 CURVE SMOOTH",
"201 610.333 OFFCURVE",
"219 594 OFFCURVE",
"255 594 CURVE",
"255 594 LINE"
);
}
);
userData = {
assembly = "NPUSHB[ ]	/* 36 values pushed */\0121 45 45 64 46 0 34 4 22 5 4 0 11 4 16 22 4 28 31 3 2 6 8 14 13 6 8 19 8 38 3 26 1 1 16 70 \012SROUND[ ]	/* SuperRound */\012MDAP[1]	/* MoveDirectAbsPt */\012SHZ[1]	/* ShiftZoneByLastPoint */\012RTG[ ]	/* RoundToGrid */\012SVTCA[0]	/* SetFreedomAndProjectionVectorToAxis */\012MIAP[1]	/* MoveIndirectAbsPt */\012MIAP[1]	/* MoveIndirectAbsPt */\012MDAP[1]	/* MoveDirectAbsPt */\012ALIGNRP[ ]	/* AlignRelativePt */\012SRP0[ ]	/* SetRefPoint0 */\012MIRP[11101]	/* MoveIndirectRelPt */\012ALIGNRP[ ]	/* AlignRelativePt */\012SRP0[ ]	/* SetRefPoint0 */\012MIRP[11101]	/* MoveIndirectRelPt */\012ALIGNRP[ ]	/* AlignRelativePt */\012SVTCA[1]	/* SetFreedomAndProjectionVectorToAxis */\012MDAP[1]	/* MoveDirectAbsPt */\012ALIGNRP[ ]	/* AlignRelativePt */\012MIRP[11101]	/* MoveIndirectRelPt */\012MDAP[1]	/* MoveDirectAbsPt */\012MIRP[11101]	/* MoveIndirectRelPt */\012MDAP[1]	/* MoveDirectAbsPt */\012MIRP[11101]	/* MoveIndirectRelPt */\012SRP0[ ]	/* SetRefPoint0 */\012MIRP[11101]	/* MoveIndirectRelPt */\012SVTCA[0]	/* SetFreedomAndProjectionVectorToAxis */\012IUP[1]	/* InterpolateUntPts */\012IUP[0]	/* InterpolateUntPts */\012SVTCA[1]	/* SetFreedomAndProjectionVectorToAxis */\012MD[0]	/* MeasureDistance */\012ROUND[00]	/* Round */\012PUSHW[ ]	/* 2 values pushed */\01216 45 \012MD[0]	/* MeasureDistance */\012ROUND[00]	/* Round */\012SUB[ ]	/* Subtract */\012PUSHB[ ]	/* 1 value pushed */\01264 \012GT[ ]	/* GreaterThan */\012IF[ ]	/* If */\012SHPIX[ ]	/* ShiftZoneByPixel */\012SRP1[ ]	/* SetRefPoint1 */\012SHZ[1]	/* ShiftZoneByLastPoint */\012PUSHW[ ]	/* 2 values pushed */\01245 -64 \012SHPIX[ ]	/* ShiftZoneByPixel */\012EIF[ ]	/* EndIf */";
};
width = 351;
}
);
note = Idieresis;
unicode = 00CF;
},
{
glyphname = Igrave;
lastChange = "2019-11-30 15:48:57 +0000";
layers = (
{
layerId = "F775FF55-200A-4C1E-99C8-011CF6498227";
paths = (
{
closed = 1;
nodes = (
"143.667 1 OFFCURVE",
"153.333 7.333 OFFCURVE",
"160 20 CURVE SMOOTH",
"165.333 30 OFFCURVE",
"168 41.667 OFFCURVE",
"168 55 CURVE",
"168 55 LINE",
"168 101.667 OFFCURVE",
"167 171.667 OFFCURVE",
"165 265 CURVE SMOOTH",
"163 358.333 OFFCURVE",
"162 428.333 OFFCURVE",
"162 475 CURVE SMOOTH",
"162 508.333 OFFCURVE",
"161.333 528.333 OFFCURVE",
"160 535 CURVE SMOOTH",
"156 560.333 OFFCURVE",
"144.333 573 OFFCURVE",
"125 573 CURVE SMOOTH",
"111 573 OFFCURVE",
"100.333 565.333 OFFCURVE",
"93 550 CURVE SMOOTH",
"87 538.667 OFFCURVE",
"84 525 OFFCURVE",
"84 509 CURVE SMOOTH",
"84 470.333 OFFCURVE",
"85.5 412.5 OFFCURVE",
"88.5 335.5 CURVE SMOOTH",
"91.5 258.5 OFFCURVE",
"93 200.667 OFFCURVE",
"93 162 CURVE SMOOTH",
"93 152 OFFCURVE",
"92.667 137.667 OFFCURVE",
"92 119 CURVE SMOOTH",
"91.333 100.333 OFFCURVE",
"91 86.333 OFFCURVE",
"91 77 CURVE SMOOTH",
"91 26.333 OFFCURVE",
"104.333 1 OFFCURVE",
"131 1 CURVE",
"131 1 LINE"
);
},
{
closed = 1;
nodes = (
"172.667 595 OFFCURVE",
"178 599 OFFCURVE",
"178 607 CURVE",
"178 607 LINE",
"178 615.667 OFFCURVE",
"169.333 632.667 OFFCURVE",
"152 658 CURVE SMOOTH",
"136 682 OFFCURVE",
"123.667 697.333 OFFCURVE",
"115 704 CURVE SMOOTH",
"105 711.333 OFFCURVE",
"91.667 715 OFFCURVE",
"75 715 CURVE SMOOTH",
"45 715 OFFCURVE",
"30 707.333 OFFCURVE",
"30 692 CURVE SMOOTH",
"30 672.667 OFFCURVE",
"47.333 651 OFFCURVE",
"82 627 CURVE SMOOTH",
"114.667 605.667 OFFCURVE",
"141.333 595 OFFCURVE",
"162 595 CURVE",
"162 595 LINE"
);
}
);
userData = {
assembly = "NPUSHB[ ]	/* 24 values pushed */\0121 37 37 64 38 0 2 6 0 26 4 14 20 23 4 14 8 30 3 18 1 1 6 70 \012SROUND[ ]	/* SuperRound */\012MDAP[1]	/* MoveDirectAbsPt */\012SHZ[1]	/* ShiftZoneByLastPoint */\012RTG[ ]	/* RoundToGrid */\012SVTCA[0]	/* SetFreedomAndProjectionVectorToAxis */\012MIAP[1]	/* MoveIndirectAbsPt */\012MIAP[1]	/* MoveIndirectAbsPt */\012MDAP[1]	/* MoveDirectAbsPt */\012SVTCA[1]	/* SetFreedomAndProjectionVectorToAxis */\012MDAP[1]	/* MoveDirectAbsPt */\012MIRP[11101]	/* MoveIndirectRelPt */\012ALIGNRP[ ]	/* AlignRelativePt */\012SRP0[ ]	/* SetRefPoint0 */\012MIRP[11101]	/* MoveIndirectRelPt */\012MDAP[0]	/* MoveDirectAbsPt */\012MDAP[0]	/* MoveDirectAbsPt */\012SVTCA[0]	/* SetFreedomAndProjectionVectorToAxis */\012MDAP[0]	/* MoveDirectAbsPt */\012IUP[1]	/* InterpolateUntPts */\012IUP[0]	/* InterpolateUntPts */\012SVTCA[1]	/* SetFreedomAndProjectionVectorToAxis */\012MD[0]	/* MeasureDistance */\012ROUND[00]	/* Round */\012PUSHW[ ]	/* 2 values pushed */\0126 37 \012MD[0]	/* MeasureDistance */\012ROUND[00]	/* Round */\012SUB[ ]	/* Subtract */\012PUSHB[ ]	/* 1 value pushed */\01264 \012GT[ ]	/* GreaterThan */\012IF[ ]	/* If */\012SHPIX[ ]	/* ShiftZoneByPixel */\012SRP1[ ]	/* SetRefPoint1 */\012SHZ[1]	/* ShiftZoneByLastPoint */\012PUSHW[ ]	/* 2 values pushed */\01237 -64 \012SHPIX[ ]	/* ShiftZoneByPixel */\012EIF[ ]	/* EndIf */";
};
width = 208;
}
);
note = Igrave;
unicode = 00CC;
},
{
glyphname = J;
lastChange = "2019-12-01 16:22:25 +0000";
layers = (
{
layerId = "F775FF55-200A-4C1E-99C8-011CF6498227";
paths = (
{
closed = 1;
nodes = (
"236 -5 OFFCURVE",
"275 -1 OFFCURVE",
"311 12 CURVE SMOOTH",
"356 28 OFFCURVE",
"380 55 OFFCURVE",
"383 92 CURVE SMOOTH",
"385 114 OFFCURVE",
"374 141 OFFCURVE",
"367 178 CURVE SMOOTH",
"347 282 OFFCURVE",
"343 329 OFFCURVE",
"319 485 CURVE",
"385 480 LINE SMOOTH",
"422 477 OFFCURVE",
"441 486 OFFCURVE",
"442 508 CURVE",
"445 536 OFFCURVE",
"413 554 OFFCURVE",
"376 557 CURVE SMOOTH",
"333 560 OFFCURVE",
"341 564 OFFCURVE",
"256 569 CURVE SMOOTH",
"151 576 OFFCURVE",
"98 563 OFFCURVE",
"94 526 CURVE SMOOTH",
"92 505 OFFCURVE",
"111 489 OFFCURVE",
"132 489 CURVE SMOOTH",
"141 489 OFFCURVE",
"176 488 OFFCURVE",
"237 488 CURVE",
"244 462 OFFCURVE",
"273 221 OFFCURVE",
"285 175 CURVE SMOOTH",
"292 148 OFFCURVE",
"300 124 OFFCURVE",
"299 109 CURVE SMOOTH",
"297 80 OFFCURVE",
"261 69 OFFCURVE",
"214 74 CURVE SMOOTH",
"163 79 OFFCURVE",
"125 117 OFFCURVE",
"129 173 CURVE SMOOTH",
"131 195 OFFCURVE",
"131 210 OFFCURVE",
"128 217 CURVE SMOOTH",
"124 229 OFFCURVE",
"111 236 OFFCURVE",
"92 238 CURVE SMOOTH",
"50 241 OFFCURVE",
"33 223 OFFCURVE",
"30 179 CURVE SMOOTH",
"28 160 OFFCURVE",
"37 120 OFFCURVE",
"56 92 CURVE SMOOTH",
"97 30 OFFCURVE",
"141 5 OFFCURVE",
"213 -2 CURVE"
);
}
);
userData = {
assembly = "NPUSHB[ ]	/* 32 values pushed */\0121 51 51 64 52 0 40 38 22 43 3 0 26 4 19 32 4 9 2 6 49 30 6 13 47 45 3 13 1 1 19 70 \012SROUND[ ]	/* SuperRound */\012MDAP[1]	/* MoveDirectAbsPt */\012SHZ[1]	/* ShiftZoneByLastPoint */\012RTG[ ]	/* RoundToGrid */\012SVTCA[0]	/* SetFreedomAndProjectionVectorToAxis */\012MIAP[1]	/* MoveIndirectAbsPt */\012MIAP[1]	/* MoveIndirectAbsPt */\012ALIGNRP[ ]	/* AlignRelativePt */\012SRP0[ ]	/* SetRefPoint0 */\012MIRP[11101]	/* MoveIndirectRelPt */\012MDAP[1]	/* MoveDirectAbsPt */\012MIRP[11101]	/* MoveIndirectRelPt */\012SVTCA[1]	/* SetFreedomAndProjectionVectorToAxis */\012MDAP[1]	/* MoveDirectAbsPt */\012MIRP[11101]	/* MoveIndirectRelPt */\012MDAP[1]	/* MoveDirectAbsPt */\012MIRP[11101]	/* MoveIndirectRelPt */\012MDAP[0]	/* MoveDirectAbsPt */\012MDAP[0]	/* MoveDirectAbsPt */\012MDAP[0]	/* MoveDirectAbsPt */\012SVTCA[0]	/* SetFreedomAndProjectionVectorToAxis */\012MDAP[0]	/* MoveDirectAbsPt */\012MDAP[0]	/* MoveDirectAbsPt */\012MDAP[0]	/* MoveDirectAbsPt */\012IUP[1]	/* InterpolateUntPts */\012IUP[0]	/* InterpolateUntPts */\012SVTCA[1]	/* SetFreedomAndProjectionVectorToAxis */\012MD[0]	/* MeasureDistance */\012ROUND[00]	/* Round */\012PUSHW[ ]	/* 2 values pushed */\01219 51 \012MD[0]	/* MeasureDistance */\012ROUND[00]	/* Round */\012SUB[ ]	/* Subtract */\012PUSHB[ ]	/* 1 value pushed */\01264 \012GT[ ]	/* GreaterThan */\012IF[ ]	/* If */\012SHPIX[ ]	/* ShiftZoneByPixel */\012SRP1[ ]	/* SetRefPoint1 */\012SHZ[1]	/* ShiftZoneByLastPoint */\012PUSHW[ ]	/* 2 values pushed */\01251 -64 \012SHPIX[ ]	/* ShiftZoneByPixel */\012EIF[ ]	/* EndIf */";
};
width = 472;
}
);
note = J;
unicode = 004A;
},
{
glyphname = K;
lastChange = "2019-11-30 15:48:57 +0000";
layers = (
{
layerId = "F775FF55-200A-4C1E-99C8-011CF6498227";
paths = (
{
closed = 1;
nodes = (
"95.667 0 OFFCURVE",
"111 38.667 OFFCURVE",
"111 116 CURVE SMOOTH",
"111 211 LINE",
"233.667 115.667 OFFCURVE",
"318.667 52.333 OFFCURVE",
"366 21 CURVE SMOOTH",
"386.667 7.667 OFFCURVE",
"403.667 1 OFFCURVE",
"417 1 CURVE SMOOTH",
"434.333 1 OFFCURVE",
"448 11.667 OFFCURVE",
"448 29 CURVE",
"448 29 LINE",
"448 45.667 OFFCURVE",
"437.333 63.333 OFFCURVE",
"416 82 CURVE",
"383.333 106 OFFCURVE",
"358.333 123.333 OFFCURVE",
"341 134 CURVE SMOOTH",
"281.667 175.333 OFFCURVE",
"223 221 OFFCURVE",
"165 271 CURVE",
"318.333 419 OFFCURVE",
"395 508.667 OFFCURVE",
"395 540 CURVE SMOOTH",
"395 557.333 OFFCURVE",
"379.333 568 OFFCURVE",
"362 568 CURVE SMOOTH",
"349.333 568 OFFCURVE",
"335.667 561.667 OFFCURVE",
"321 549 CURVE",
"289 515.667 OFFCURVE",
"265.667 489.667 OFFCURVE",
"251 471 CURVE",
"190.333 407.667 OFFCURVE",
"144.333 361 OFFCURVE",
"113 331 CURVE",
"113 343.667 OFFCURVE",
"112.667 369.333 OFFCURVE",
"112 408 CURVE SMOOTH",
"111.333 442 OFFCURVE",
"111 468 OFFCURVE",
"111 486 CURVE SMOOTH",
"111 542.667 OFFCURVE",
"97.667 571 OFFCURVE",
"71 571 CURVE SMOOTH",
"45.667 571 OFFCURVE",
"33 539.333 OFFCURVE",
"33 476 CURVE SMOOTH",
"33 430.667 OFFCURVE",
"32.5 362.667 OFFCURVE",
"31.5 272 CURVE SMOOTH",
"30.5 181.333 OFFCURVE",
"30 113 OFFCURVE",
"30 67 CURVE SMOOTH",
"30 22.333 OFFCURVE",
"41.667 0 OFFCURVE",
"65 0 CURVE",
"65 0 LINE"
);
}
);
userData = {
assembly = "NPUSHB[ ]	/* 27 values pushed */\0121 40 40 64 41 0 29 23 7 34 32 0 7 8 4 12 23 4 15 17 3 10 3 1 1 12 70 \012SROUND[ ]	/* SuperRound */\012MDAP[1]	/* MoveDirectAbsPt */\012SHZ[1]	/* ShiftZoneByLastPoint */\012RTG[ ]	/* RoundToGrid */\012SVTCA[0]	/* SetFreedomAndProjectionVectorToAxis */\012MIAP[1]	/* MoveIndirectAbsPt */\012ALIGNRP[ ]	/* AlignRelativePt */\012MIAP[1]	/* MoveIndirectAbsPt */\012SVTCA[1]	/* SetFreedomAndProjectionVectorToAxis */\012MDAP[1]	/* MoveDirectAbsPt */\012MIRP[11101]	/* MoveIndirectRelPt */\012MDAP[1]	/* MoveDirectAbsPt */\012MIRP[11101]	/* MoveIndirectRelPt */\012ALIGNRP[ ]	/* AlignRelativePt */\012MDAP[0]	/* MoveDirectAbsPt */\012MDAP[0]	/* MoveDirectAbsPt */\012MDAP[0]	/* MoveDirectAbsPt */\012SVTCA[0]	/* SetFreedomAndProjectionVectorToAxis */\012MDAP[0]	/* MoveDirectAbsPt */\012MDAP[0]	/* MoveDirectAbsPt */\012MDAP[0]	/* MoveDirectAbsPt */\012IUP[1]	/* InterpolateUntPts */\012IUP[0]	/* InterpolateUntPts */\012SVTCA[1]	/* SetFreedomAndProjectionVectorToAxis */\012MD[0]	/* MeasureDistance */\012ROUND[00]	/* Round */\012PUSHW[ ]	/* 2 values pushed */\01212 40 \012MD[0]	/* MeasureDistance */\012ROUND[00]	/* Round */\012SUB[ ]	/* Subtract */\012PUSHB[ ]	/* 1 value pushed */\01264 \012GT[ ]	/* GreaterThan */\012IF[ ]	/* If */\012SHPIX[ ]	/* ShiftZoneByPixel */\012SRP1[ ]	/* SetRefPoint1 */\012SHZ[1]	/* ShiftZoneByLastPoint */\012PUSHW[ ]	/* 2 values pushed */\01240 -64 \012SHPIX[ ]	/* ShiftZoneByPixel */\012EIF[ ]	/* EndIf */";
};
width = 478;
}
);
note = K;
unicode = 004B;
},
{
glyphname = L;
lastChange = "2019-11-30 15:48:57 +0000";
layers = (
{
anchors = (
{
name = bottom;
position = "{202, 0}";
},
{
name = center;
position = "{202, 333}";
},
{
name = top;
position = "{202, 549}";
},
{
name = topright;
position = "{383, 559}";
}
);
layerId = "F775FF55-200A-4C1E-99C8-011CF6498227";
paths = (
{
closed = 1;
nodes = (
"77 0 OFFCURVE",
"92.667 2 OFFCURVE",
"116 6 CURVE SMOOTH",
"156 13.333 OFFCURVE",
"194.667 17 OFFCURVE",
"232 17 CURVE SMOOTH",
"242.667 17 OFFCURVE",
"258.333 16.5 OFFCURVE",
"279 15.5 CURVE SMOOTH",
"299.667 14.5 OFFCURVE",
"315.333 14 OFFCURVE",
"326 14 CURVE SMOOTH",
"350 14 OFFCURVE",
"373 25.333 OFFCURVE",
"373 48 CURVE",
"373 48 LINE",
"373 76.667 OFFCURVE",
"334 91 OFFCURVE",
"256 91 CURVE SMOOTH",
"218 91 OFFCURVE",
"170.333 87.667 OFFCURVE",
"113 81 CURVE",
"108.333 128.333 OFFCURVE",
"106 184 OFFCURVE",
"106 248 CURVE SMOOTH",
"106 313.333 OFFCURVE",
"107.333 372.5 OFFCURVE",
"110 425.5 CURVE SMOOTH",
"112.667 478.5 OFFCURVE",
"114 507.333 OFFCURVE",
"114 512 CURVE SMOOTH",
"114 525.333 OFFCURVE",
"111.333 537.667 OFFCURVE",
"106 549 CURVE SMOOTH",
"99.333 563.667 OFFCURVE",
"90.333 571 OFFCURVE",
"79 571 CURVE SMOOTH",
"57 571 OFFCURVE",
"43.333 550.333 OFFCURVE",
"38 509 CURVE SMOOTH",
"32.667 469.667 OFFCURVE",
"30 418 OFFCURVE",
"30 354 CURVE SMOOTH",
"30 240 LINE SMOOTH",
"30 219.333 OFFCURVE",
"30.333 192 OFFCURVE",
"31 158 CURVE SMOOTH",
"33 116 OFFCURVE",
"34 88.667 OFFCURVE",
"34 76 CURVE SMOOTH",
"34 52.667 OFFCURVE",
"35 37 OFFCURVE",
"37 29 CURVE SMOOTH",
"42.333 9.667 OFFCURVE",
"53 0 OFFCURVE",
"69 0 CURVE",
"69 0 LINE"
);
}
);
userData = {
assembly = "NPUSHB[ ]	/* 29 values pushed */\0121 36 36 64 37 0 32 27 0 32 4 14 30 4 19 18 3 6 34 34 6 6 23 3 10 1 1 18 70 \012SROUND[ ]	/* SuperRound */\012MDAP[1]	/* MoveDirectAbsPt */\012SHZ[1]	/* ShiftZoneByLastPoint */\012RTG[ ]	/* RoundToGrid */\012SVTCA[0]	/* SetFreedomAndProjectionVectorToAxis */\012MIAP[1]	/* MoveIndirectAbsPt */\012MIAP[1]	/* MoveIndirectAbsPt */\012MDAP[1]	/* MoveDirectAbsPt */\012MIRP[11101]	/* MoveIndirectRelPt */\012SRP0[ ]	/* SetRefPoint0 */\012MIRP[11101]	/* MoveIndirectRelPt */\012SVTCA[1]	/* SetFreedomAndProjectionVectorToAxis */\012MDAP[1]	/* MoveDirectAbsPt */\012ALIGNRP[ ]	/* AlignRelativePt */\012MIRP[11101]	/* MoveIndirectRelPt */\012MDAP[1]	/* MoveDirectAbsPt */\012MIRP[11101]	/* MoveIndirectRelPt */\012MDAP[0]	/* MoveDirectAbsPt */\012MDAP[0]	/* MoveDirectAbsPt */\012SVTCA[0]	/* SetFreedomAndProjectionVectorToAxis */\012MDAP[0]	/* MoveDirectAbsPt */\012IUP[1]	/* InterpolateUntPts */\012IUP[0]	/* InterpolateUntPts */\012SVTCA[1]	/* SetFreedomAndProjectionVectorToAxis */\012MD[0]	/* MeasureDistance */\012ROUND[00]	/* Round */\012PUSHW[ ]	/* 2 values pushed */\01218 36 \012MD[0]	/* MeasureDistance */\012ROUND[00]	/* Round */\012SUB[ ]	/* Subtract */\012PUSHB[ ]	/* 1 value pushed */\01264 \012GT[ ]	/* GreaterThan */\012IF[ ]	/* If */\012SHPIX[ ]	/* ShiftZoneByPixel */\012SRP1[ ]	/* SetRefPoint1 */\012SHZ[1]	/* ShiftZoneByLastPoint */\012PUSHW[ ]	/* 2 values pushed */\01236 -64 \012SHPIX[ ]	/* ShiftZoneByPixel */\012EIF[ ]	/* EndIf */";
};
width = 403;
}
);
note = L;
unicode = 004C;
},
{
glyphname = M;
lastChange = "2019-11-30 15:48:57 +0000";
layers = (
{
layerId = "F775FF55-200A-4C1E-99C8-011CF6498227";
paths = (
{
closed = 1;
nodes = (
"75.333 0 OFFCURVE",
"88.333 12.333 OFFCURVE",
"99 37 CURVE SMOOTH",
"105.667 53.667 OFFCURVE",
"112 74.333 OFFCURVE",
"118 99 CURVE SMOOTH",
"122.667 120.333 OFFCURVE",
"127.333 141.333 OFFCURVE",
"132 162 CURVE SMOOTH",
"158.667 280 OFFCURVE",
"176.333 359.667 OFFCURVE",
"185 401 CURVE",
"187 395.667 OFFCURVE",
"201.667 351 OFFCURVE",
"229 267 CURVE SMOOTH",
"247 213 OFFCURVE",
"262.667 168.667 OFFCURVE",
"276 134 CURVE SMOOTH",
"288 104 OFFCURVE",
"301 89 OFFCURVE",
"315 89 CURVE SMOOTH",
"332.333 89 OFFCURVE",
"348.667 110 OFFCURVE",
"364 152 CURVE SMOOTH",
"386 211.333 OFFCURVE",
"410 295.333 OFFCURVE",
"436 404 CURVE",
"464.667 300.667 OFFCURVE",
"486.333 223 OFFCURVE",
"501 171 CURVE SMOOTH",
"521 101 OFFCURVE",
"535.333 57.333 OFFCURVE",
"544 40 CURVE SMOOTH",
"555.333 16 OFFCURVE",
"568.333 4 OFFCURVE",
"583 4 CURVE SMOOTH",
"603 4 OFFCURVE",
"616 24 OFFCURVE",
"616 44 CURVE",
"616 44 LINE",
"616 63.333 OFFCURVE",
"604.333 108.667 OFFCURVE",
"581 180 CURVE SMOOTH",
"565 228.667 OFFCURVE",
"549.333 277.333 OFFCURVE",
"534 326 CURVE SMOOTH",
"530 339.333 OFFCURVE",
"521.667 371.333 OFFCURVE",
"509 422 CURVE SMOOTH",
"499 462 OFFCURVE",
"490 494.333 OFFCURVE",
"482 519 CURVE SMOOTH",
"470.667 554.333 OFFCURVE",
"455.333 572 OFFCURVE",
"436 572 CURVE SMOOTH",
"418 572 OFFCURVE",
"403.333 552.667 OFFCURVE",
"392 514 CURVE SMOOTH",
"358.667 390.667 OFFCURVE",
"334 298 OFFCURVE",
"318 236 CURVE",
"286 324 OFFCURVE",
"264.667 388.333 OFFCURVE",
"254 429 CURVE SMOOTH",
"244.667 462.333 OFFCURVE",
"238 487.333 OFFCURVE",
"234 504 CURVE",
"220.667 542 OFFCURVE",
"203 561 OFFCURVE",
"181 561 CURVE SMOOTH",
"159.667 561 OFFCURVE",
"143 538.333 OFFCURVE",
"131 493 CURVE SMOOTH",
"125.667 464.333 OFFCURVE",
"121.667 442.667 OFFCURVE",
"119 428 CURVE SMOOTH",
"112.333 389.333 OFFCURVE",
"104 349.667 OFFCURVE",
"94 309 CURVE SMOOTH",
"81.333 263.667 OFFCURVE",
"68.333 218.667 OFFCURVE",
"55 174 CURVE SMOOTH",
"38.333 115.333 OFFCURVE",
"30 71.333 OFFCURVE",
"30 42 CURVE SMOOTH",
"30 31.333 OFFCURVE",
"32.333 22 OFFCURVE",
"37 14 CURVE SMOOTH",
"42.333 4.667 OFFCURVE",
"50 0 OFFCURVE",
"60 0 CURVE",
"60 0 LINE"
);
}
);
userData = {
assembly = "NPUSHB[ ]	/* 31 values pushed */\0121 61 61 64 62 0 47 41 19 13 9 3 31 0 19 21 8 37 35 35 37 29 7 27 51 3 27 1 1 31 70 \012SROUND[ ]	/* SuperRound */\012MDAP[1]	/* MoveDirectAbsPt */\012SHZ[1]	/* ShiftZoneByLastPoint */\012RTG[ ]	/* RoundToGrid */\012SVTCA[0]	/* SetFreedomAndProjectionVectorToAxis */\012MIAP[1]	/* MoveIndirectAbsPt */\012MIAP[1]	/* MoveIndirectAbsPt */\012SRP0[ ]	/* SetRefPoint0 */\012MIRP[11101]	/* MoveIndirectRelPt */\012SVTCA[1]	/* SetFreedomAndProjectionVectorToAxis */\012SDPVTL[1]	/* SetDualPVectorToLine */\012MDAP[0]	/* MoveDirectAbsPt */\012SFVTPV[ ]	/* SetFVectorToPVector */\012MDRP[00100]	/* MoveDirectRelPt */\012SFVTPV[ ]	/* SetFVectorToPVector */\012MIRP[11100]	/* MoveIndirectRelPt */\012SFVTPV[ ]	/* SetFVectorToPVector */\012MDRP[00100]	/* MoveDirectRelPt */\012SVTCA[1]	/* SetFreedomAndProjectionVectorToAxis */\012MDAP[0]	/* MoveDirectAbsPt */\012MDAP[0]	/* MoveDirectAbsPt */\012SVTCA[0]	/* SetFreedomAndProjectionVectorToAxis */\012MDAP[0]	/* MoveDirectAbsPt */\012MDAP[0]	/* MoveDirectAbsPt */\012MDAP[0]	/* MoveDirectAbsPt */\012MDAP[0]	/* MoveDirectAbsPt */\012MDAP[0]	/* MoveDirectAbsPt */\012MDAP[0]	/* MoveDirectAbsPt */\012IUP[1]	/* InterpolateUntPts */\012IUP[0]	/* InterpolateUntPts */\012SVTCA[1]	/* SetFreedomAndProjectionVectorToAxis */\012MD[0]	/* MeasureDistance */\012ROUND[00]	/* Round */\012PUSHW[ ]	/* 2 values pushed */\01231 61 \012MD[0]	/* MeasureDistance */\012ROUND[00]	/* Round */\012SUB[ ]	/* Subtract */\012PUSHB[ ]	/* 1 value pushed */\01264 \012GT[ ]	/* GreaterThan */\012IF[ ]	/* If */\012SHPIX[ ]	/* ShiftZoneByPixel */\012SRP1[ ]	/* SetRefPoint1 */\012SHZ[1]	/* ShiftZoneByLastPoint */\012PUSHW[ ]	/* 2 values pushed */\01261 -64 \012SHPIX[ ]	/* ShiftZoneByPixel */\012EIF[ ]	/* EndIf */";
};
width = 646;
}
);
note = M;
unicode = 004D;
},
{
glyphname = N;
lastChange = "2019-11-30 15:48:57 +0000";
layers = (
{
anchors = (
{
name = bottom;
position = "{237, 0}";
},
{
name = top;
position = "{237, 558}";
}
);
layerId = "F775FF55-200A-4C1E-99C8-011CF6498227";
paths = (
{
closed = 1;
nodes = (
"93.333 0 OFFCURVE",
"108 37 OFFCURVE",
"108 111 CURVE SMOOTH",
"108 237.667 OFFCURVE",
"106.667 348.667 OFFCURVE",
"104 444 CURVE",
"157.333 327.333 OFFCURVE",
"220.333 213 OFFCURVE",
"293 101 CURVE SMOOTH",
"335 35.667 OFFCURVE",
"370 3 OFFCURVE",
"398 3 CURVE SMOOTH",
"428.667 3 OFFCURVE",
"444 49 OFFCURVE",
"444 141 CURVE",
"444 141 LINE",
"444 177 OFFCURVE",
"443.5 230.5 OFFCURVE",
"442.5 301.5 CURVE SMOOTH",
"441.5 372.5 OFFCURVE",
"441 425.667 OFFCURVE",
"441 461 CURVE SMOOTH",
"441 463.667 OFFCURVE",
"441.333 469 OFFCURVE",
"442 477 CURVE SMOOTH",
"442 485 OFFCURVE",
"442 491.333 OFFCURVE",
"442 496 CURVE SMOOTH",
"442 544.667 OFFCURVE",
"429 569 OFFCURVE",
"403 569 CURVE SMOOTH",
"377.667 569 OFFCURVE",
"365 543.667 OFFCURVE",
"365 517 CURVE SMOOTH",
"365 487.667 OFFCURVE",
"366 443.167 OFFCURVE",
"368 383.5 CURVE SMOOTH",
"370 323.833 OFFCURVE",
"371 279.333 OFFCURVE",
"371 250 CURVE SMOOTH",
"371 200.667 OFFCURVE",
"370.333 158 OFFCURVE",
"369 122 CURVE",
"335.667 173.333 OFFCURVE",
"299 237 OFFCURVE",
"259 313 CURVE SMOOTH",
"225 378.333 OFFCURVE",
"191 443.667 OFFCURVE",
"157 509 CURVE SMOOTH",
"135 550.333 OFFCURVE",
"112.333 571 OFFCURVE",
"89 571 CURVE SMOOTH",
"59.667 571 OFFCURVE",
"30 543.333 OFFCURVE",
"30 514 CURVE SMOOTH",
"30 490.667 OFFCURVE",
"30.5 455.5 OFFCURVE",
"31.5 408.5 CURVE SMOOTH",
"32.5 361.5 OFFCURVE",
"33 326.333 OFFCURVE",
"33 303 CURVE SMOOTH",
"33 274.333 OFFCURVE",
"32.5 231.333 OFFCURVE",
"31.5 174 CURVE SMOOTH",
"30.5 116.667 OFFCURVE",
"30 73.667 OFFCURVE",
"30 45 CURVE SMOOTH",
"30 33.667 OFFCURVE",
"32.667 23.667 OFFCURVE",
"38 15 CURVE SMOOTH",
"44.667 5 OFFCURVE",
"53.333 0 OFFCURVE",
"64 0 CURVE",
"64 0 LINE"
);
}
);
userData = {
assembly = "NPUSHB[ ]	/* 36 values pushed */\0121 46 46 64 47 0 37 29 6 2 6 31 5 0 20 14 4 8 8 4 17 29 4 0 34 4 41 39 43 23 3 10 1 1 14 70 \012SROUND[ ]	/* SuperRound */\012MDAP[1]	/* MoveDirectAbsPt */\012SHZ[1]	/* ShiftZoneByLastPoint */\012RTG[ ]	/* RoundToGrid */\012SVTCA[0]	/* SetFreedomAndProjectionVectorToAxis */\012MIAP[1]	/* MoveIndirectAbsPt */\012MIAP[1]	/* MoveIndirectAbsPt */\012SVTCA[1]	/* SetFreedomAndProjectionVectorToAxis */\012MDAP[1]	/* MoveDirectAbsPt */\012ALIGNRP[ ]	/* AlignRelativePt */\012ALIGNRP[ ]	/* AlignRelativePt */\012MIRP[11101]	/* MoveIndirectRelPt */\012MDAP[1]	/* MoveDirectAbsPt */\012MIRP[11101]	/* MoveIndirectRelPt */\012MDAP[1]	/* MoveDirectAbsPt */\012MIRP[11101]	/* MoveIndirectRelPt */\012SRP0[ ]	/* SetRefPoint0 */\012MIRP[11101]	/* MoveIndirectRelPt */\012ALIGNRP[ ]	/* AlignRelativePt */\012SRP0[ ]	/* SetRefPoint0 */\012MIRP[11101]	/* MoveIndirectRelPt */\012MDAP[0]	/* MoveDirectAbsPt */\012SVTCA[0]	/* SetFreedomAndProjectionVectorToAxis */\012MDAP[0]	/* MoveDirectAbsPt */\012MDAP[0]	/* MoveDirectAbsPt */\012MDAP[0]	/* MoveDirectAbsPt */\012MDAP[0]	/* MoveDirectAbsPt */\012IUP[1]	/* InterpolateUntPts */\012IUP[0]	/* InterpolateUntPts */\012SVTCA[1]	/* SetFreedomAndProjectionVectorToAxis */\012MD[0]	/* MeasureDistance */\012ROUND[00]	/* Round */\012PUSHW[ ]	/* 2 values pushed */\01214 46 \012MD[0]	/* MeasureDistance */\012ROUND[00]	/* Round */\012SUB[ ]	/* Subtract */\012PUSHB[ ]	/* 1 value pushed */\01264 \012GT[ ]	/* GreaterThan */\012IF[ ]	/* If */\012SHPIX[ ]	/* ShiftZoneByPixel */\012SRP1[ ]	/* SetRefPoint1 */\012SHZ[1]	/* ShiftZoneByLastPoint */\012PUSHW[ ]	/* 2 values pushed */\01246 -64 \012SHPIX[ ]	/* ShiftZoneByPixel */\012EIF[ ]	/* EndIf */";
};
width = 474;
}
);
note = N;
unicode = 004E;
},
{
glyphname = O;
lastChange = "2019-11-30 15:48:57 +0000";
layers = (
{
anchors = (
{
name = bottom;
position = "{214, 0}";
},
{
name = center;
position = "{257, 271}";
},
{
name = ogonek;
position = "{214, 0}";
},
{
name = top;
position = "{274, 571}";
},
{
name = topleft;
position = "{20, 571}";
},
{
name = topright;
position = "{494, 571}";
}
);
layerId = "F775FF55-200A-4C1E-99C8-011CF6498227";
paths = (
{
closed = 1;
nodes = (
"236 0 OFFCURVE",
"260 4.667 OFFCURVE",
"286 14 CURVE SMOOTH",
"348.667 36.667 OFFCURVE",
"398 78.333 OFFCURVE",
"434 139 CURVE SMOOTH",
"467.333 195 OFFCURVE",
"484 257.667 OFFCURVE",
"484 327 CURVE",
"484 327 LINE",
"484 391.667 OFFCURVE",
"465 447.333 OFFCURVE",
"427 494 CURVE SMOOTH",
"387 545.333 OFFCURVE",
"336 571 OFFCURVE",
"274 571 CURVE SMOOTH",
"226.667 571 OFFCURVE",
"181.333 548.667 OFFCURVE",
"138 504 CURVE SMOOTH",
"101.333 465.333 OFFCURVE",
"73.667 420.667 OFFCURVE",
"55 370 CURVE SMOOTH",
"38.333 324 OFFCURVE",
"30 272.667 OFFCURVE",
"30 216 CURVE SMOOTH",
"30 162.667 OFFCURVE",
"42 118.333 OFFCURVE",
"66 83 CURVE SMOOTH",
"99.333 33.667 OFFCURVE",
"155.333 0 OFFCURVE",
"214 0 CURVE",
"214 0 LINE"
);
},
{
closed = 1;
nodes = (
"171 75 OFFCURVE",
"141 91.333 OFFCURVE",
"121 124 CURVE SMOOTH",
"105 150.667 OFFCURVE",
"97 185.667 OFFCURVE",
"97 229 CURVE SMOOTH",
"97 287.667 OFFCURVE",
"112.667 344.333 OFFCURVE",
"144 399 CURVE SMOOTH",
"180.667 463 OFFCURVE",
"226.333 495 OFFCURVE",
"281 495 CURVE SMOOTH",
"321.667 495 OFFCURVE",
"354.333 477 OFFCURVE",
"379 441 CURVE SMOOTH",
"400.333 409.667 OFFCURVE",
"411 372.667 OFFCURVE",
"411 330 CURVE",
"411 330 LINE",
"411 278.667 OFFCURVE",
"402.667 234 OFFCURVE",
"386 196 CURVE SMOOTH",
"370 162 OFFCURVE",
"346.333 133.667 OFFCURVE",
"315 111 CURVE SMOOTH",
"282.333 87 OFFCURVE",
"247.667 75 OFFCURVE",
"211 75 CURVE",
"211 75 LINE"
);
}
);
userData = {
assembly = "NPUSHB[ ]	/* 25 values pushed */\0121 39 39 64 40 0 29 5 11 21 5 0 33 6 6 25 6 17 17 3 6 1 1 11 70 \012SROUND[ ]	/* SuperRound */\012MDAP[1]	/* MoveDirectAbsPt */\012SHZ[1]	/* ShiftZoneByLastPoint */\012RTG[ ]	/* RoundToGrid */\012SVTCA[0]	/* SetFreedomAndProjectionVectorToAxis */\012MIAP[1]	/* MoveIndirectAbsPt */\012MIAP[1]	/* MoveIndirectAbsPt */\012SRP0[ ]	/* SetRefPoint0 */\012MIRP[11101]	/* MoveIndirectRelPt */\012SRP0[ ]	/* SetRefPoint0 */\012MIRP[11101]	/* MoveIndirectRelPt */\012SVTCA[1]	/* SetFreedomAndProjectionVectorToAxis */\012MDAP[1]	/* MoveDirectAbsPt */\012MIRP[11101]	/* MoveIndirectRelPt */\012MDAP[1]	/* MoveDirectAbsPt */\012MIRP[11101]	/* MoveIndirectRelPt */\012SVTCA[0]	/* SetFreedomAndProjectionVectorToAxis */\012IUP[1]	/* InterpolateUntPts */\012IUP[0]	/* InterpolateUntPts */\012SVTCA[1]	/* SetFreedomAndProjectionVectorToAxis */\012MD[0]	/* MeasureDistance */\012ROUND[00]	/* Round */\012PUSHW[ ]	/* 2 values pushed */\01211 39 \012MD[0]	/* MeasureDistance */\012ROUND[00]	/* Round */\012SUB[ ]	/* Subtract */\012PUSHB[ ]	/* 1 value pushed */\01264 \012GT[ ]	/* GreaterThan */\012IF[ ]	/* If */\012SHPIX[ ]	/* ShiftZoneByPixel */\012SRP1[ ]	/* SetRefPoint1 */\012SHZ[1]	/* ShiftZoneByLastPoint */\012PUSHW[ ]	/* 2 values pushed */\01239 -64 \012SHPIX[ ]	/* ShiftZoneByPixel */\012EIF[ ]	/* EndIf */";
};
width = 514;
}
);
note = O;
unicode = 004F;
},
{
glyphname = Ograve;
lastChange = "2019-11-30 15:48:57 +0000";
layers = (
{
layerId = "F775FF55-200A-4C1E-99C8-011CF6498227";
paths = (
{
closed = 1;
nodes = (
"236 -5 OFFCURVE",
"260 -0.333 OFFCURVE",
"286 9 CURVE SMOOTH",
"349.333 32.333 OFFCURVE",
"398.667 74 OFFCURVE",
"434 134 CURVE SMOOTH",
"467.333 189.333 OFFCURVE",
"484 252 OFFCURVE",
"484 322 CURVE",
"484 322 LINE",
"484 383.333 OFFCURVE",
"467.667 436 OFFCURVE",
"435 480 CURVE SMOOTH",
"392.333 538 OFFCURVE",
"338.667 567 OFFCURVE",
"274 567 CURVE SMOOTH",
"226.667 567 OFFCURVE",
"181.333 544.333 OFFCURVE",
"138 499 CURVE SMOOTH",
"101.333 460.333 OFFCURVE",
"73.667 415.667 OFFCURVE",
"55 365 CURVE SMOOTH",
"38.333 319 OFFCURVE",
"30 267.667 OFFCURVE",
"30 211 CURVE SMOOTH",
"30 157.667 OFFCURVE",
"42 113.333 OFFCURVE",
"66 78 CURVE SMOOTH",
"99.333 28.667 OFFCURVE",
"155.333 -5 OFFCURVE",
"214 -5 CURVE",
"214 -5 LINE"
);
},
{
closed = 1;
nodes = (
"171 70 OFFCURVE",
"141 86.333 OFFCURVE",
"121 119 CURVE SMOOTH",
"105 145.667 OFFCURVE",
"97 180.667 OFFCURVE",
"97 224 CURVE SMOOTH",
"97 282.667 OFFCURVE",
"112.667 339.667 OFFCURVE",
"144 395 CURVE SMOOTH",
"180.667 459 OFFCURVE",
"226.333 491 OFFCURVE",
"281 491 CURVE SMOOTH",
"322.333 491 OFFCURVE",
"355.333 473.333 OFFCURVE",
"380 438 CURVE SMOOTH",
"401.333 406.667 OFFCURVE",
"412 369.333 OFFCURVE",
"412 326 CURVE",
"412 326 LINE",
"412 275.333 OFFCURVE",
"403.333 230.667 OFFCURVE",
"386 192 CURVE SMOOTH",
"370 158 OFFCURVE",
"346.333 129.333 OFFCURVE",
"315 106 CURVE SMOOTH",
"281.667 82 OFFCURVE",
"247 70 OFFCURVE",
"211 70 CURVE",
"211 70 LINE"
);
},
{
closed = 1;
nodes = (
"302 589 OFFCURVE",
"307 593 OFFCURVE",
"307 601 CURVE",
"307 601 LINE",
"307 609.667 OFFCURVE",
"298.333 626.667 OFFCURVE",
"281 652 CURVE SMOOTH",
"265 676.667 OFFCURVE",
"252.667 692 OFFCURVE",
"244 698 CURVE SMOOTH",
"234 705.333 OFFCURVE",
"221 709 OFFCURVE",
"205 709 CURVE SMOOTH",
"174.333 709 OFFCURVE",
"159 701.333 OFFCURVE",
"159 686 CURVE SMOOTH",
"159 666 OFFCURVE",
"176.333 644.333 OFFCURVE",
"211 621 CURVE SMOOTH",
"244.333 599.667 OFFCURVE",
"271.333 589 OFFCURVE",
"292 589 CURVE",
"292 589 LINE"
);
}
);
userData = {
assembly = "NPUSHB[ ]	/* 26 values pushed */\0121 53 53 64 54 14 2 6 0 43 5 25 35 5 14 47 6 20 39 6 31 8 20 1 25 70 \012SROUND[ ]	/* SuperRound */\012MDAP[1]	/* MoveDirectAbsPt */\012SHZ[1]	/* ShiftZoneByLastPoint */\012RTG[ ]	/* RoundToGrid */\012SVTCA[0]	/* SetFreedomAndProjectionVectorToAxis */\012MDAP[1]	/* MoveDirectAbsPt */\012MDAP[1]	/* MoveDirectAbsPt */\012MDAP[1]	/* MoveDirectAbsPt */\012MIRP[11101]	/* MoveIndirectRelPt */\012SRP0[ ]	/* SetRefPoint0 */\012MIRP[11101]	/* MoveIndirectRelPt */\012SVTCA[1]	/* SetFreedomAndProjectionVectorToAxis */\012MDAP[1]	/* MoveDirectAbsPt */\012MIRP[11101]	/* MoveIndirectRelPt */\012MDAP[1]	/* MoveDirectAbsPt */\012MIRP[11101]	/* MoveIndirectRelPt */\012MDAP[0]	/* MoveDirectAbsPt */\012MDAP[0]	/* MoveDirectAbsPt */\012SVTCA[0]	/* SetFreedomAndProjectionVectorToAxis */\012MDAP[0]	/* MoveDirectAbsPt */\012IUP[1]	/* InterpolateUntPts */\012IUP[0]	/* InterpolateUntPts */\012SVTCA[1]	/* SetFreedomAndProjectionVectorToAxis */\012MD[0]	/* MeasureDistance */\012ROUND[00]	/* Round */\012PUSHW[ ]	/* 2 values pushed */\01225 53 \012MD[0]	/* MeasureDistance */\012ROUND[00]	/* Round */\012SUB[ ]	/* Subtract */\012PUSHB[ ]	/* 1 value pushed */\01264 \012GT[ ]	/* GreaterThan */\012IF[ ]	/* If */\012SHPIX[ ]	/* ShiftZoneByPixel */\012SRP1[ ]	/* SetRefPoint1 */\012SHZ[1]	/* ShiftZoneByLastPoint */\012PUSHW[ ]	/* 2 values pushed */\01253 -64 \012SHPIX[ ]	/* ShiftZoneByPixel */\012EIF[ ]	/* EndIf */";
};
width = 514;
}
);
note = Ograve;
unicode = 00D2;
},
{
glyphname = Oslash;
lastChange = "2019-11-30 15:48:57 +0000";
layers = (
{
layerId = "F775FF55-200A-4C1E-99C8-011CF6498227";
paths = (
{
closed = 1;
nodes = (
"68 0 OFFCURVE",
"88.333 18 OFFCURVE",
"113 54 CURVE",
"143.667 23.333 OFFCURVE",
"179.667 8 OFFCURVE",
"221 8 CURVE SMOOTH",
"244.333 8 OFFCURVE",
"267 12.667 OFFCURVE",
"289 22 CURVE SMOOTH",
"350.333 48.667 OFFCURVE",
"397 90.333 OFFCURVE",
"429 147 CURVE SMOOTH",
"459 199.667 OFFCURVE",
"474 260.667 OFFCURVE",
"474 330 CURVE SMOOTH",
"474 386 OFFCURVE",
"461.667 433 OFFCURVE",
"437 471 CURVE",
"463 498.333 OFFCURVE",
"476 521.667 OFFCURVE",
"476 541 CURVE",
"476 541 LINE",
"476 555.667 OFFCURVE",
"464.333 570 OFFCURVE",
"451 570 CURVE SMOOTH",
"434.333 570 OFFCURVE",
"413.667 556.667 OFFCURVE",
"389 530 CURVE",
"357 557.333 OFFCURVE",
"319.667 571 OFFCURVE",
"277 571 CURVE SMOOTH",
"232.333 571 OFFCURVE",
"189.667 548.667 OFFCURVE",
"149 504 CURVE SMOOTH",
"116.333 466.667 OFFCURVE",
"91.333 423 OFFCURVE",
"74 373 CURVE SMOOTH",
"58 328.333 OFFCURVE",
"50 277.667 OFFCURVE",
"50 221 CURVE SMOOTH",
"50 176.333 OFFCURVE",
"57 139.667 OFFCURVE",
"71 111 CURVE",
"62.333 97.667 OFFCURVE",
"53.667 84.333 OFFCURVE",
"45 71 CURVE SMOOTH",
"35 54.333 OFFCURVE",
"30 40 OFFCURVE",
"30 28 CURVE SMOOTH",
"30 13.333 OFFCURVE",
"38.667 0 OFFCURVE",
"52 0 CURVE",
"52 0 LINE"
);
},
{
closed = 1;
nodes = (
"190.333 81 OFFCURVE",
"167.667 90 OFFCURVE",
"151 108 CURVE",
"391 419 LINE",
"401 395 OFFCURVE",
"406 366.667 OFFCURVE",
"406 334 CURVE",
"406 334 LINE",
"406 284 OFFCURVE",
"398 240 OFFCURVE",
"382 202 CURVE SMOOTH",
"368 168.667 OFFCURVE",
"346.333 140.667 OFFCURVE",
"317 118 CURVE SMOOTH",
"285.667 93.333 OFFCURVE",
"253 81 OFFCURVE",
"219 81 CURVE",
"219 81 LINE"
);
},
{
closed = 1;
nodes = (
"114.333 199 OFFCURVE",
"113 216 OFFCURVE",
"113 234 CURVE SMOOTH",
"113 290.667 OFFCURVE",
"127.333 346 OFFCURVE",
"156 400 CURVE SMOOTH",
"190 464 OFFCURVE",
"232.667 496 OFFCURVE",
"284 496 CURVE SMOOTH",
"304 496 OFFCURVE",
"323.333 490 OFFCURVE",
"342 478 CURVE",
"342 478 LINE",
"117 183 LINE",
"117 183 LINE"
);
}
);
userData = {
assembly = "NPUSHB[ ]	/* 43 values pushed */\0121 56 56 64 57 0 47 44 31 12 48 36 21 17 2 0 47 48 8 36 44 44 36 42 5 23 45 5 4 50 6 10 38 6 29 33 29 3 14 1 1 17 70 \012SROUND[ ]	/* SuperRound */\012MDAP[1]	/* MoveDirectAbsPt */\012SHZ[1]	/* ShiftZoneByLastPoint */\012RTG[ ]	/* RoundToGrid */\012SVTCA[0]	/* SetFreedomAndProjectionVectorToAxis */\012MIAP[1]	/* MoveIndirectAbsPt */\012MIAP[1]	/* MoveIndirectAbsPt */\012ALIGNRP[ ]	/* AlignRelativePt */\012SRP0[ ]	/* SetRefPoint0 */\012MIRP[11101]	/* MoveIndirectRelPt */\012MDAP[1]	/* MoveDirectAbsPt */\012MIRP[11101]	/* MoveIndirectRelPt */\012SVTCA[1]	/* SetFreedomAndProjectionVectorToAxis */\012MDAP[1]	/* MoveDirectAbsPt */\012MIRP[11101]	/* MoveIndirectRelPt */\012MDAP[1]	/* MoveDirectAbsPt */\012MIRP[11101]	/* MoveIndirectRelPt */\012SDPVTL[1]	/* SetDualPVectorToLine */\012MDAP[0]	/* MoveDirectAbsPt */\012SFVTPV[ ]	/* SetFVectorToPVector */\012MDRP[00100]	/* MoveDirectRelPt */\012SFVTPV[ ]	/* SetFVectorToPVector */\012MIRP[11100]	/* MoveIndirectRelPt */\012SFVTPV[ ]	/* SetFVectorToPVector */\012MDRP[00100]	/* MoveDirectRelPt */\012SVTCA[1]	/* SetFreedomAndProjectionVectorToAxis */\012MDAP[0]	/* MoveDirectAbsPt */\012MDAP[0]	/* MoveDirectAbsPt */\012MDAP[0]	/* MoveDirectAbsPt */\012MDAP[0]	/* MoveDirectAbsPt */\012MDAP[0]	/* MoveDirectAbsPt */\012MDAP[0]	/* MoveDirectAbsPt */\012SVTCA[0]	/* SetFreedomAndProjectionVectorToAxis */\012MDAP[0]	/* MoveDirectAbsPt */\012MDAP[0]	/* MoveDirectAbsPt */\012MDAP[0]	/* MoveDirectAbsPt */\012MDAP[0]	/* MoveDirectAbsPt */\012IUP[1]	/* InterpolateUntPts */\012IUP[0]	/* InterpolateUntPts */\012SVTCA[1]	/* SetFreedomAndProjectionVectorToAxis */\012MD[0]	/* MeasureDistance */\012ROUND[00]	/* Round */\012PUSHW[ ]	/* 2 values pushed */\01217 56 \012MD[0]	/* MeasureDistance */\012ROUND[00]	/* Round */\012SUB[ ]	/* Subtract */\012PUSHB[ ]	/* 1 value pushed */\01264 \012GT[ ]	/* GreaterThan */\012IF[ ]	/* If */\012SHPIX[ ]	/* ShiftZoneByPixel */\012SRP1[ ]	/* SetRefPoint1 */\012SHZ[1]	/* ShiftZoneByLastPoint */\012PUSHW[ ]	/* 2 values pushed */\01256 -64 \012SHPIX[ ]	/* ShiftZoneByPixel */\012EIF[ ]	/* EndIf */";
};
width = 506;
}
);
note = Oslash;
unicode = 00D8;
},
{
glyphname = Otilde;
lastChange = "2019-11-30 15:48:57 +0000";
layers = (
{
layerId = "F775FF55-200A-4C1E-99C8-011CF6498227";
paths = (
{
closed = 1;
nodes = (
"235.667 -9 OFFCURVE",
"260 -4.333 OFFCURVE",
"286 5 CURVE SMOOTH",
"349.333 28.333 OFFCURVE",
"398.667 70 OFFCURVE",
"434 130 CURVE SMOOTH",
"467.333 185.333 OFFCURVE",
"484 248 OFFCURVE",
"484 318 CURVE",
"484 318 LINE",
"484 379.333 OFFCURVE",
"467.667 431.667 OFFCURVE",
"435 475 CURVE SMOOTH",
"391.667 533.667 OFFCURVE",
"338 563 OFFCURVE",
"274 563 CURVE SMOOTH",
"226.667 563 OFFCURVE",
"181.333 540.333 OFFCURVE",
"138 495 CURVE SMOOTH",
"101.333 456.333 OFFCURVE",
"73.667 411.333 OFFCURVE",
"55 360 CURVE SMOOTH",
"38.333 314.667 OFFCURVE",
"30 263.333 OFFCURVE",
"30 206 CURVE SMOOTH",
"30 153.333 OFFCURVE",
"42 109 OFFCURVE",
"66 73 CURVE SMOOTH",
"99.333 23.667 OFFCURVE",
"154.333 -9 OFFCURVE",
"213 -9 CURVE",
"213 -9 LINE"
);
},
{
closed = 1;
nodes = (
"171 66 OFFCURVE",
"141 82.333 OFFCURVE",
"121 115 CURVE SMOOTH",
"105 141.667 OFFCURVE",
"97 176.667 OFFCURVE",
"97 220 CURVE SMOOTH",
"97 278.667 OFFCURVE",
"112.667 335.333 OFFCURVE",
"144 390 CURVE SMOOTH",
"180.667 454 OFFCURVE",
"226.333 486 OFFCURVE",
"281 486 CURVE SMOOTH",
"322.333 486 OFFCURVE",
"355.333 468.333 OFFCURVE",
"380 433 CURVE SMOOTH",
"401.333 401.667 OFFCURVE",
"412 364.667 OFFCURVE",
"412 322 CURVE",
"412 322 LINE",
"412 270.667 OFFCURVE",
"403.333 225.667 OFFCURVE",
"386 187 CURVE SMOOTH",
"370 153 OFFCURVE",
"346.333 124.667 OFFCURVE",
"315 102 CURVE SMOOTH",
"281.667 78 OFFCURVE",
"247 66 OFFCURVE",
"211 66 CURVE",
"211 66 LINE"
);
},
{
closed = 1;
nodes = (
"179 595 OFFCURVE",
"191.667 602.333 OFFCURVE",
"207 617 CURVE SMOOTH",
"222.333 631.667 OFFCURVE",
"236 639 OFFCURVE",
"248 639 CURVE SMOOTH",
"257.333 639 OFFCURVE",
"269.333 633.5 OFFCURVE",
"284 622.5 CURVE SMOOTH",
"298.667 611.5 OFFCURVE",
"310.667 606 OFFCURVE",
"320 606 CURVE SMOOTH",
"344 606 OFFCURVE",
"406 665 OFFCURVE",
"406 689 CURVE",
"406 689 LINE",
"406 699 OFFCURVE",
"399.333 704 OFFCURVE",
"386 704 CURVE SMOOTH",
"374.667 704 OFFCURVE",
"361.333 699.167 OFFCURVE",
"346 689.5 CURVE SMOOTH",
"330.667 679.833 OFFCURVE",
"321.667 675 OFFCURVE",
"319 675 CURVE SMOOTH",
"312.333 675 OFFCURVE",
"301 680 OFFCURVE",
"285 690 CURVE SMOOTH",
"269 700 OFFCURVE",
"256 705 OFFCURVE",
"246 705 CURVE SMOOTH",
"210 705 OFFCURVE",
"155 649.333 OFFCURVE",
"155 612 CURVE SMOOTH",
"155 600.667 OFFCURVE",
"159.667 595 OFFCURVE",
"169 595 CURVE",
"169 595 LINE"
);
}
);
userData = {
assembly = "NPUSHB[ ]	/* 33 values pushed */\0121 61 61 64 62 22 9 11 0 51 5 33 43 5 22 3 6 17 6 6 14 55 6 28 47 6 39 20 14 28 1 33 70 \012SROUND[ ]	/* SuperRound */\012MDAP[1]	/* MoveDirectAbsPt */\012SHZ[1]	/* ShiftZoneByLastPoint */\012RTG[ ]	/* RoundToGrid */\012SVTCA[0]	/* SetFreedomAndProjectionVectorToAxis */\012MDAP[1]	/* MoveDirectAbsPt */\012MDAP[1]	/* MoveDirectAbsPt */\012ALIGNRP[ ]	/* AlignRelativePt */\012MDAP[1]	/* MoveDirectAbsPt */\012MIRP[11101]	/* MoveIndirectRelPt */\012SRP0[ ]	/* SetRefPoint0 */\012MIRP[11101]	/* MoveIndirectRelPt */\012SRP0[ ]	/* SetRefPoint0 */\012MIRP[11101]	/* MoveIndirectRelPt */\012MDAP[1]	/* MoveDirectAbsPt */\012MIRP[11101]	/* MoveIndirectRelPt */\012SVTCA[1]	/* SetFreedomAndProjectionVectorToAxis */\012MDAP[1]	/* MoveDirectAbsPt */\012MIRP[11101]	/* MoveIndirectRelPt */\012MDAP[1]	/* MoveDirectAbsPt */\012MIRP[11101]	/* MoveIndirectRelPt */\012MDAP[0]	/* MoveDirectAbsPt */\012MDAP[0]	/* MoveDirectAbsPt */\012SVTCA[0]	/* SetFreedomAndProjectionVectorToAxis */\012MDAP[0]	/* MoveDirectAbsPt */\012IUP[1]	/* InterpolateUntPts */\012IUP[0]	/* InterpolateUntPts */\012SVTCA[1]	/* SetFreedomAndProjectionVectorToAxis */\012MD[0]	/* MeasureDistance */\012ROUND[00]	/* Round */\012PUSHW[ ]	/* 2 values pushed */\01233 61 \012MD[0]	/* MeasureDistance */\012ROUND[00]	/* Round */\012SUB[ ]	/* Subtract */\012PUSHB[ ]	/* 1 value pushed */\01264 \012GT[ ]	/* GreaterThan */\012IF[ ]	/* If */\012SHPIX[ ]	/* ShiftZoneByPixel */\012SRP1[ ]	/* SetRefPoint1 */\012SHZ[1]	/* ShiftZoneByLastPoint */\012PUSHW[ ]	/* 2 values pushed */\01261 -64 \012SHPIX[ ]	/* ShiftZoneByPixel */\012EIF[ ]	/* EndIf */";
};
width = 514;
}
);
note = Otilde;
unicode = 00D5;
},
{
glyphname = OE;
lastChange = "2019-11-30 15:48:57 +0000";
layers = (
{
layerId = "F775FF55-200A-4C1E-99C8-011CF6498227";
paths = (
{
closed = 1;
nodes = (
"508 -1 OFFCURVE",
"526.5 0.5 OFFCURVE",
"551.5 3.5 CURVE SMOOTH",
"576.5 6.5 OFFCURVE",
"595.333 8 OFFCURVE",
"608 8 CURVE SMOOTH",
"650.667 8 OFFCURVE",
"690.333 6.333 OFFCURVE",
"727 3 CURVE SMOOTH",
"758.333 1 OFFCURVE",
"776.333 0 OFFCURVE",
"781 0 CURVE SMOOTH",
"795.667 0 OFFCURVE",
"808 17 OFFCURVE",
"808 33 CURVE",
"808 33 LINE",
"808 53 OFFCURVE",
"789.333 65.667 OFFCURVE",
"752 71 CURVE SMOOTH",
"694.667 79 OFFCURVE",
"640.333 83 OFFCURVE",
"589 83 CURVE SMOOTH",
"565.667 83 OFFCURVE",
"539.667 81.333 OFFCURVE",
"511 78 CURVE",
"517 239 LINE",
"581.667 243 OFFCURVE",
"641.667 245 OFFCURVE",
"697 245 CURVE SMOOTH",
"733 245 OFFCURVE",
"747 244.667 OFFCURVE",
"739 244 CURVE SMOOTH",
"761 245.333 OFFCURVE",
"772 250.667 OFFCURVE",
"772 260 CURVE SMOOTH",
"772 266.667 OFFCURVE",
"771 272.333 OFFCURVE",
"769 277 CURVE SMOOTH",
"760.333 297.667 OFFCURVE",
"722.667 310 OFFCURVE",
"656 314 CURVE SMOOTH",
"611.333 316 OFFCURVE",
"566.333 317.667 OFFCURVE",
"521 319 CURVE",
"523 391.667 OFFCURVE",
"524.667 446.333 OFFCURVE",
"526 483 CURVE",
"566 484.333 OFFCURVE",
"620.667 485 OFFCURVE",
"690 485 CURVE SMOOTH",
"727.333 485 OFFCURVE",
"750 485.667 OFFCURVE",
"758 487 CURVE SMOOTH",
"786.667 492.333 OFFCURVE",
"801 506 OFFCURVE",
"801 528 CURVE SMOOTH",
"801 548.667 OFFCURVE",
"787 559 OFFCURVE",
"759 559 CURVE SMOOTH",
"727 559 OFFCURVE",
"679 559.833 OFFCURVE",
"615 561.5 CURVE SMOOTH",
"551 563.167 OFFCURVE",
"503 564 OFFCURVE",
"471 564 CURVE SMOOTH",
"439.667 564 OFFCURVE",
"418.333 555.667 OFFCURVE",
"407 539 CURVE",
"373 560.333 OFFCURVE",
"334.667 571 OFFCURVE",
"292 571 CURVE SMOOTH",
"241.333 571 OFFCURVE",
"193.667 549.333 OFFCURVE",
"149 506 CURVE SMOOTH",
"110.333 470 OFFCURVE",
"79.667 425.333 OFFCURVE",
"57 372 CURVE SMOOTH",
"39 329.333 OFFCURVE",
"30 278.667 OFFCURVE",
"30 220 CURVE SMOOTH",
"30 166.667 OFFCURVE",
"43 122.667 OFFCURVE",
"69 88 CURVE SMOOTH",
"105 38.667 OFFCURVE",
"165.667 7 OFFCURVE",
"227 7 CURVE SMOOTH",
"303.667 7 OFFCURVE",
"373 40 OFFCURVE",
"435 106 CURVE",
"433.667 70.667 OFFCURVE",
"433 49 OFFCURVE",
"433 41 CURVE SMOOTH",
"433 23 OFFCURVE",
"439.667 11 OFFCURVE",
"453 5 CURVE SMOOTH",
"461 1 OFFCURVE",
"475.333 -1 OFFCURVE",
"496 -1 CURVE",
"496 -1 LINE"
);
},
{
closed = 1;
nodes = (
"182 80 OFFCURVE",
"150.667 95.667 OFFCURVE",
"130 127 CURVE SMOOTH",
"111.333 153 OFFCURVE",
"102 188 OFFCURVE",
"102 232 CURVE SMOOTH",
"102 292.667 OFFCURVE",
"119.667 350 OFFCURVE",
"155 404 CURVE SMOOTH",
"195 465.333 OFFCURVE",
"243.667 496 OFFCURVE",
"301 496 CURVE SMOOTH",
"344.333 496 OFFCURVE",
"379 479.333 OFFCURVE",
"405 446 CURVE SMOOTH",
"429 415.333 OFFCURVE",
"441 377.667 OFFCURVE",
"441 333 CURVE",
"441 333 LINE",
"441 283 OFFCURVE",
"432 239 OFFCURVE",
"414 201 CURVE SMOOTH",
"379.333 131.667 OFFCURVE",
"301.333 80 OFFCURVE",
"224 80 CURVE",
"224 80 LINE"
);
}
);
userData = {
assembly = "NPUSHB[ ]	/* 49 values pushed */\0121 82 82 64 83 0 59 56 54 33 31 16 52 38 16 0 73 5 23 14 4 59 65 4 46 5 6 61 61 6 7 77 6 7 18 42 6 36 69 6 29 29 3 10 3 1 1 23 70 \012SROUND[ ]	/* SuperRound */\012MDAP[1]	/* MoveDirectAbsPt */\012SHZ[1]	/* ShiftZoneByLastPoint */\012RTG[ ]	/* RoundToGrid */\012SVTCA[0]	/* SetFreedomAndProjectionVectorToAxis */\012MIAP[1]	/* MoveIndirectAbsPt */\012ALIGNRP[ ]	/* AlignRelativePt */\012MIAP[1]	/* MoveIndirectAbsPt */\012SRP0[ ]	/* SetRefPoint0 */\012MIRP[11101]	/* MoveIndirectRelPt */\012MDAP[1]	/* MoveDirectAbsPt */\012MIRP[11101]	/* MoveIndirectRelPt */\012MDAP[1]	/* MoveDirectAbsPt */\012ALIGNRP[ ]	/* AlignRelativePt */\012MIRP[11101]	/* MoveIndirectRelPt */\012SRP0[ ]	/* SetRefPoint0 */\012MIRP[11101]	/* MoveIndirectRelPt */\012SRP0[ ]	/* SetRefPoint0 */\012MIRP[11101]	/* MoveIndirectRelPt */\012SVTCA[1]	/* SetFreedomAndProjectionVectorToAxis */\012MDAP[1]	/* MoveDirectAbsPt */\012MIRP[11101]	/* MoveIndirectRelPt */\012MDAP[1]	/* MoveDirectAbsPt */\012MIRP[11101]	/* MoveIndirectRelPt */\012MDAP[1]	/* MoveDirectAbsPt */\012MIRP[11101]	/* MoveIndirectRelPt */\012MDAP[0]	/* MoveDirectAbsPt */\012MDAP[0]	/* MoveDirectAbsPt */\012MDAP[0]	/* MoveDirectAbsPt */\012MDAP[0]	/* MoveDirectAbsPt */\012SVTCA[0]	/* SetFreedomAndProjectionVectorToAxis */\012MDAP[0]	/* MoveDirectAbsPt */\012MDAP[0]	/* MoveDirectAbsPt */\012MDAP[0]	/* MoveDirectAbsPt */\012MDAP[0]	/* MoveDirectAbsPt */\012MDAP[0]	/* MoveDirectAbsPt */\012MDAP[0]	/* MoveDirectAbsPt */\012IUP[1]	/* InterpolateUntPts */\012IUP[0]	/* InterpolateUntPts */\012SVTCA[1]	/* SetFreedomAndProjectionVectorToAxis */\012MD[0]	/* MeasureDistance */\012ROUND[00]	/* Round */\012PUSHW[ ]	/* 2 values pushed */\01223 82 \012MD[0]	/* MeasureDistance */\012ROUND[00]	/* Round */\012SUB[ ]	/* Subtract */\012PUSHB[ ]	/* 1 value pushed */\01264 \012GT[ ]	/* GreaterThan */\012IF[ ]	/* If */\012SHPIX[ ]	/* ShiftZoneByPixel */\012SRP1[ ]	/* SetRefPoint1 */\012SHZ[1]	/* ShiftZoneByLastPoint */\012PUSHW[ ]	/* 2 values pushed */\01282 -64 \012SHPIX[ ]	/* ShiftZoneByPixel */\012EIF[ ]	/* EndIf */";
};
width = 838;
}
);
note = OE;
unicode = 0152;
},
{
glyphname = P;
lastChange = "2019-11-30 15:48:57 +0000";
layers = (
{
layerId = "F775FF55-200A-4C1E-99C8-011CF6498227";
paths = (
{
closed = 1;
nodes = (
"129.667 0 OFFCURVE",
"144 38.333 OFFCURVE",
"144 115 CURVE SMOOTH",
"144 164.333 OFFCURVE",
"144.333 194.333 OFFCURVE",
"145 205 CURVE",
"214.333 205.667 OFFCURVE",
"276 222.333 OFFCURVE",
"330 255 CURVE SMOOTH",
"393.333 293.667 OFFCURVE",
"425 345.333 OFFCURVE",
"425 410 CURVE",
"425 410 LINE",
"425 517.333 OFFCURVE",
"353 571 OFFCURVE",
"209 571 CURVE SMOOTH",
"89.667 571 OFFCURVE",
"30 551 OFFCURVE",
"30 511 CURVE SMOOTH",
"30 492.333 OFFCURVE",
"45.333 476 OFFCURVE",
"64 476 CURVE SMOOTH",
"68 476 OFFCURVE",
"72 476.333 OFFCURVE",
"76 477 CURVE",
"76 419 LINE SMOOTH",
"76 379 OFFCURVE",
"74.833 318.833 OFFCURVE",
"72.5 238.5 CURVE SMOOTH",
"70.167 158.167 OFFCURVE",
"69 98 OFFCURVE",
"69 58 CURVE SMOOTH",
"69 19.333 OFFCURVE",
"79.667 0 OFFCURVE",
"101 0 CURVE",
"101 0 LINE"
);
},
{
closed = 1;
nodes = (
"159.333 282 OFFCURVE",
"152.667 282.333 OFFCURVE",
"146 283 CURVE",
"147.333 349 OFFCURVE",
"148.333 418.333 OFFCURVE",
"149 491 CURVE",
"169 493 OFFCURVE",
"188 494 OFFCURVE",
"206 494 CURVE SMOOTH",
"303.333 494 OFFCURVE",
"352 467.333 OFFCURVE",
"352 414 CURVE",
"352 414 LINE",
"352 376 OFFCURVE",
"329.667 343.667 OFFCURVE",
"285 317 CURVE SMOOTH",
"245.667 293.667 OFFCURVE",
"206 282 OFFCURVE",
"166 282 CURVE",
"166 282 LINE"
);
}
);
userData = {
assembly = "NPUSHB[ ]	/* 30 values pushed */\0121 35 35 64 36 0 31 16 14 19 29 5 14 13 23 5 0 6 4 10 25 6 21 21 3 8 1 1 19 70 \012SROUND[ ]	/* SuperRound */\012MDAP[1]	/* MoveDirectAbsPt */\012SHZ[1]	/* ShiftZoneByLastPoint */\012RTG[ ]	/* RoundToGrid */\012SVTCA[0]	/* SetFreedomAndProjectionVectorToAxis */\012MIAP[1]	/* MoveIndirectAbsPt */\012MIAP[1]	/* MoveIndirectAbsPt */\012SRP0[ ]	/* SetRefPoint0 */\012MIRP[11101]	/* MoveIndirectRelPt */\012SVTCA[1]	/* SetFreedomAndProjectionVectorToAxis */\012MDAP[1]	/* MoveDirectAbsPt */\012MIRP[11101]	/* MoveIndirectRelPt */\012MDAP[1]	/* MoveDirectAbsPt */\012MIRP[11101]	/* MoveIndirectRelPt */\012MDAP[1]	/* MoveDirectAbsPt */\012ALIGNRP[ ]	/* AlignRelativePt */\012MIRP[11101]	/* MoveIndirectRelPt */\012MDAP[0]	/* MoveDirectAbsPt */\012SVTCA[0]	/* SetFreedomAndProjectionVectorToAxis */\012MDAP[0]	/* MoveDirectAbsPt */\012MDAP[0]	/* MoveDirectAbsPt */\012MDAP[0]	/* MoveDirectAbsPt */\012IUP[1]	/* InterpolateUntPts */\012IUP[0]	/* InterpolateUntPts */\012SVTCA[1]	/* SetFreedomAndProjectionVectorToAxis */\012MD[0]	/* MeasureDistance */\012ROUND[00]	/* Round */\012PUSHW[ ]	/* 2 values pushed */\01219 35 \012MD[0]	/* MeasureDistance */\012ROUND[00]	/* Round */\012SUB[ ]	/* Subtract */\012PUSHB[ ]	/* 1 value pushed */\01264 \012GT[ ]	/* GreaterThan */\012IF[ ]	/* If */\012SHPIX[ ]	/* ShiftZoneByPixel */\012SRP1[ ]	/* SetRefPoint1 */\012SHZ[1]	/* ShiftZoneByLastPoint */\012PUSHW[ ]	/* 2 values pushed */\01235 -64 \012SHPIX[ ]	/* ShiftZoneByPixel */\012EIF[ ]	/* EndIf */";
};
width = 455;
}
);
note = P;
unicode = 0050;
},
{
glyphname = Thorn;
lastChange = "2019-11-30 15:48:57 +0000";
layers = (
{
layerId = "F775FF55-200A-4C1E-99C8-011CF6498227";
paths = (
{
closed = 1;
nodes = (
"86 -200 OFFCURVE",
"95 -188.667 OFFCURVE",
"95 -166 CURVE SMOOTH",
"95 -147.333 OFFCURVE",
"94.833 -118.833 OFFCURVE",
"94.5 -80.5 CURVE SMOOTH",
"94.167 -42.167 OFFCURVE",
"94 -13.667 OFFCURVE",
"94 5 CURVE",
"117.333 -9 OFFCURVE",
"140.667 -22.667 OFFCURVE",
"164 -36 CURVE SMOOTH",
"191.333 -50.667 OFFCURVE",
"217 -58 OFFCURVE",
"241 -58 CURVE SMOOTH",
"284.333 -58 OFFCURVE",
"318.333 -42 OFFCURVE",
"343 -10 CURVE SMOOTH",
"365 19.333 OFFCURVE",
"376 56.333 OFFCURVE",
"376 101 CURVE",
"376 101 LINE",
"376 119 OFFCURVE",
"374.333 138 OFFCURVE",
"371 158 CURVE SMOOTH",
"363 207.333 OFFCURVE",
"343.333 253.333 OFFCURVE",
"312 296 CURVE SMOOTH",
"274.667 346 OFFCURVE",
"233.667 371 OFFCURVE",
"189 371 CURVE SMOOTH",
"159.667 371 OFFCURVE",
"133 360.333 OFFCURVE",
"109 339 CURVE",
"109 346.333 OFFCURVE",
"109 369.667 OFFCURVE",
"109 409 CURVE SMOOTH",
"109 437 OFFCURVE",
"107.333 460.333 OFFCURVE",
"104 479 CURVE SMOOTH",
"100.667 502.333 OFFCURVE",
"90 514 OFFCURVE",
"72 514 CURVE SMOOTH",
"50.667 514 OFFCURVE",
"31 495.333 OFFCURVE",
"31 474 CURVE SMOOTH",
"30 -166 LINE SMOOTH",
"30 -184.667 OFFCURVE",
"48 -200 OFFCURVE",
"68 -200 CURVE",
"68 -200 LINE"
);
},
{
closed = 1;
nodes = (
"227 26 OFFCURVE",
"209.667 30.667 OFFCURVE",
"191 40 CURVE SMOOTH",
"134.333 69.333 OFFCURVE",
"106 126 OFFCURVE",
"106 210 CURVE SMOOTH",
"106 224 OFFCURVE",
"106.667 237.667 OFFCURVE",
"108 251 CURVE",
"124 281.667 OFFCURVE",
"157.333 304 OFFCURVE",
"192 304 CURVE SMOOTH",
"223.333 304 OFFCURVE",
"251 279.667 OFFCURVE",
"275 231 CURVE SMOOTH",
"296.333 189.667 OFFCURVE",
"307 151.667 OFFCURVE",
"307 117 CURVE",
"307 117 LINE",
"307 92.333 OFFCURVE",
"302.667 72 OFFCURVE",
"294 56 CURVE SMOOTH",
"282 36 OFFCURVE",
"265 26 OFFCURVE",
"243 26 CURVE",
"243 26 LINE"
);
}
);
userData = {
assembly = "NPUSHB[ ]	/* 39 values pushed */\0121 51 51 64 52 0 26 8 8 11 5 16 34 5 0 26 4 16 43 4 17 16 38 6 28 47 6 4 28 2 20 3 13 0 4 1 1 16 70 \012SROUND[ ]	/* SuperRound */\012MDAP[1]	/* MoveDirectAbsPt */\012SHZ[1]	/* ShiftZoneByLastPoint */\012RTG[ ]	/* RoundToGrid */\012SVTCA[0]	/* SetFreedomAndProjectionVectorToAxis */\012MIAP[1]	/* MoveIndirectAbsPt */\012MIAP[1]	/* MoveIndirectAbsPt */\012MIAP[1]	/* MoveIndirectAbsPt */\012MIAP[1]	/* MoveIndirectAbsPt */\012SRP0[ ]	/* SetRefPoint0 */\012MIRP[11101]	/* MoveIndirectRelPt */\012SRP0[ ]	/* SetRefPoint0 */\012MIRP[11101]	/* MoveIndirectRelPt */\012SVTCA[1]	/* SetFreedomAndProjectionVectorToAxis */\012MDAP[1]	/* MoveDirectAbsPt */\012ALIGNRP[ ]	/* AlignRelativePt */\012MIRP[11101]	/* MoveIndirectRelPt */\012SRP0[ ]	/* SetRefPoint0 */\012MIRP[11101]	/* MoveIndirectRelPt */\012MDAP[1]	/* MoveDirectAbsPt */\012MIRP[11101]	/* MoveIndirectRelPt */\012SRP0[ ]	/* SetRefPoint0 */\012MIRP[11101]	/* MoveIndirectRelPt */\012ALIGNRP[ ]	/* AlignRelativePt */\012SVTCA[0]	/* SetFreedomAndProjectionVectorToAxis */\012MDAP[0]	/* MoveDirectAbsPt */\012MDAP[0]	/* MoveDirectAbsPt */\012IUP[1]	/* InterpolateUntPts */\012IUP[0]	/* InterpolateUntPts */\012SVTCA[1]	/* SetFreedomAndProjectionVectorToAxis */\012MD[0]	/* MeasureDistance */\012ROUND[00]	/* Round */\012PUSHW[ ]	/* 2 values pushed */\01216 51 \012MD[0]	/* MeasureDistance */\012ROUND[00]	/* Round */\012SUB[ ]	/* Subtract */\012PUSHB[ ]	/* 1 value pushed */\01264 \012GT[ ]	/* GreaterThan */\012IF[ ]	/* If */\012SHPIX[ ]	/* ShiftZoneByPixel */\012SRP1[ ]	/* SetRefPoint1 */\012SHZ[1]	/* ShiftZoneByLastPoint */\012PUSHW[ ]	/* 2 values pushed */\01251 -64 \012SHPIX[ ]	/* ShiftZoneByPixel */\012EIF[ ]	/* EndIf */";
};
width = 406;
}
);
note = Thorn;
unicode = 00DE;
},
{
glyphname = Q;
lastChange = "2019-11-30 15:48:57 +0000";
layers = (
{
layerId = "F775FF55-200A-4C1E-99C8-011CF6498227";
paths = (
{
closed = 1;
nodes = (
"385.667 -101 OFFCURVE",
"399 -82 OFFCURVE",
"399 -62 CURVE SMOOTH",
"399 -52 OFFCURVE",
"388 -23 OFFCURVE",
"366 25 CURVE",
"402.667 40.333 OFFCURVE",
"434 84.333 OFFCURVE",
"460 157 CURVE SMOOTH",
"482 219 OFFCURVE",
"493 274.667 OFFCURVE",
"493 324 CURVE",
"493 324 LINE",
"493 384.667 OFFCURVE",
"474.667 436 OFFCURVE",
"438 478 CURVE SMOOTH",
"400 520.667 OFFCURVE",
"350.667 542 OFFCURVE",
"290 542 CURVE SMOOTH",
"214 542 OFFCURVE",
"150.667 509 OFFCURVE",
"100 443 CURVE SMOOTH",
"53.333 381 OFFCURVE",
"30 311 OFFCURVE",
"30 233 CURVE SMOOTH",
"30 166.333 OFFCURVE",
"48.667 108 OFFCURVE",
"86 58 CURVE SMOOTH",
"127.333 3.333 OFFCURVE",
"180.667 -24 OFFCURVE",
"246 -24 CURVE SMOOTH",
"266.667 -24 OFFCURVE",
"287 -21 OFFCURVE",
"307 -15 CURVE",
"328.333 -72.333 OFFCURVE",
"348.333 -101 OFFCURVE",
"367 -101 CURVE",
"367 -101 LINE"
);
},
{
closed = 1;
nodes = (
"195.333 48 OFFCURVE",
"158 66.667 OFFCURVE",
"132 104 CURVE SMOOTH",
"108.667 136.667 OFFCURVE",
"97 178.333 OFFCURVE",
"97 229 CURVE SMOOTH",
"97 289 OFFCURVE",
"114.333 343.667 OFFCURVE",
"149 393 CURVE SMOOTH",
"187 447 OFFCURVE",
"235 474 OFFCURVE",
"293 474 CURVE SMOOTH",
"334.333 474 OFFCURVE",
"367.333 457 OFFCURVE",
"392 423 CURVE SMOOTH",
"414 393 OFFCURVE",
"425 356.333 OFFCURVE",
"425 313 CURVE",
"425 313 LINE",
"425 276.333 OFFCURVE",
"418 237.667 OFFCURVE",
"404 197 CURVE SMOOTH",
"388 152.333 OFFCURVE",
"368 119 OFFCURVE",
"344 97 CURVE",
"336.667 124.333 OFFCURVE",
"329 152 OFFCURVE",
"321 180 CURVE SMOOTH",
"308.333 220.667 OFFCURVE",
"294 241 OFFCURVE",
"278 241 CURVE SMOOTH",
"258.667 241 OFFCURVE",
"249 225.667 OFFCURVE",
"249 195 CURVE SMOOTH",
"249 166.333 OFFCURVE",
"260.333 119.667 OFFCURVE",
"283 55 CURVE",
"271 50.333 OFFCURVE",
"258 48 OFFCURVE",
"244 48 CURVE",
"244 48 LINE"
);
}
);
userData = {
assembly = "NPUSHB[ ]	/* 31 values pushed */\0121 51 51 64 52 0 47 43 11 41 39 6 4 33 5 17 25 5 0 37 6 13 29 6 21 9 21 3 1 17 70 \012SROUND[ ]	/* SuperRound */\012MDAP[1]	/* MoveDirectAbsPt */\012SHZ[1]	/* ShiftZoneByLastPoint */\012RTG[ ]	/* RoundToGrid */\012SVTCA[0]	/* SetFreedomAndProjectionVectorToAxis */\012MIAP[1]	/* MoveIndirectAbsPt */\012MDAP[1]	/* MoveDirectAbsPt */\012SRP0[ ]	/* SetRefPoint0 */\012MIRP[11101]	/* MoveIndirectRelPt */\012MDAP[1]	/* MoveDirectAbsPt */\012MIRP[11101]	/* MoveIndirectRelPt */\012SVTCA[1]	/* SetFreedomAndProjectionVectorToAxis */\012MDAP[1]	/* MoveDirectAbsPt */\012MIRP[11101]	/* MoveIndirectRelPt */\012MDAP[1]	/* MoveDirectAbsPt */\012MIRP[11101]	/* MoveIndirectRelPt */\012MDAP[0]	/* MoveDirectAbsPt */\012MDAP[0]	/* MoveDirectAbsPt */\012MDAP[0]	/* MoveDirectAbsPt */\012MDAP[0]	/* MoveDirectAbsPt */\012SVTCA[0]	/* SetFreedomAndProjectionVectorToAxis */\012MDAP[0]	/* MoveDirectAbsPt */\012MDAP[0]	/* MoveDirectAbsPt */\012MDAP[0]	/* MoveDirectAbsPt */\012IUP[1]	/* InterpolateUntPts */\012IUP[0]	/* InterpolateUntPts */\012SVTCA[1]	/* SetFreedomAndProjectionVectorToAxis */\012MD[0]	/* MeasureDistance */\012ROUND[00]	/* Round */\012PUSHW[ ]	/* 2 values pushed */\01217 51 \012MD[0]	/* MeasureDistance */\012ROUND[00]	/* Round */\012SUB[ ]	/* Subtract */\012PUSHB[ ]	/* 1 value pushed */\01264 \012GT[ ]	/* GreaterThan */\012IF[ ]	/* If */\012SHPIX[ ]	/* ShiftZoneByPixel */\012SRP1[ ]	/* SetRefPoint1 */\012SHZ[1]	/* ShiftZoneByLastPoint */\012PUSHW[ ]	/* 2 values pushed */\01251 -64 \012SHPIX[ ]	/* ShiftZoneByPixel */\012EIF[ ]	/* EndIf */";
};
width = 523;
}
);
note = Q;
unicode = 0051;
},
{
glyphname = R;
lastChange = "2019-11-30 15:48:57 +0000";
layers = (
{
anchors = (
{
name = bottom;
position = "{230, 0}";
},
{
name = top;
position = "{230, 572}";
}
);
layerId = "F775FF55-200A-4C1E-99C8-011CF6498227";
paths = (
{
closed = 1;
nodes = (
"420 0 OFFCURVE",
"430 8.667 OFFCURVE",
"430 26 CURVE",
"430 26 LINE",
"430 42.667 OFFCURVE",
"416.333 62 OFFCURVE",
"389 84 CURVE SMOOTH",
"365 104 OFFCURVE",
"340.667 123.333 OFFCURVE",
"316 142 CURVE SMOOTH",
"287.333 164.667 OFFCURVE",
"263.667 185 OFFCURVE",
"245 203 CURVE",
"335.667 227 OFFCURVE",
"415 322 OFFCURVE",
"415 414 CURVE SMOOTH",
"415 519.333 OFFCURVE",
"347 572 OFFCURVE",
"211 572 CURVE SMOOTH",
"171 572 OFFCURVE",
"135.333 568.333 OFFCURVE",
"104 561 CURVE SMOOTH",
"54.667 550.333 OFFCURVE",
"30 532 OFFCURVE",
"30 506 CURVE SMOOTH",
"30 486 OFFCURVE",
"48 468 OFFCURVE",
"68 468 CURVE SMOOTH",
"72 468 OFFCURVE",
"75.667 468.333 OFFCURVE",
"79 469 CURVE",
"79 402 LINE SMOOTH",
"79 362.667 OFFCURVE",
"77.667 303.5 OFFCURVE",
"75 224.5 CURVE SMOOTH",
"72.333 145.5 OFFCURVE",
"71 86.333 OFFCURVE",
"71 47 CURVE SMOOTH",
"71 16.333 OFFCURVE",
"82 1 OFFCURVE",
"104 1 CURVE SMOOTH",
"133.333 1 OFFCURVE",
"148 34 OFFCURVE",
"148 100 CURVE SMOOTH",
"148 156.667 OFFCURVE",
"148 185 OFFCURVE",
"148 185 CURVE",
"181.333 154.333 OFFCURVE",
"232.667 110.667 OFFCURVE",
"302 54 CURVE SMOOTH",
"326.667 34 OFFCURVE",
"344 21.333 OFFCURVE",
"354 16 CURVE SMOOTH",
"371.333 5.333 OFFCURVE",
"386.667 0 OFFCURVE",
"400 0 CURVE",
"400 0 LINE"
);
},
{
closed = 1;
nodes = (
"152.333 363 OFFCURVE",
"152.333 439.333 OFFCURVE",
"151 490 CURVE",
"166.333 494 OFFCURVE",
"184 496 OFFCURVE",
"204 496 CURVE SMOOTH",
"240 496 OFFCURVE",
"270.667 490.667 OFFCURVE",
"296 480 CURVE SMOOTH",
"329.333 465.333 OFFCURVE",
"346 442.333 OFFCURVE",
"346 411 CURVE",
"346 411 LINE",
"346 371 OFFCURVE",
"323 335.333 OFFCURVE",
"277 304 CURVE SMOOTH",
"236.333 277.333 OFFCURVE",
"194.333 263 OFFCURVE",
"151 261 CURVE",
"151 261 LINE"
);
}
);
userData = {
assembly = "NPUSHB[ ]	/* 37 values pushed */\0121 50 50 64 51 0 46 20 18 8 32 0 23 4 46 46 5 18 17 38 5 29 10 8 4 14 42 6 27 27 3 12 2 1 1 23 70 \012SROUND[ ]	/* SuperRound */\012MDAP[1]	/* MoveDirectAbsPt */\012SHZ[1]	/* ShiftZoneByLastPoint */\012RTG[ ]	/* RoundToGrid */\012SVTCA[0]	/* SetFreedomAndProjectionVectorToAxis */\012MIAP[1]	/* MoveIndirectAbsPt */\012ALIGNRP[ ]	/* AlignRelativePt */\012MIAP[1]	/* MoveIndirectAbsPt */\012SRP0[ ]	/* SetRefPoint0 */\012MIRP[11101]	/* MoveIndirectRelPt */\012SVTCA[1]	/* SetFreedomAndProjectionVectorToAxis */\012MDAP[1]	/* MoveDirectAbsPt */\012MIRP[11101]	/* MoveIndirectRelPt */\012ALIGNRP[ ]	/* AlignRelativePt */\012MDAP[1]	/* MoveDirectAbsPt */\012MIRP[11101]	/* MoveIndirectRelPt */\012MDAP[1]	/* MoveDirectAbsPt */\012ALIGNRP[ ]	/* AlignRelativePt */\012MIRP[11101]	/* MoveIndirectRelPt */\012SRP0[ ]	/* SetRefPoint0 */\012MIRP[11101]	/* MoveIndirectRelPt */\012MDAP[0]	/* MoveDirectAbsPt */\012MDAP[0]	/* MoveDirectAbsPt */\012SVTCA[0]	/* SetFreedomAndProjectionVectorToAxis */\012MDAP[0]	/* MoveDirectAbsPt */\012MDAP[0]	/* MoveDirectAbsPt */\012MDAP[0]	/* MoveDirectAbsPt */\012MDAP[0]	/* MoveDirectAbsPt */\012IUP[1]	/* InterpolateUntPts */\012IUP[0]	/* InterpolateUntPts */\012SVTCA[1]	/* SetFreedomAndProjectionVectorToAxis */\012MD[0]	/* MeasureDistance */\012ROUND[00]	/* Round */\012PUSHW[ ]	/* 2 values pushed */\01223 50 \012MD[0]	/* MeasureDistance */\012ROUND[00]	/* Round */\012SUB[ ]	/* Subtract */\012PUSHB[ ]	/* 1 value pushed */\01264 \012GT[ ]	/* GreaterThan */\012IF[ ]	/* If */\012SHPIX[ ]	/* ShiftZoneByPixel */\012SRP1[ ]	/* SetRefPoint1 */\012SHZ[1]	/* ShiftZoneByLastPoint */\012PUSHW[ ]	/* 2 values pushed */\01250 -64 \012SHPIX[ ]	/* ShiftZoneByPixel */\012EIF[ ]	/* EndIf */";
};
width = 460;
}
);
note = R;
unicode = 0052;
},
{
glyphname = S;
lastChange = "2019-11-30 15:48:57 +0000";
layers = (
{
anchors = (
{
name = bottom;
position = "{213, 0}";
},
{
name = top;
position = "{213, 571}";
}
);
layerId = "F775FF55-200A-4C1E-99C8-011CF6498227";
paths = (
{
closed = 1;
nodes = (
"241.667 0 OFFCURVE",
"280.667 5.667 OFFCURVE",
"318 17 CURVE SMOOTH",
"370 33 OFFCURVE",
"396 56.333 OFFCURVE",
"396 87 CURVE",
"396 87 LINE",
"396 123 OFFCURVE",
"371.333 163.667 OFFCURVE",
"322 209 CURVE",
"276.667 245.667 OFFCURVE",
"231.333 282.667 OFFCURVE",
"186 320 CURVE SMOOTH",
"137.333 360.667 OFFCURVE",
"113 393.333 OFFCURVE",
"113 418 CURVE SMOOTH",
"113 440.667 OFFCURVE",
"130.667 460 OFFCURVE",
"166 476 CURVE SMOOTH",
"195.333 488.667 OFFCURVE",
"223.333 495 OFFCURVE",
"250 495 CURVE SMOOTH",
"267.333 495 OFFCURVE",
"283.667 491.667 OFFCURVE",
"299 485 CURVE SMOOTH",
"317.667 476.333 OFFCURVE",
"327 464.333 OFFCURVE",
"327 449 CURVE SMOOTH",
"327 442.333 OFFCURVE",
"322.667 434 OFFCURVE",
"314 424 CURVE SMOOTH",
"305.333 414 OFFCURVE",
"301 405.333 OFFCURVE",
"301 398 CURVE SMOOTH",
"301 372.667 OFFCURVE",
"332.667 350 OFFCURVE",
"358 350 CURVE SMOOTH",
"370 350 OFFCURVE",
"379 361.333 OFFCURVE",
"385 384 CURVE SMOOTH",
"389 400.667 OFFCURVE",
"391 417.333 OFFCURVE",
"391 434 CURVE SMOOTH",
"391 525.333 OFFCURVE",
"345 571 OFFCURVE",
"253 571 CURVE SMOOTH",
"206.333 571 OFFCURVE",
"162 560.333 OFFCURVE",
"120 539 CURVE SMOOTH",
"69.333 513.667 OFFCURVE",
"44 480 OFFCURVE",
"44 438 CURVE SMOOTH",
"44 391.333 OFFCURVE",
"66.333 343 OFFCURVE",
"111 293 CURVE SMOOTH",
"135 267 OFFCURVE",
"177.667 230 OFFCURVE",
"239 182 CURVE SMOOTH",
"283.667 146.667 OFFCURVE",
"306 123 OFFCURVE",
"306 111 CURVE SMOOTH",
"306 98.333 OFFCURVE",
"290.333 88.333 OFFCURVE",
"259 81 CURVE SMOOTH",
"235.667 76.333 OFFCURVE",
"214 74 OFFCURVE",
"194 74 CURVE SMOOTH",
"160 74 OFFCURVE",
"135 80.667 OFFCURVE",
"119 94 CURVE SMOOTH",
"116.333 96 OFFCURVE",
"108.667 107.667 OFFCURVE",
"96 129 CURVE SMOOTH",
"84.667 147.667 OFFCURVE",
"77 157 OFFCURVE",
"73 157 CURVE SMOOTH",
"45 157 OFFCURVE",
"30 133.333 OFFCURVE",
"30 104 CURVE SMOOTH",
"30 67.333 OFFCURVE",
"50.333 39.667 OFFCURVE",
"91 21 CURVE SMOOTH",
"122.333 7 OFFCURVE",
"159 0 OFFCURVE",
"201 0 CURVE",
"201 0 LINE"
);
}
);
userData = {
assembly = "NPUSHB[ ]	/* 34 values pushed */\0121 57 57 64 58 0 11 40 8 21 4 0 43 5 33 51 5 27 37 6 31 17 6 4 47 6 31 31 3 4 1 1 8 70 \012SROUND[ ]	/* SuperRound */\012MDAP[1]	/* MoveDirectAbsPt */\012SHZ[1]	/* ShiftZoneByLastPoint */\012RTG[ ]	/* RoundToGrid */\012SVTCA[0]	/* SetFreedomAndProjectionVectorToAxis */\012MIAP[1]	/* MoveIndirectAbsPt */\012MIAP[1]	/* MoveIndirectAbsPt */\012SRP0[ ]	/* SetRefPoint0 */\012MIRP[11101]	/* MoveIndirectRelPt */\012SRP0[ ]	/* SetRefPoint0 */\012MIRP[11101]	/* MoveIndirectRelPt */\012SRP0[ ]	/* SetRefPoint0 */\012MIRP[11101]	/* MoveIndirectRelPt */\012SVTCA[1]	/* SetFreedomAndProjectionVectorToAxis */\012MDAP[1]	/* MoveDirectAbsPt */\012MIRP[11101]	/* MoveIndirectRelPt */\012MDAP[1]	/* MoveDirectAbsPt */\012MIRP[11101]	/* MoveIndirectRelPt */\012MDAP[1]	/* MoveDirectAbsPt */\012MIRP[11101]	/* MoveIndirectRelPt */\012MDAP[0]	/* MoveDirectAbsPt */\012MDAP[0]	/* MoveDirectAbsPt */\012SVTCA[0]	/* SetFreedomAndProjectionVectorToAxis */\012MDAP[0]	/* MoveDirectAbsPt */\012IUP[1]	/* InterpolateUntPts */\012IUP[0]	/* InterpolateUntPts */\012SVTCA[1]	/* SetFreedomAndProjectionVectorToAxis */\012MD[0]	/* MeasureDistance */\012ROUND[00]	/* Round */\012PUSHW[ ]	/* 2 values pushed */\0128 57 \012MD[0]	/* MeasureDistance */\012ROUND[00]	/* Round */\012SUB[ ]	/* Subtract */\012PUSHB[ ]	/* 1 value pushed */\01264 \012GT[ ]	/* GreaterThan */\012IF[ ]	/* If */\012SHPIX[ ]	/* ShiftZoneByPixel */\012SRP1[ ]	/* SetRefPoint1 */\012SHZ[1]	/* ShiftZoneByLastPoint */\012PUSHW[ ]	/* 2 values pushed */\01257 -64 \012SHPIX[ ]	/* ShiftZoneByPixel */\012EIF[ ]	/* EndIf */";
};
width = 426;
}
);
note = S;
unicode = 0053;
},
{
glyphname = Germandbls;
lastChange = "2019-11-30 15:48:57 +0000";
layers = (
{
anchors = (
{
name = bottom;
position = "{280, 6}";
},
{
name = top;
position = "{276, 428}";
}
);
layerId = "F775FF55-200A-4C1E-99C8-011CF6498227";
paths = (
{
closed = 1;
nodes = (
"196 0 OFFCURVE",
"230 8 OFFCURVE",
"270 24 CURVE SMOOTH",
"316 41.333 OFFCURVE",
"342.667 60.667 OFFCURVE",
"350 82 CURVE SMOOTH",
"354 93.333 OFFCURVE",
"356 104.333 OFFCURVE",
"356 115 CURVE",
"356 115 LINE",
"356 144.333 OFFCURVE",
"333.667 170.667 OFFCURVE",
"289 194 CURVE",
"253.667 209.333 OFFCURVE",
"218.333 224.333 OFFCURVE",
"183 239 CURVE SMOOTH",
"136.333 260.333 OFFCURVE",
"113 279 OFFCURVE",
"113 295 CURVE SMOOTH",
"113 312.333 OFFCURVE",
"124.667 327.667 OFFCURVE",
"148 341 CURVE SMOOTH",
"168 351 OFFCURVE",
"187.667 356 OFFCURVE",
"207 356 CURVE SMOOTH",
"239 356 OFFCURVE",
"255 351 OFFCURVE",
"255 341 CURVE SMOOTH",
"255 337.667 OFFCURVE",
"254.333 333.667 OFFCURVE",
"253 329 CURVE SMOOTH",
"251.667 324.333 OFFCURVE",
"251 320.667 OFFCURVE",
"251 318 CURVE SMOOTH",
"251 310.667 OFFCURVE",
"254.333 304.333 OFFCURVE",
"261 299 CURVE",
"270.333 293.667 OFFCURVE",
"278.667 291 OFFCURVE",
"286 291 CURVE SMOOTH",
"300 291 OFFCURVE",
"311.333 298 OFFCURVE",
"320 312 CURVE SMOOTH",
"327.333 324.667 OFFCURVE",
"331 338.333 OFFCURVE",
"331 353 CURVE SMOOTH",
"331 357 OFFCURVE",
"330.333 360.667 OFFCURVE",
"329 364 CURVE SMOOTH",
"311 406.667 OFFCURVE",
"269.667 428 OFFCURVE",
"205 428 CURVE SMOOTH",
"162.333 428 OFFCURVE",
"124.667 414.667 OFFCURVE",
"92 388 CURVE SMOOTH",
"57.333 359.333 OFFCURVE",
"40 324 OFFCURVE",
"40 282 CURVE SMOOTH",
"40 274.667 OFFCURVE",
"41.333 268.333 OFFCURVE",
"44 263 CURVE SMOOTH",
"56.667 231.667 OFFCURVE",
"83 205.333 OFFCURVE",
"123 184 CURVE SMOOTH",
"145 172 OFFCURVE",
"179.333 158.333 OFFCURVE",
"226 143 CURVE SMOOTH",
"261.333 131.667 OFFCURVE",
"280.333 122.333 OFFCURVE",
"283 115 CURVE",
"277 105 OFFCURVE",
"260.333 96 OFFCURVE",
"233 88 CURVE SMOOTH",
"209.667 80.667 OFFCURVE",
"190 77 OFFCURVE",
"174 77 CURVE SMOOTH",
"155.333 77 OFFCURVE",
"139 81.333 OFFCURVE",
"125 90 CURVE SMOOTH",
"119 94 OFFCURVE",
"109.333 102.333 OFFCURVE",
"96 115 CURVE SMOOTH",
"86 123.667 OFFCURVE",
"78 128 OFFCURVE",
"72 128 CURVE SMOOTH",
"50.667 128 OFFCURVE",
"30 108 OFFCURVE",
"30 88 CURVE SMOOTH",
"30 70 OFFCURVE",
"44.333 51.333 OFFCURVE",
"73 32 CURVE SMOOTH",
"98.333 15.333 OFFCURVE",
"121 5.333 OFFCURVE",
"141 2 CURVE SMOOTH",
"150.333 0.667 OFFCURVE",
"159.333 0 OFFCURVE",
"168 0 CURVE",
"168 0 LINE"
);
},
{
closed = 1;
nodes = (
"399 0 OFFCURVE",
"433 8 OFFCURVE",
"473 24 CURVE SMOOTH",
"519 41.333 OFFCURVE",
"545.667 60.667 OFFCURVE",
"553 82 CURVE SMOOTH",
"557 93.333 OFFCURVE",
"559 104.333 OFFCURVE",
"559 115 CURVE",
"559 115 LINE",
"559 144.333 OFFCURVE",
"536.667 170.667 OFFCURVE",
"492 194 CURVE",
"456.667 209.333 OFFCURVE",
"421.333 224.333 OFFCURVE",
"386 239 CURVE SMOOTH",
"339.333 260.333 OFFCURVE",
"316 279 OFFCURVE",
"316 295 CURVE SMOOTH",
"316 312.333 OFFCURVE",
"327.667 327.667 OFFCURVE",
"351 341 CURVE SMOOTH",
"371 351 OFFCURVE",
"390.667 356 OFFCURVE",
"410 356 CURVE SMOOTH",
"442 356 OFFCURVE",
"458 351 OFFCURVE",
"458 341 CURVE SMOOTH",
"458 337.667 OFFCURVE",
"456.5 333.667 OFFCURVE",
"453.5 329 CURVE SMOOTH",
"450.5 324.333 OFFCURVE",
"449 320.667 OFFCURVE",
"449 318 CURVE SMOOTH",
"449 310.667 OFFCURVE",
"454 304.333 OFFCURVE",
"464 299 CURVE SMOOTH",
"473.333 293.667 OFFCURVE",
"481.667 291 OFFCURVE",
"489 291 CURVE SMOOTH",
"503 291 OFFCURVE",
"514.333 298 OFFCURVE",
"523 312 CURVE SMOOTH",
"530.333 324.667 OFFCURVE",
"534 338.333 OFFCURVE",
"534 353 CURVE SMOOTH",
"534 357 OFFCURVE",
"533.333 360.667 OFFCURVE",
"532 364 CURVE SMOOTH",
"514 406.667 OFFCURVE",
"472.667 428 OFFCURVE",
"408 428 CURVE SMOOTH",
"365.333 428 OFFCURVE",
"327.667 414.667 OFFCURVE",
"295 388 CURVE SMOOTH",
"260.333 359.333 OFFCURVE",
"243 324 OFFCURVE",
"243 282 CURVE SMOOTH",
"243 274.667 OFFCURVE",
"244.333 268.333 OFFCURVE",
"247 263 CURVE SMOOTH",
"259.667 231.667 OFFCURVE",
"286 205.333 OFFCURVE",
"326 184 CURVE SMOOTH",
"348 172 OFFCURVE",
"382.333 158.333 OFFCURVE",
"429 143 CURVE SMOOTH",
"464.333 131.667 OFFCURVE",
"483.333 122.333 OFFCURVE",
"486 115 CURVE",
"480 105 OFFCURVE",
"463.333 96 OFFCURVE",
"436 88 CURVE SMOOTH",
"412.667 80.667 OFFCURVE",
"393 77 OFFCURVE",
"377 77 CURVE SMOOTH",
"358.333 77 OFFCURVE",
"342 81.333 OFFCURVE",
"328 90 CURVE",
"335.333 81.333 OFFCURVE",
"332.333 83.333 OFFCURVE",
"319 96 CURVE SMOOTH",
"309 104.667 OFFCURVE",
"301 109 OFFCURVE",
"295 109 CURVE SMOOTH",
"273.667 109 OFFCURVE",
"253 89 OFFCURVE",
"253 69 CURVE SMOOTH",
"253 51 OFFCURVE",
"260.667 38.667 OFFCURVE",
"276 32 CURVE",
"301.333 15.333 OFFCURVE",
"324 5.333 OFFCURVE",
"344 2 CURVE SMOOTH",
"353.333 0.667 OFFCURVE",
"362.333 0 OFFCURVE",
"371 0 CURVE",
"371 0 LINE"
);
}
);
width = 589;
}
);
unicode = 1E9E;
},
{
glyphname = T;
lastChange = "2019-11-30 15:48:57 +0000";
layers = (
{
layerId = "F775FF55-200A-4C1E-99C8-011CF6498227";
paths = (
{
closed = 1;
nodes = (
"265.667 0 OFFCURVE",
"281 22 OFFCURVE",
"281 66 CURVE SMOOTH",
"282 499 LINE",
"292.667 499 OFFCURVE",
"308.833 498.5 OFFCURVE",
"330.5 497.5 CURVE SMOOTH",
"352.167 496.5 OFFCURVE",
"368.333 496 OFFCURVE",
"379 496 CURVE SMOOTH",
"419 496 OFFCURVE",
"439 507.667 OFFCURVE",
"439 531 CURVE",
"439 531 LINE",
"439 553 OFFCURVE",
"419.333 566.333 OFFCURVE",
"380 571 CURVE SMOOTH",
"344 576.333 OFFCURVE",
"299.333 579 OFFCURVE",
"246 579 CURVE SMOOTH",
"156 579 LINE SMOOTH",
"72 579 OFFCURVE",
"30 561.333 OFFCURVE",
"30 526 CURVE SMOOTH",
"30 503.333 OFFCURVE",
"50.333 491 OFFCURVE",
"73 491 CURVE SMOOTH",
"86.333 491 OFFCURVE",
"106.333 491.833 OFFCURVE",
"133 493.5 CURVE SMOOTH",
"159.667 495.167 OFFCURVE",
"179.667 496 OFFCURVE",
"193 496 CURVE SMOOTH",
"203 496 LINE",
"203 356 LINE SMOOTH",
"203 298 OFFCURVE",
"201.667 236.667 OFFCURVE",
"199 172 CURVE SMOOTH",
"195.667 80.667 OFFCURVE",
"194 38 OFFCURVE",
"194 44 CURVE SMOOTH",
"194 18.667 OFFCURVE",
"211 0 OFFCURVE",
"235 0 CURVE",
"235 0 LINE"
);
}
);
userData = {
assembly = "NPUSHB[ ]	/* 32 values pushed */\0121 30 30 64 31 0 20 17 16 5 2 23 0 11 4 6 13 4 6 16 15 4 5 6 26 25 3 8 1 1 23 70 \012SROUND[ ]	/* SuperRound */\012MDAP[1]	/* MoveDirectAbsPt */\012SHZ[1]	/* ShiftZoneByLastPoint */\012RTG[ ]	/* RoundToGrid */\012SVTCA[0]	/* SetFreedomAndProjectionVectorToAxis */\012MIAP[1]	/* MoveIndirectAbsPt */\012MIAP[1]	/* MoveIndirectAbsPt */\012ALIGNRP[ ]	/* AlignRelativePt */\012SVTCA[1]	/* SetFreedomAndProjectionVectorToAxis */\012MDAP[1]	/* MoveDirectAbsPt */\012ALIGNRP[ ]	/* AlignRelativePt */\012MIRP[11101]	/* MoveIndirectRelPt */\012ALIGNRP[ ]	/* AlignRelativePt */\012SRP0[ ]	/* SetRefPoint0 */\012MIRP[11101]	/* MoveIndirectRelPt */\012SRP0[ ]	/* SetRefPoint0 */\012MIRP[11101]	/* MoveIndirectRelPt */\012MDAP[0]	/* MoveDirectAbsPt */\012MDAP[0]	/* MoveDirectAbsPt */\012SVTCA[0]	/* SetFreedomAndProjectionVectorToAxis */\012MDAP[0]	/* MoveDirectAbsPt */\012MDAP[0]	/* MoveDirectAbsPt */\012MDAP[0]	/* MoveDirectAbsPt */\012MDAP[0]	/* MoveDirectAbsPt */\012MDAP[0]	/* MoveDirectAbsPt */\012IUP[1]	/* InterpolateUntPts */\012IUP[0]	/* InterpolateUntPts */\012SVTCA[1]	/* SetFreedomAndProjectionVectorToAxis */\012MD[0]	/* MeasureDistance */\012ROUND[00]	/* Round */\012PUSHW[ ]	/* 2 values pushed */\01223 30 \012MD[0]	/* MeasureDistance */\012ROUND[00]	/* Round */\012SUB[ ]	/* Subtract */\012PUSHB[ ]	/* 1 value pushed */\01264 \012GT[ ]	/* GreaterThan */\012IF[ ]	/* If */\012SHPIX[ ]	/* ShiftZoneByPixel */\012SRP1[ ]	/* SetRefPoint1 */\012SHZ[1]	/* ShiftZoneByLastPoint */\012PUSHW[ ]	/* 2 values pushed */\01230 -64 \012SHPIX[ ]	/* ShiftZoneByPixel */\012EIF[ ]	/* EndIf */";
};
width = 469;
}
);
note = T;
unicode = 0054;
},
{
glyphname = U;
lastChange = "2019-11-30 15:48:57 +0000";
layers = (
{
anchors = (
{
name = bottom;
position = "{225, 0}";
},
{
name = ogonek;
position = "{224, 2}";
},
{
name = top;
position = "{225, 571}";
},
{
name = topright;
position = "{379, 571}";
}
);
layerId = "F775FF55-200A-4C1E-99C8-011CF6498227";
paths = (
{
closed = 1;
nodes = (
"307.333 0 OFFCURVE",
"364 47.333 OFFCURVE",
"394 142 CURVE SMOOTH",
"411.333 197.333 OFFCURVE",
"420 278.667 OFFCURVE",
"420 386 CURVE",
"420 386 LINE",
"420 439.333 OFFCURVE",
"419 474.667 OFFCURVE",
"417 492 CURVE SMOOTH",
"411.667 544.667 OFFCURVE",
"399 571 OFFCURVE",
"379 571 CURVE SMOOTH",
"364.333 571 OFFCURVE",
"353.667 562 OFFCURVE",
"347 544 CURVE SMOOTH",
"341.667 530.667 OFFCURVE",
"339 515.667 OFFCURVE",
"339 499 CURVE SMOOTH",
"339 483.667 OFFCURVE",
"339.833 460.5 OFFCURVE",
"341.5 429.5 CURVE SMOOTH",
"343.167 398.5 OFFCURVE",
"344 375.333 OFFCURVE",
"344 360 CURVE SMOOTH",
"344 172 OFFCURVE",
"299.333 78 OFFCURVE",
"210 78 CURVE SMOOTH",
"139.333 78 OFFCURVE",
"104 168.667 OFFCURVE",
"104 350 CURVE SMOOTH",
"104 368 OFFCURVE",
"105.333 394.833 OFFCURVE",
"108 430.5 CURVE SMOOTH",
"110.667 466.167 OFFCURVE",
"112 493 OFFCURVE",
"112 511 CURVE SMOOTH",
"112 524.333 OFFCURVE",
"109 536.667 OFFCURVE",
"103 548 CURVE SMOOTH",
"95.667 560.667 OFFCURVE",
"85.667 567 OFFCURVE",
"73 567 CURVE SMOOTH",
"57 567 OFFCURVE",
"46 552.667 OFFCURVE",
"40 524 CURVE SMOOTH",
"33.333 490.667 OFFCURVE",
"30 438 OFFCURVE",
"30 366 CURVE SMOOTH",
"30 283.333 OFFCURVE",
"34 219.667 OFFCURVE",
"42 175 CURVE SMOOTH",
"56.667 92.333 OFFCURVE",
"86 39.667 OFFCURVE",
"130 17 CURVE SMOOTH",
"152 5.667 OFFCURVE",
"183.333 0 OFFCURVE",
"224 0 CURVE",
"224 0 LINE"
);
}
);
userData = {
assembly = "NPUSHB[ ]	/* 25 values pushed */\0121 36 36 64 37 0 14 28 18 21 4 10 25 4 0 23 6 4 32 3 4 1 1 10 70 \012SROUND[ ]	/* SuperRound */\012MDAP[1]	/* MoveDirectAbsPt */\012SHZ[1]	/* ShiftZoneByLastPoint */\012RTG[ ]	/* RoundToGrid */\012SVTCA[0]	/* SetFreedomAndProjectionVectorToAxis */\012MIAP[1]	/* MoveIndirectAbsPt */\012MIAP[1]	/* MoveIndirectAbsPt */\012SRP0[ ]	/* SetRefPoint0 */\012MIRP[11101]	/* MoveIndirectRelPt */\012SVTCA[1]	/* SetFreedomAndProjectionVectorToAxis */\012MDAP[1]	/* MoveDirectAbsPt */\012MIRP[11101]	/* MoveIndirectRelPt */\012MDAP[1]	/* MoveDirectAbsPt */\012MIRP[11101]	/* MoveIndirectRelPt */\012MDAP[0]	/* MoveDirectAbsPt */\012MDAP[0]	/* MoveDirectAbsPt */\012SVTCA[0]	/* SetFreedomAndProjectionVectorToAxis */\012MDAP[0]	/* MoveDirectAbsPt */\012IUP[1]	/* InterpolateUntPts */\012IUP[0]	/* InterpolateUntPts */\012SVTCA[1]	/* SetFreedomAndProjectionVectorToAxis */\012MD[0]	/* MeasureDistance */\012ROUND[00]	/* Round */\012PUSHW[ ]	/* 2 values pushed */\01210 36 \012MD[0]	/* MeasureDistance */\012ROUND[00]	/* Round */\012SUB[ ]	/* Subtract */\012PUSHB[ ]	/* 1 value pushed */\01264 \012GT[ ]	/* GreaterThan */\012IF[ ]	/* If */\012SHPIX[ ]	/* ShiftZoneByPixel */\012SRP1[ ]	/* SetRefPoint1 */\012SHZ[1]	/* ShiftZoneByLastPoint */\012PUSHW[ ]	/* 2 values pushed */\01236 -64 \012SHPIX[ ]	/* ShiftZoneByPixel */\012EIF[ ]	/* EndIf */";
};
width = 450;
}
);
note = U;
unicode = 0055;
},
{
glyphname = Ucircumflex;
lastChange = "2019-11-30 15:48:57 +0000";
layers = (
{
layerId = "F775FF55-200A-4C1E-99C8-011CF6498227";
paths = (
{
closed = 1;
nodes = (
"211 -2 LINE",
"277.667 -2 OFFCURVE",
"328.333 23.333 OFFCURVE",
"363 74 CURVE SMOOTH",
"389.667 113.333 OFFCURVE",
"407 170 OFFCURVE",
"415 244 CURVE SMOOTH",
"418.333 278.667 OFFCURVE",
"420 338 OFFCURVE",
"420 422 CURVE SMOOTH",
"420 520 OFFCURVE",
"406.333 569 OFFCURVE",
"379 569 CURVE SMOOTH",
"365 569 OFFCURVE",
"354.333 560 OFFCURVE",
"347 542 CURVE SMOOTH",
"341.667 528.667 OFFCURVE",
"339 513.667 OFFCURVE",
"339 497 CURVE SMOOTH",
"339 481.667 OFFCURVE",
"339.833 458.5 OFFCURVE",
"341.5 427.5 CURVE SMOOTH",
"343.167 396.5 OFFCURVE",
"344 373.333 OFFCURVE",
"344 358 CURVE SMOOTH",
"344 170 OFFCURVE",
"299.333 76 OFFCURVE",
"210 76 CURVE SMOOTH",
"139.333 76 OFFCURVE",
"104 166.667 OFFCURVE",
"104 348 CURVE SMOOTH",
"104 366 OFFCURVE",
"105.333 392.833 OFFCURVE",
"108 428.5 CURVE SMOOTH",
"110.667 464.167 OFFCURVE",
"112 491 OFFCURVE",
"112 509 CURVE SMOOTH",
"112 522.333 OFFCURVE",
"109 534.667 OFFCURVE",
"103 546 CURVE SMOOTH",
"95.667 558.667 OFFCURVE",
"85.667 565 OFFCURVE",
"73 565 CURVE SMOOTH",
"57 565 OFFCURVE",
"46 550.667 OFFCURVE",
"40 522 CURVE SMOOTH",
"33.333 488 OFFCURVE",
"30 435.333 OFFCURVE",
"30 364 CURVE SMOOTH",
"30 282 OFFCURVE",
"34 218 OFFCURVE",
"42 172 CURVE SMOOTH",
"57.333 90 OFFCURVE",
"86.667 37.667 OFFCURVE",
"130 15 CURVE SMOOTH",
"152 3.667 OFFCURVE",
"179 -2 OFFCURVE",
"211 -2 CURVE",
"211 -2 LINE"
);
},
{
closed = 1;
nodes = (
"329.333 591 OFFCURVE",
"332 594 OFFCURVE",
"332 600 CURVE",
"332 600 LINE",
"332 610 OFFCURVE",
"325 626 OFFCURVE",
"311 648 CURVE SMOOTH",
"299.667 665.333 OFFCURVE",
"288.333 680 OFFCURVE",
"277 692 CURVE SMOOTH",
"264.333 705.333 OFFCURVE",
"251.667 712 OFFCURVE",
"239 712 CURVE SMOOTH",
"225.667 712 OFFCURVE",
"210.333 704.333 OFFCURVE",
"193 689 CURVE SMOOTH",
"150.333 649.667 OFFCURVE",
"129 622 OFFCURVE",
"129 606 CURVE SMOOTH",
"129 600.667 OFFCURVE",
"132.333 598 OFFCURVE",
"139 598 CURVE SMOOTH",
"162.333 598 OFFCURVE",
"194.667 615.667 OFFCURVE",
"236 651 CURVE",
"276.667 611 OFFCURVE",
"306 591 OFFCURVE",
"324 591 CURVE",
"324 591 LINE"
);
}
);
userData = {
assembly = "NPUSHB[ ]	/* 33 values pushed */\0121 54 54 64 55 48 46 28 6 2 42 32 8 4 0 35 4 24 39 4 48 4 7 12 37 6 18 12 18 1 1 24 70 \012SROUND[ ]	/* SuperRound */\012MDAP[1]	/* MoveDirectAbsPt */\012SHZ[1]	/* ShiftZoneByLastPoint */\012RTG[ ]	/* RoundToGrid */\012SVTCA[0]	/* SetFreedomAndProjectionVectorToAxis */\012MIAP[1]	/* MoveIndirectAbsPt */\012MDAP[1]	/* MoveDirectAbsPt */\012SRP0[ ]	/* SetRefPoint0 */\012MIRP[11101]	/* MoveIndirectRelPt */\012SRP0[ ]	/* SetRefPoint0 */\012MIRP[11101]	/* MoveIndirectRelPt */\012SVTCA[1]	/* SetFreedomAndProjectionVectorToAxis */\012MDAP[1]	/* MoveDirectAbsPt */\012MIRP[11101]	/* MoveIndirectRelPt */\012MDAP[1]	/* MoveDirectAbsPt */\012MIRP[11101]	/* MoveIndirectRelPt */\012MDAP[1]	/* MoveDirectAbsPt */\012MIRP[11101]	/* MoveIndirectRelPt */\012MDAP[0]	/* MoveDirectAbsPt */\012MDAP[0]	/* MoveDirectAbsPt */\012SVTCA[0]	/* SetFreedomAndProjectionVectorToAxis */\012MDAP[0]	/* MoveDirectAbsPt */\012MDAP[0]	/* MoveDirectAbsPt */\012MDAP[0]	/* MoveDirectAbsPt */\012MDAP[0]	/* MoveDirectAbsPt */\012IUP[1]	/* InterpolateUntPts */\012IUP[0]	/* InterpolateUntPts */\012SVTCA[1]	/* SetFreedomAndProjectionVectorToAxis */\012MD[0]	/* MeasureDistance */\012ROUND[00]	/* Round */\012PUSHW[ ]	/* 2 values pushed */\01224 54 \012MD[0]	/* MeasureDistance */\012ROUND[00]	/* Round */\012SUB[ ]	/* Subtract */\012PUSHB[ ]	/* 1 value pushed */\01264 \012GT[ ]	/* GreaterThan */\012IF[ ]	/* If */\012SHPIX[ ]	/* ShiftZoneByPixel */\012SRP1[ ]	/* SetRefPoint1 */\012SHZ[1]	/* ShiftZoneByLastPoint */\012PUSHW[ ]	/* 2 values pushed */\01254 -64 \012SHPIX[ ]	/* ShiftZoneByPixel */\012EIF[ ]	/* EndIf */";
};
width = 450;
}
);
note = Ucircumflex;
unicode = 00DB;
},
{
glyphname = Ugrave;
lastChange = "2019-11-30 15:48:57 +0000";
layers = (
{
layerId = "F775FF55-200A-4C1E-99C8-011CF6498227";
paths = (
{
closed = 1;
nodes = (
"211 2 LINE",
"277.667 2 OFFCURVE",
"328.333 27.333 OFFCURVE",
"363 78 CURVE SMOOTH",
"389.667 118 OFFCURVE",
"406.667 174.667 OFFCURVE",
"414 248 CURVE SMOOTH",
"418 283.333 OFFCURVE",
"420 343.333 OFFCURVE",
"420 428 CURVE SMOOTH",
"420 524.667 OFFCURVE",
"406.333 573 OFFCURVE",
"379 573 CURVE SMOOTH",
"365 573 OFFCURVE",
"354.333 564 OFFCURVE",
"347 546 CURVE SMOOTH",
"341.667 532.667 OFFCURVE",
"339 517.667 OFFCURVE",
"339 501 CURVE SMOOTH",
"339 485.667 OFFCURVE",
"339.833 462.5 OFFCURVE",
"341.5 431.5 CURVE SMOOTH",
"343.167 400.5 OFFCURVE",
"344 377.333 OFFCURVE",
"344 362 CURVE SMOOTH",
"344 174 OFFCURVE",
"299.333 80 OFFCURVE",
"210 80 CURVE SMOOTH",
"139.333 80 OFFCURVE",
"104 170.667 OFFCURVE",
"104 352 CURVE SMOOTH",
"104 370 OFFCURVE",
"105.333 396.833 OFFCURVE",
"108 432.5 CURVE SMOOTH",
"110.667 468.167 OFFCURVE",
"112 495 OFFCURVE",
"112 513 CURVE SMOOTH",
"112 526.333 OFFCURVE",
"109 538.667 OFFCURVE",
"103 550 CURVE SMOOTH",
"95.667 562.667 OFFCURVE",
"85.667 569 OFFCURVE",
"73 569 CURVE SMOOTH",
"57 569 OFFCURVE",
"46 554.667 OFFCURVE",
"40 526 CURVE SMOOTH",
"33.333 492 OFFCURVE",
"30 439.333 OFFCURVE",
"30 368 CURVE SMOOTH",
"30 286 OFFCURVE",
"34 222 OFFCURVE",
"42 176 CURVE SMOOTH",
"57.333 94 OFFCURVE",
"86.667 41.667 OFFCURVE",
"130 19 CURVE SMOOTH",
"152 7.667 OFFCURVE",
"179 2 OFFCURVE",
"211 2 CURVE",
"211 2 LINE"
);
},
{
closed = 1;
nodes = (
"274 596 OFFCURVE",
"279 600 OFFCURVE",
"279 608 CURVE",
"279 608 LINE",
"279 616.667 OFFCURVE",
"270.667 633.667 OFFCURVE",
"254 659 CURVE SMOOTH",
"237.333 683.667 OFFCURVE",
"224.667 699 OFFCURVE",
"216 705 CURVE SMOOTH",
"206 712.333 OFFCURVE",
"193 716 OFFCURVE",
"177 716 CURVE SMOOTH",
"146.333 716 OFFCURVE",
"131 708.333 OFFCURVE",
"131 693 CURVE SMOOTH",
"131 673 OFFCURVE",
"148.667 651.333 OFFCURVE",
"184 628 CURVE SMOOTH",
"216.667 606.667 OFFCURVE",
"243.333 596 OFFCURVE",
"264 596 CURVE",
"264 596 LINE"
);
}
);
userData = {
assembly = "NPUSHB[ ]	/* 28 values pushed */\0121 50 50 64 51 44 24 2 38 28 6 0 31 4 20 35 4 44 33 6 14 8 14 42 3 1 20 70 \012SROUND[ ]	/* SuperRound */\012MDAP[1]	/* MoveDirectAbsPt */\012SHZ[1]	/* ShiftZoneByLastPoint */\012RTG[ ]	/* RoundToGrid */\012SVTCA[0]	/* SetFreedomAndProjectionVectorToAxis */\012MIAP[1]	/* MoveIndirectAbsPt */\012MDAP[1]	/* MoveDirectAbsPt */\012MDAP[1]	/* MoveDirectAbsPt */\012SRP0[ ]	/* SetRefPoint0 */\012MIRP[11101]	/* MoveIndirectRelPt */\012SVTCA[1]	/* SetFreedomAndProjectionVectorToAxis */\012MDAP[1]	/* MoveDirectAbsPt */\012MIRP[11101]	/* MoveIndirectRelPt */\012MDAP[1]	/* MoveDirectAbsPt */\012MIRP[11101]	/* MoveIndirectRelPt */\012MDAP[0]	/* MoveDirectAbsPt */\012MDAP[0]	/* MoveDirectAbsPt */\012MDAP[0]	/* MoveDirectAbsPt */\012MDAP[0]	/* MoveDirectAbsPt */\012SVTCA[0]	/* SetFreedomAndProjectionVectorToAxis */\012MDAP[0]	/* MoveDirectAbsPt */\012MDAP[0]	/* MoveDirectAbsPt */\012IUP[1]	/* InterpolateUntPts */\012IUP[0]	/* InterpolateUntPts */\012SVTCA[1]	/* SetFreedomAndProjectionVectorToAxis */\012MD[0]	/* MeasureDistance */\012ROUND[00]	/* Round */\012PUSHW[ ]	/* 2 values pushed */\01220 50 \012MD[0]	/* MeasureDistance */\012ROUND[00]	/* Round */\012SUB[ ]	/* Subtract */\012PUSHB[ ]	/* 1 value pushed */\01264 \012GT[ ]	/* GreaterThan */\012IF[ ]	/* If */\012SHPIX[ ]	/* ShiftZoneByPixel */\012SRP1[ ]	/* SetRefPoint1 */\012SHZ[1]	/* ShiftZoneByLastPoint */\012PUSHW[ ]	/* 2 values pushed */\01250 -64 \012SHPIX[ ]	/* ShiftZoneByPixel */\012EIF[ ]	/* EndIf */";
};
width = 450;
}
);
note = Ugrave;
unicode = 00D9;
},
{
glyphname = V;
lastChange = "2019-11-30 15:48:57 +0000";
layers = (
{
layerId = "F775FF55-200A-4C1E-99C8-011CF6498227";
paths = (
{
closed = 1;
nodes = (
"230 0 OFFCURVE",
"251.333 19.667 OFFCURVE",
"272 59 CURVE SMOOTH",
"291.333 95.667 OFFCURVE",
"321 175.333 OFFCURVE",
"361 298 CURVE SMOOTH",
"403.667 426.667 OFFCURVE",
"425 505.667 OFFCURVE",
"425 535 CURVE",
"425 535 LINE",
"425 559 OFFCURVE",
"417 571 OFFCURVE",
"401 571 CURVE SMOOTH",
"381 571 OFFCURVE",
"363.667 551.333 OFFCURVE",
"349 512 CURVE SMOOTH",
"331.667 454.667 OFFCURVE",
"319.333 411.667 OFFCURVE",
"312 383 CURVE SMOOTH",
"284.667 288.333 OFFCURVE",
"251.333 192.667 OFFCURVE",
"212 96 CURVE",
"176 196.667 OFFCURVE",
"148.667 288 OFFCURVE",
"130 370 CURVE SMOOTH",
"118.667 424.667 OFFCURVE",
"110 465.667 OFFCURVE",
"104 493 CURVE SMOOTH",
"92 545 OFFCURVE",
"75.333 571 OFFCURVE",
"54 571 CURVE SMOOTH",
"38 571 OFFCURVE",
"30 553.667 OFFCURVE",
"30 519 CURVE SMOOTH",
"30 473 OFFCURVE",
"44.333 396.333 OFFCURVE",
"73 289 CURVE SMOOTH",
"100.333 187 OFFCURVE",
"125 111 OFFCURVE",
"147 61 CURVE SMOOTH",
"165.667 20.333 OFFCURVE",
"186 0 OFFCURVE",
"208 0 CURVE",
"208 0 LINE"
);
}
);
userData = {
assembly = "NPUSHB[ ]	/* 19 values pushed */\0121 28 28 64 29 0 12 0 20 6 6 26 14 3 6 1 1 12 70 \012SROUND[ ]	/* SuperRound */\012MDAP[1]	/* MoveDirectAbsPt */\012SHZ[1]	/* ShiftZoneByLastPoint */\012RTG[ ]	/* RoundToGrid */\012SVTCA[0]	/* SetFreedomAndProjectionVectorToAxis */\012MIAP[1]	/* MoveIndirectAbsPt */\012MIAP[1]	/* MoveIndirectAbsPt */\012ALIGNRP[ ]	/* AlignRelativePt */\012SRP0[ ]	/* SetRefPoint0 */\012MIRP[11101]	/* MoveIndirectRelPt */\012SVTCA[1]	/* SetFreedomAndProjectionVectorToAxis */\012MDAP[0]	/* MoveDirectAbsPt */\012MDAP[0]	/* MoveDirectAbsPt */\012SVTCA[0]	/* SetFreedomAndProjectionVectorToAxis */\012IUP[1]	/* InterpolateUntPts */\012IUP[0]	/* InterpolateUntPts */\012SVTCA[1]	/* SetFreedomAndProjectionVectorToAxis */\012MD[0]	/* MeasureDistance */\012ROUND[00]	/* Round */\012PUSHW[ ]	/* 2 values pushed */\01212 28 \012MD[0]	/* MeasureDistance */\012ROUND[00]	/* Round */\012SUB[ ]	/* Subtract */\012PUSHB[ ]	/* 1 value pushed */\01264 \012GT[ ]	/* GreaterThan */\012IF[ ]	/* If */\012SHPIX[ ]	/* ShiftZoneByPixel */\012SRP1[ ]	/* SetRefPoint1 */\012SHZ[1]	/* ShiftZoneByLastPoint */\012PUSHW[ ]	/* 2 values pushed */\01228 -64 \012SHPIX[ ]	/* ShiftZoneByPixel */\012EIF[ ]	/* EndIf */";
};
width = 455;
}
);
note = V;
unicode = 0056;
},
{
glyphname = W;
lastChange = "2019-11-30 15:48:57 +0000";
layers = (
{
anchors = (
{
name = bottom;
position = "{332, 0}";
},
{
name = top;
position = "{332, 571}";
}
);
layerId = "F775FF55-200A-4C1E-99C8-011CF6498227";
paths = (
{
closed = 1;
nodes = (
"446.667 0 OFFCURVE",
"460.667 16 OFFCURVE",
"474 48 CURVE SMOOTH",
"493.333 94.667 OFFCURVE",
"523.333 176.667 OFFCURVE",
"564 294 CURVE SMOOTH",
"610 427.333 OFFCURVE",
"633 505 OFFCURVE",
"633 527 CURVE",
"633 527 LINE",
"633 549.667 OFFCURVE",
"617.333 571 OFFCURVE",
"596 571 CURVE SMOOTH",
"579.333 571 OFFCURVE",
"565 554.667 OFFCURVE",
"553 522 CURVE SMOOTH",
"537 470 OFFCURVE",
"525.667 431 OFFCURVE",
"519 405 CURVE SMOOTH",
"491.667 309 OFFCURVE",
"464.333 225.667 OFFCURVE",
"437 155 CURVE",
"426.333 184.333 OFFCURVE",
"414.667 234 OFFCURVE",
"402 304 CURVE SMOOTH",
"391.333 368.667 OFFCURVE",
"378.333 417.667 OFFCURVE",
"363 451 CURVE SMOOTH",
"353 473 OFFCURVE",
"341 484 OFFCURVE",
"327 484 CURVE SMOOTH",
"312.333 484 OFFCURVE",
"299.667 473.333 OFFCURVE",
"289 452 CURVE SMOOTH",
"282.333 438.667 OFFCURVE",
"276.333 421.667 OFFCURVE",
"271 401 CURVE SMOOTH",
"267 383.667 OFFCURVE",
"263 366.333 OFFCURVE",
"259 349 CURVE SMOOTH",
"246.333 297 OFFCURVE",
"222 224 OFFCURVE",
"186 130 CURVE",
"164 214.667 OFFCURVE",
"143.333 307.667 OFFCURVE",
"124 409 CURVE SMOOTH",
"112.667 470.333 OFFCURVE",
"106 504.667 OFFCURVE",
"104 512 CURVE SMOOTH",
"94.667 551.333 OFFCURVE",
"80.667 571 OFFCURVE",
"62 571 CURVE SMOOTH",
"51.333 571 OFFCURVE",
"42.667 564.667 OFFCURVE",
"36 552 CURVE SMOOTH",
"32 542.667 OFFCURVE",
"30 531.667 OFFCURVE",
"30 519 CURVE SMOOTH",
"30 515.667 OFFCURVE",
"30.333 510.333 OFFCURVE",
"31 503 CURVE SMOOTH",
"53 341 OFFCURVE",
"84.667 196 OFFCURVE",
"126 68 CURVE SMOOTH",
"140 23.333 OFFCURVE",
"157.667 1 OFFCURVE",
"179 1 CURVE SMOOTH",
"197.667 1 OFFCURVE",
"215 16.333 OFFCURVE",
"231 47 CURVE SMOOTH",
"249.667 81.667 OFFCURVE",
"267.333 125 OFFCURVE",
"284 177 CURVE SMOOTH",
"297.333 222.333 OFFCURVE",
"310.667 267.333 OFFCURVE",
"324 312 CURVE",
"327.333 300 OFFCURVE",
"337.667 258 OFFCURVE",
"355 186 CURVE SMOOTH",
"367 134.667 OFFCURVE",
"378.333 92.667 OFFCURVE",
"389 60 CURVE SMOOTH",
"401.667 20 OFFCURVE",
"416 0 OFFCURVE",
"432 0 CURVE",
"432 0 LINE"
);
}
);
userData = {
assembly = "NPUSHB[ ]	/* 21 values pushed */\0121 57 57 64 58 0 48 42 34 12 24 0 54 28 3 18 6 1 1 24 70 \012SROUND[ ]	/* SuperRound */\012MDAP[1]	/* MoveDirectAbsPt */\012SHZ[1]	/* ShiftZoneByLastPoint */\012RTG[ ]	/* RoundToGrid */\012SVTCA[0]	/* SetFreedomAndProjectionVectorToAxis */\012MIAP[1]	/* MoveIndirectAbsPt */\012ALIGNRP[ ]	/* AlignRelativePt */\012MIAP[1]	/* MoveIndirectAbsPt */\012ALIGNRP[ ]	/* AlignRelativePt */\012SVTCA[1]	/* SetFreedomAndProjectionVectorToAxis */\012MDAP[0]	/* MoveDirectAbsPt */\012MDAP[0]	/* MoveDirectAbsPt */\012SVTCA[0]	/* SetFreedomAndProjectionVectorToAxis */\012MDAP[0]	/* MoveDirectAbsPt */\012MDAP[0]	/* MoveDirectAbsPt */\012MDAP[0]	/* MoveDirectAbsPt */\012MDAP[0]	/* MoveDirectAbsPt */\012IUP[1]	/* InterpolateUntPts */\012IUP[0]	/* InterpolateUntPts */\012SVTCA[1]	/* SetFreedomAndProjectionVectorToAxis */\012MD[0]	/* MeasureDistance */\012ROUND[00]	/* Round */\012PUSHW[ ]	/* 2 values pushed */\01224 57 \012MD[0]	/* MeasureDistance */\012ROUND[00]	/* Round */\012SUB[ ]	/* Subtract */\012PUSHB[ ]	/* 1 value pushed */\01264 \012GT[ ]	/* GreaterThan */\012IF[ ]	/* If */\012SHPIX[ ]	/* ShiftZoneByPixel */\012SRP1[ ]	/* SetRefPoint1 */\012SHZ[1]	/* ShiftZoneByLastPoint */\012PUSHW[ ]	/* 2 values pushed */\01257 -64 \012SHPIX[ ]	/* ShiftZoneByPixel */\012EIF[ ]	/* EndIf */";
};
width = 663;
}
);
note = W;
unicode = 0057;
},
{
glyphname = X;
lastChange = "2019-11-30 15:48:57 +0000";
layers = (
{
layerId = "F775FF55-200A-4C1E-99C8-011CF6498227";
paths = (
{
closed = 1;
nodes = (
"455 1 OFFCURVE",
"468 15.333 OFFCURVE",
"468 34 CURVE",
"468 34 LINE",
"468 49.333 OFFCURVE",
"460 68.667 OFFCURVE",
"444 92 CURVE SMOOTH",
"382.667 172 OFFCURVE",
"336 231.333 OFFCURVE",
"304 270 CURVE",
"389.333 402.667 OFFCURVE",
"437.5 478.333 OFFCURVE",
"448.5 497 CURVE SMOOTH",
"459.5 515.667 OFFCURVE",
"465 531 OFFCURVE",
"465 543 CURVE SMOOTH",
"465 562.333 OFFCURVE",
"454.667 572 OFFCURVE",
"434 572 CURVE SMOOTH",
"418 572 OFFCURVE",
"403 563.667 OFFCURVE",
"389 547 CURVE",
"365 511.667 OFFCURVE",
"348 484.333 OFFCURVE",
"338 465 CURVE SMOOTH",
"319.333 435 OFFCURVE",
"290 392.333 OFFCURVE",
"250 337 CURVE",
"203.333 392.333 OFFCURVE",
"169.833 434.833 OFFCURVE",
"149.5 464.5 CURVE SMOOTH",
"129.167 494.167 OFFCURVE",
"114 516.333 OFFCURVE",
"104 531 CURVE SMOOTH",
"87.333 551.667 OFFCURVE",
"71.333 562 OFFCURVE",
"56 562 CURVE SMOOTH",
"38.667 562 OFFCURVE",
"30 549.667 OFFCURVE",
"30 525 CURVE SMOOTH",
"30 510.333 OFFCURVE",
"34.667 494.333 OFFCURVE",
"44 477 CURVE",
"65.333 447 OFFCURVE",
"82 424.667 OFFCURVE",
"94 410 CURVE SMOOTH",
"142 348.667 OFFCURVE",
"177.333 302.333 OFFCURVE",
"200 271 CURVE",
"186 250.333 OFFCURVE",
"162.833 218.833 OFFCURVE",
"130.5 176.5 CURVE SMOOTH",
"98.167 134.167 OFFCURVE",
"74.333 102 OFFCURVE",
"59 80 CURVE SMOOTH",
"47 62 OFFCURVE",
"41 47.667 OFFCURVE",
"41 37 CURVE SMOOTH",
"41 17 OFFCURVE",
"56 3 OFFCURVE",
"76 3 CURVE SMOOTH",
"96.667 3 OFFCURVE",
"128.333 31.667 OFFCURVE",
"171 89 CURVE SMOOTH",
"197.667 127.667 OFFCURVE",
"224.333 166.667 OFFCURVE",
"251 206 CURVE",
"261 194.667 OFFCURVE",
"285.333 163.333 OFFCURVE",
"324 112 CURVE SMOOTH",
"353.333 73.333 OFFCURVE",
"379 43.333 OFFCURVE",
"401 22 CURVE SMOOTH",
"414.333 8 OFFCURVE",
"427 1 OFFCURVE",
"439 1 CURVE",
"439 1 LINE"
);
}
);
userData = {
assembly = "NPUSHB[ ]	/* 23 values pushed */\0121 49 49 64 50 0 34 29 13 9 45 42 27 21 16 0 40 3 3 1 1 27 70 \012SROUND[ ]	/* SuperRound */\012MDAP[1]	/* MoveDirectAbsPt */\012SHZ[1]	/* ShiftZoneByLastPoint */\012RTG[ ]	/* RoundToGrid */\012SVTCA[0]	/* SetFreedomAndProjectionVectorToAxis */\012MIAP[1]	/* MoveIndirectAbsPt */\012MIAP[1]	/* MoveIndirectAbsPt */\012SVTCA[1]	/* SetFreedomAndProjectionVectorToAxis */\012MDAP[0]	/* MoveDirectAbsPt */\012MDAP[0]	/* MoveDirectAbsPt */\012MDAP[0]	/* MoveDirectAbsPt */\012MDAP[0]	/* MoveDirectAbsPt */\012MDAP[0]	/* MoveDirectAbsPt */\012MDAP[0]	/* MoveDirectAbsPt */\012SVTCA[0]	/* SetFreedomAndProjectionVectorToAxis */\012MDAP[0]	/* MoveDirectAbsPt */\012MDAP[0]	/* MoveDirectAbsPt */\012MDAP[0]	/* MoveDirectAbsPt */\012MDAP[0]	/* MoveDirectAbsPt */\012IUP[1]	/* InterpolateUntPts */\012IUP[0]	/* InterpolateUntPts */\012SVTCA[1]	/* SetFreedomAndProjectionVectorToAxis */\012MD[0]	/* MeasureDistance */\012ROUND[00]	/* Round */\012PUSHW[ ]	/* 2 values pushed */\01227 49 \012MD[0]	/* MeasureDistance */\012ROUND[00]	/* Round */\012SUB[ ]	/* Subtract */\012PUSHB[ ]	/* 1 value pushed */\01264 \012GT[ ]	/* GreaterThan */\012IF[ ]	/* If */\012SHPIX[ ]	/* ShiftZoneByPixel */\012SRP1[ ]	/* SetRefPoint1 */\012SHZ[1]	/* ShiftZoneByLastPoint */\012PUSHW[ ]	/* 2 values pushed */\01249 -64 \012SHPIX[ ]	/* ShiftZoneByPixel */\012EIF[ ]	/* EndIf */";
};
width = 498;
}
);
note = X;
unicode = 0058;
},
{
glyphname = Y;
lastChange = "2019-11-30 15:48:57 +0000";
layers = (
{
anchors = (
{
name = bottom;
position = "{241, 0}";
},
{
name = top;
position = "{241, 536}";
},
{
name = topleft;
position = "{52, 566}";
}
);
layerId = "F775FF55-200A-4C1E-99C8-011CF6498227";
paths = (
{
closed = 1;
nodes = (
"263.333 0 OFFCURVE",
"274 21.333 OFFCURVE",
"274 64 CURVE SMOOTH",
"274 90.667 OFFCURVE",
"272.333 169.667 OFFCURVE",
"269 301 CURVE",
"304.333 340.333 OFFCURVE",
"339.667 379.667 OFFCURVE",
"375 419 CURVE SMOOTH",
"425.667 480.333 OFFCURVE",
"451 521.667 OFFCURVE",
"451 543 CURVE",
"451 543 LINE",
"451 557.667 OFFCURVE",
"439.667 571 OFFCURVE",
"425 571 CURVE SMOOTH",
"407.667 571 OFFCURVE",
"388 557.667 OFFCURVE",
"366 531 CURVE SMOOTH",
"307.333 459.667 OFFCURVE",
"263.333 405.667 OFFCURVE",
"234 369 CURVE",
"197.333 400.333 OFFCURVE",
"161.333 441 OFFCURVE",
"126 491 CURVE SMOOTH",
"108 517.667 OFFCURVE",
"97.667 532.667 OFFCURVE",
"95 536 CURVE SMOOTH",
"79 556 OFFCURVE",
"64.667 566 OFFCURVE",
"52 566 CURVE SMOOTH",
"37.333 566 OFFCURVE",
"30 554.333 OFFCURVE",
"30 531 CURVE SMOOTH",
"30 485 OFFCURVE",
"87 408.667 OFFCURVE",
"201 302 CURVE",
"205 216.667 OFFCURVE",
"207 138 OFFCURVE",
"207 66 CURVE SMOOTH",
"207 22 OFFCURVE",
"218.667 0 OFFCURVE",
"242 0 CURVE",
"242 0 LINE"
);
}
);
userData = {
assembly = "NPUSHB[ ]	/* 21 values pushed */\0121 29 29 64 30 0 22 16 14 4 0 6 5 10 26 3 8 1 1 14 70 \012SROUND[ ]	/* SuperRound */\012MDAP[1]	/* MoveDirectAbsPt */\012SHZ[1]	/* ShiftZoneByLastPoint */\012RTG[ ]	/* RoundToGrid */\012SVTCA[0]	/* SetFreedomAndProjectionVectorToAxis */\012MIAP[1]	/* MoveIndirectAbsPt */\012MIAP[1]	/* MoveIndirectAbsPt */\012SVTCA[1]	/* SetFreedomAndProjectionVectorToAxis */\012MDAP[1]	/* MoveDirectAbsPt */\012MIRP[11101]	/* MoveIndirectRelPt */\012MDAP[0]	/* MoveDirectAbsPt */\012MDAP[0]	/* MoveDirectAbsPt */\012MDAP[0]	/* MoveDirectAbsPt */\012SVTCA[0]	/* SetFreedomAndProjectionVectorToAxis */\012MDAP[0]	/* MoveDirectAbsPt */\012MDAP[0]	/* MoveDirectAbsPt */\012IUP[1]	/* InterpolateUntPts */\012IUP[0]	/* InterpolateUntPts */\012SVTCA[1]	/* SetFreedomAndProjectionVectorToAxis */\012MD[0]	/* MeasureDistance */\012ROUND[00]	/* Round */\012PUSHW[ ]	/* 2 values pushed */\01214 29 \012MD[0]	/* MeasureDistance */\012ROUND[00]	/* Round */\012SUB[ ]	/* Subtract */\012PUSHB[ ]	/* 1 value pushed */\01264 \012GT[ ]	/* GreaterThan */\012IF[ ]	/* If */\012SHPIX[ ]	/* ShiftZoneByPixel */\012SRP1[ ]	/* SetRefPoint1 */\012SHZ[1]	/* ShiftZoneByLastPoint */\012PUSHW[ ]	/* 2 values pushed */\01229 -64 \012SHPIX[ ]	/* ShiftZoneByPixel */\012EIF[ ]	/* EndIf */";
};
width = 481;
}
);
note = Y;
unicode = 0059;
},
{
glyphname = Z;
lastChange = "2019-11-30 15:48:57 +0000";
layers = (
{
anchors = (
{
name = bottom;
position = "{242, 0}";
},
{
name = center;
position = "{242, 290}";
},
{
name = top;
position = "{242, 568}";
}
);
layerId = "F775FF55-200A-4C1E-99C8-011CF6498227";
paths = (
{
closed = 1;
nodes = (
"65.667 0 OFFCURVE",
"68.667 0.333 OFFCURVE",
"74 1 CURVE SMOOTH",
"126 11 OFFCURVE",
"182.667 16 OFFCURVE",
"244 16 CURVE SMOOTH",
"260.667 16 OFFCURVE",
"285.667 14.5 OFFCURVE",
"319 11.5 CURVE SMOOTH",
"352.333 8.5 OFFCURVE",
"377.333 7 OFFCURVE",
"394 7 CURVE SMOOTH",
"408.667 7 OFFCURVE",
"421.333 9.667 OFFCURVE",
"432 15 CURVE SMOOTH",
"446.667 21.667 OFFCURVE",
"454 31.333 OFFCURVE",
"454 44 CURVE",
"454 44 LINE",
"454 59.333 OFFCURVE",
"443.333 70.667 OFFCURVE",
"422 78 CURVE SMOOTH",
"407.333 83.333 OFFCURVE",
"390 86 OFFCURVE",
"370 86 CURVE SMOOTH",
"354 86 OFFCURVE",
"329.5 87.5 OFFCURVE",
"296.5 90.5 CURVE SMOOTH",
"263.5 93.5 OFFCURVE",
"239 95 OFFCURVE",
"223 95 CURVE SMOOTH",
"193 95 OFFCURVE",
"161.667 93 OFFCURVE",
"129 89 CURVE",
"182.333 177.667 OFFCURVE",
"272.333 302.667 OFFCURVE",
"399 464 CURVE SMOOTH",
"423.667 496 OFFCURVE",
"436 520 OFFCURVE",
"436 536 CURVE SMOOTH",
"436 559.333 OFFCURVE",
"411 571 OFFCURVE",
"361 571 CURVE SMOOTH",
"348.333 571 OFFCURVE",
"281 569.667 OFFCURVE",
"159 567 CURVE SMOOTH",
"116.333 566.333 OFFCURVE",
"89.667 564.333 OFFCURVE",
"79 561 CURVE SMOOTH",
"49 553.667 OFFCURVE",
"34 540.333 OFFCURVE",
"34 521 CURVE SMOOTH",
"34 498.333 OFFCURVE",
"55.333 483 OFFCURVE",
"78 483 CURVE SMOOTH",
"79.333 483 OFFCURVE",
"83.667 483.333 OFFCURVE",
"91 484 CURVE SMOOTH",
"133.667 490 OFFCURVE",
"195.333 493 OFFCURVE",
"276 493 CURVE SMOOTH",
"290.667 493 OFFCURVE",
"308 492.667 OFFCURVE",
"328 492 CURVE",
"129.333 231.333 OFFCURVE",
"30 79.333 OFFCURVE",
"30 36 CURVE SMOOTH",
"30 16 OFFCURVE",
"45 0 OFFCURVE",
"65 0 CURVE",
"65 0 LINE"
);
}
);
userData = {
assembly = "NPUSHB[ ]	/* 31 values pushed */\0121 46 46 64 47 0 37 22 18 37 33 25 16 14 0 42 6 4 39 6 7 16 6 31 31 3 11 1 1 14 70 \012SROUND[ ]	/* SuperRound */\012MDAP[1]	/* MoveDirectAbsPt */\012SHZ[1]	/* ShiftZoneByLastPoint */\012RTG[ ]	/* RoundToGrid */\012SVTCA[0]	/* SetFreedomAndProjectionVectorToAxis */\012MIAP[1]	/* MoveIndirectAbsPt */\012MIAP[1]	/* MoveIndirectAbsPt */\012SRP0[ ]	/* SetRefPoint0 */\012MIRP[11101]	/* MoveIndirectRelPt */\012MDAP[1]	/* MoveDirectAbsPt */\012MIRP[11101]	/* MoveIndirectRelPt */\012MDAP[1]	/* MoveDirectAbsPt */\012MIRP[11101]	/* MoveIndirectRelPt */\012SVTCA[1]	/* SetFreedomAndProjectionVectorToAxis */\012MDAP[0]	/* MoveDirectAbsPt */\012MDAP[0]	/* MoveDirectAbsPt */\012MDAP[0]	/* MoveDirectAbsPt */\012MDAP[0]	/* MoveDirectAbsPt */\012MDAP[0]	/* MoveDirectAbsPt */\012MDAP[0]	/* MoveDirectAbsPt */\012SVTCA[0]	/* SetFreedomAndProjectionVectorToAxis */\012MDAP[0]	/* MoveDirectAbsPt */\012MDAP[0]	/* MoveDirectAbsPt */\012MDAP[0]	/* MoveDirectAbsPt */\012IUP[1]	/* InterpolateUntPts */\012IUP[0]	/* InterpolateUntPts */\012SVTCA[1]	/* SetFreedomAndProjectionVectorToAxis */\012MD[0]	/* MeasureDistance */\012ROUND[00]	/* Round */\012PUSHW[ ]	/* 2 values pushed */\01214 46 \012MD[0]	/* MeasureDistance */\012ROUND[00]	/* Round */\012SUB[ ]	/* Subtract */\012PUSHB[ ]	/* 1 value pushed */\01264 \012GT[ ]	/* GreaterThan */\012IF[ ]	/* If */\012SHPIX[ ]	/* ShiftZoneByPixel */\012SRP1[ ]	/* SetRefPoint1 */\012SHZ[1]	/* ShiftZoneByLastPoint */\012PUSHW[ ]	/* 2 values pushed */\01246 -64 \012SHPIX[ ]	/* ShiftZoneByPixel */\012EIF[ ]	/* EndIf */";
};
width = 484;
}
);
note = Z;
unicode = 005A;
},
{
glyphname = a;
lastChange = "2019-11-30 15:48:57 +0000";
layers = (
{
anchors = (
{
name = bottom;
position = "{213, 0}";
},
{
name = ogonek;
position = "{383, 10}";
},
{
name = top;
position = "{213, 424}";
}
);
layerId = "F775FF55-200A-4C1E-99C8-011CF6498227";
paths = (
{
closed = 1;
nodes = (
"378.667 0 OFFCURVE",
"396 15.333 OFFCURVE",
"396 34 CURVE",
"396 34 LINE",
"396 42 OFFCURVE",
"393.833 53.833 OFFCURVE",
"389.5 69.5 CURVE SMOOTH",
"385.167 85.167 OFFCURVE",
"383 97.333 OFFCURVE",
"383 106 CURVE SMOOTH",
"383 137.333 OFFCURVE",
"383.833 184.333 OFFCURVE",
"385.5 247 CURVE SMOOTH",
"387.167 309.667 OFFCURVE",
"388 357 OFFCURVE",
"388 389 CURVE SMOOTH",
"388 399.667 OFFCURVE",
"385.333 408.667 OFFCURVE",
"380 416 CURVE SMOOTH",
"374 426 OFFCURVE",
"366 431 OFFCURVE",
"356 431 CURVE SMOOTH",
"331.333 431 OFFCURVE",
"318.667 419.333 OFFCURVE",
"318 396 CURVE",
"316 395 LINE",
"309.333 395.667 OFFCURVE",
"297.333 398.667 OFFCURVE",
"280 404 CURVE SMOOTH",
"264.667 409.333 OFFCURVE",
"252.667 412 OFFCURVE",
"244 412 CURVE SMOOTH",
"204.667 412 OFFCURVE",
"163.667 388.333 OFFCURVE",
"121 341 CURVE SMOOTH",
"85.667 301.667 OFFCURVE",
"60 260 OFFCURVE",
"44 216 CURVE SMOOTH",
"34.667 192 OFFCURVE",
"30 167.333 OFFCURVE",
"30 142 CURVE SMOOTH",
"30 104.667 OFFCURVE",
"38.333 73.333 OFFCURVE",
"55 48 CURVE SMOOTH",
"74.333 18.667 OFFCURVE",
"102.333 4 OFFCURVE",
"139 4 CURVE SMOOTH",
"203 4 OFFCURVE",
"274.667 38.333 OFFCURVE",
"316 89 CURVE",
"321.333 62.333 OFFCURVE",
"325.333 44.667 OFFCURVE",
"328 36 CURVE SMOOTH",
"336 12 OFFCURVE",
"346.667 0 OFFCURVE",
"360 0 CURVE",
"360 0 LINE"
);
},
{
closed = 1;
nodes = (
"112.333 79 OFFCURVE",
"96 94.333 OFFCURVE",
"96 125 CURVE SMOOTH",
"96 163 OFFCURVE",
"111.667 206.667 OFFCURVE",
"143 256 CURVE SMOOTH",
"177 309.333 OFFCURVE",
"211.667 336 OFFCURVE",
"247 336 CURVE SMOOTH",
"293.667 336 OFFCURVE",
"317 307.667 OFFCURVE",
"317 251 CURVE",
"317 251 LINE",
"317 161.667 OFFCURVE",
"234.333 79 OFFCURVE",
"145 79 CURVE",
"145 79 LINE"
);
}
);
userData = {
assembly = "NPUSHB[ ]	/* 32 values pushed */\0121 48 48 64 49 0 24 7 31 0 43 5 14 37 5 34 29 7 27 45 6 10 39 6 20 27 2 3 1 1 14 70 \012SROUND[ ]	/* SuperRound */\012MDAP[1]	/* MoveDirectAbsPt */\012SHZ[1]	/* ShiftZoneByLastPoint */\012RTG[ ]	/* RoundToGrid */\012SVTCA[0]	/* SetFreedomAndProjectionVectorToAxis */\012MIAP[1]	/* MoveIndirectAbsPt */\012MIAP[1]	/* MoveIndirectAbsPt */\012MDAP[1]	/* MoveDirectAbsPt */\012MIRP[11101]	/* MoveIndirectRelPt */\012MDAP[1]	/* MoveDirectAbsPt */\012MIRP[11101]	/* MoveIndirectRelPt */\012SRP0[ ]	/* SetRefPoint0 */\012MIRP[11101]	/* MoveIndirectRelPt */\012SVTCA[1]	/* SetFreedomAndProjectionVectorToAxis */\012MDAP[1]	/* MoveDirectAbsPt */\012MIRP[11101]	/* MoveIndirectRelPt */\012MDAP[1]	/* MoveDirectAbsPt */\012MIRP[11101]	/* MoveIndirectRelPt */\012MDAP[0]	/* MoveDirectAbsPt */\012MDAP[0]	/* MoveDirectAbsPt */\012SVTCA[0]	/* SetFreedomAndProjectionVectorToAxis */\012MDAP[0]	/* MoveDirectAbsPt */\012MDAP[0]	/* MoveDirectAbsPt */\012IUP[1]	/* InterpolateUntPts */\012IUP[0]	/* InterpolateUntPts */\012SVTCA[1]	/* SetFreedomAndProjectionVectorToAxis */\012MD[0]	/* MeasureDistance */\012ROUND[00]	/* Round */\012PUSHW[ ]	/* 2 values pushed */\01214 48 \012MD[0]	/* MeasureDistance */\012ROUND[00]	/* Round */\012SUB[ ]	/* Subtract */\012PUSHB[ ]	/* 1 value pushed */\01264 \012GT[ ]	/* GreaterThan */\012IF[ ]	/* If */\012SHPIX[ ]	/* ShiftZoneByPixel */\012SRP1[ ]	/* SetRefPoint1 */\012SHZ[1]	/* ShiftZoneByLastPoint */\012PUSHW[ ]	/* 2 values pushed */\01248 -64 \012SHPIX[ ]	/* ShiftZoneByPixel */\012EIF[ ]	/* EndIf */";
};
width = 426;
}
);
note = a;
unicode = 0061;
},
{
glyphname = agrave;
lastChange = "2019-11-30 15:48:57 +0000";
layers = (
{
layerId = "F775FF55-200A-4C1E-99C8-011CF6498227";
paths = (
{
closed = 1;
nodes = (
"416 0 OFFCURVE",
"436 15.333 OFFCURVE",
"436 34 CURVE",
"436 34 LINE",
"436 42 OFFCURVE",
"433.667 54 OFFCURVE",
"429 70 CURVE SMOOTH",
"424.333 86 OFFCURVE",
"422 98 OFFCURVE",
"422 106 CURVE SMOOTH",
"422 137.333 OFFCURVE",
"422.833 184.167 OFFCURVE",
"424.5 246.5 CURVE SMOOTH",
"426.167 308.833 OFFCURVE",
"427 355.667 OFFCURVE",
"427 387 CURVE SMOOTH",
"427 409.667 OFFCURVE",
"414.667 429 OFFCURVE",
"392 429 CURVE SMOOTH",
"364.667 429 OFFCURVE",
"350.667 417.333 OFFCURVE",
"350 394 CURVE",
"348 393 LINE",
"313.333 405 OFFCURVE",
"286.333 411 OFFCURVE",
"267 411 CURVE SMOOTH",
"225 411 OFFCURVE",
"180.667 388 OFFCURVE",
"134 342 CURVE SMOOTH",
"92.667 302.667 OFFCURVE",
"63 260.667 OFFCURVE",
"45 216 CURVE SMOOTH",
"35 191.333 OFFCURVE",
"30 166.333 OFFCURVE",
"30 141 CURVE SMOOTH",
"30 101 OFFCURVE",
"40 68.667 OFFCURVE",
"60 44 CURVE SMOOTH",
"81.333 17.333 OFFCURVE",
"111.333 4 OFFCURVE",
"150 4 CURVE SMOOTH",
"220.667 4 OFFCURVE",
"299.667 36 OFFCURVE",
"349 88 CURVE",
"353.667 61.333 OFFCURVE",
"357.667 43.333 OFFCURVE",
"361 34 CURVE SMOOTH",
"369.667 11.333 OFFCURVE",
"381.333 0 OFFCURVE",
"396 0 CURVE",
"396 0 LINE"
);
},
{
closed = 1;
nodes = (
"128.667 83 OFFCURVE",
"105 99.333 OFFCURVE",
"105 132 CURVE SMOOTH",
"105 170 OFFCURVE",
"123 213 OFFCURVE",
"159 261 CURVE SMOOTH",
"197.667 310.333 OFFCURVE",
"235.333 335 OFFCURVE",
"272 335 CURVE SMOOTH",
"320 335 OFFCURVE",
"346 307 OFFCURVE",
"346 259 CURVE",
"346 259 LINE",
"346 175 OFFCURVE",
"260 83 OFFCURVE",
"176 83 CURVE",
"176 83 LINE"
);
},
{
closed = 1;
nodes = (
"322.667 451 OFFCURVE",
"328 455.333 OFFCURVE",
"328 464 CURVE",
"328 464 LINE",
"328 472 OFFCURVE",
"319.333 488.667 OFFCURVE",
"302 514 CURVE SMOOTH",
"286 538 OFFCURVE",
"273.667 553.333 OFFCURVE",
"265 560 CURVE SMOOTH",
"255 567.333 OFFCURVE",
"242 571 OFFCURVE",
"226 571 CURVE SMOOTH",
"196 571 OFFCURVE",
"181 563.333 OFFCURVE",
"181 548 CURVE SMOOTH",
"181 528.667 OFFCURVE",
"198 507.333 OFFCURVE",
"232 484 CURVE SMOOTH",
"264.667 462 OFFCURVE",
"291.333 451 OFFCURVE",
"312 451 CURVE",
"312 451 LINE"
);
}
);
userData = {
assembly = "NPUSHB[ ]	/* 34 values pushed */\0121 60 60 64 61 14 36 21 2 42 14 6 0 55 4 28 48 4 45 57 6 24 51 6 34 39 2 17 1 8 3 1 28 70 \012SROUND[ ]	/* SuperRound */\012MDAP[1]	/* MoveDirectAbsPt */\012SHZ[1]	/* ShiftZoneByLastPoint */\012RTG[ ]	/* RoundToGrid */\012SVTCA[0]	/* SetFreedomAndProjectionVectorToAxis */\012MIAP[1]	/* MoveIndirectAbsPt */\012MIAP[1]	/* MoveIndirectAbsPt */\012MIAP[1]	/* MoveIndirectAbsPt */\012MDAP[1]	/* MoveDirectAbsPt */\012MIRP[11101]	/* MoveIndirectRelPt */\012MDAP[1]	/* MoveDirectAbsPt */\012MIRP[11101]	/* MoveIndirectRelPt */\012SVTCA[1]	/* SetFreedomAndProjectionVectorToAxis */\012MDAP[1]	/* MoveDirectAbsPt */\012MIRP[11101]	/* MoveIndirectRelPt */\012MDAP[1]	/* MoveDirectAbsPt */\012MIRP[11101]	/* MoveIndirectRelPt */\012MDAP[0]	/* MoveDirectAbsPt */\012MDAP[0]	/* MoveDirectAbsPt */\012MDAP[0]	/* MoveDirectAbsPt */\012MDAP[0]	/* MoveDirectAbsPt */\012SVTCA[0]	/* SetFreedomAndProjectionVectorToAxis */\012MDAP[0]	/* MoveDirectAbsPt */\012MDAP[0]	/* MoveDirectAbsPt */\012MDAP[0]	/* MoveDirectAbsPt */\012IUP[1]	/* InterpolateUntPts */\012IUP[0]	/* InterpolateUntPts */\012SVTCA[1]	/* SetFreedomAndProjectionVectorToAxis */\012MD[0]	/* MeasureDistance */\012ROUND[00]	/* Round */\012PUSHW[ ]	/* 2 values pushed */\01228 60 \012MD[0]	/* MeasureDistance */\012ROUND[00]	/* Round */\012SUB[ ]	/* Subtract */\012PUSHB[ ]	/* 1 value pushed */\01264 \012GT[ ]	/* GreaterThan */\012IF[ ]	/* If */\012SHPIX[ ]	/* ShiftZoneByPixel */\012SRP1[ ]	/* SetRefPoint1 */\012SHZ[1]	/* ShiftZoneByLastPoint */\012PUSHW[ ]	/* 2 values pushed */\01260 -64 \012SHPIX[ ]	/* ShiftZoneByPixel */\012EIF[ ]	/* EndIf */";
};
width = 466;
}
);
note = agrave;
unicode = 00E0;
},
{
glyphname = aring;
lastChange = "2019-11-30 15:48:57 +0000";
layers = (
{
layerId = "F775FF55-200A-4C1E-99C8-011CF6498227";
paths = (
{
closed = 1;
nodes = (
"416 0 OFFCURVE",
"436 15.333 OFFCURVE",
"436 34 CURVE",
"436 34 LINE",
"436 42 OFFCURVE",
"433.667 54 OFFCURVE",
"429 70 CURVE SMOOTH",
"424.333 86 OFFCURVE",
"422 98 OFFCURVE",
"422 106 CURVE SMOOTH",
"422 137.333 OFFCURVE",
"422.833 184.167 OFFCURVE",
"424.5 246.5 CURVE SMOOTH",
"426.167 308.833 OFFCURVE",
"427 355.667 OFFCURVE",
"427 387 CURVE SMOOTH",
"427 409.667 OFFCURVE",
"414.667 429 OFFCURVE",
"392 429 CURVE SMOOTH",
"364.667 429 OFFCURVE",
"350.667 417.333 OFFCURVE",
"350 394 CURVE",
"348 393 LINE",
"313.333 405 OFFCURVE",
"286.333 411 OFFCURVE",
"267 411 CURVE SMOOTH",
"225 411 OFFCURVE",
"180.667 388 OFFCURVE",
"134 342 CURVE SMOOTH",
"92.667 302.667 OFFCURVE",
"63 260.667 OFFCURVE",
"45 216 CURVE SMOOTH",
"35 191.333 OFFCURVE",
"30 166.333 OFFCURVE",
"30 141 CURVE SMOOTH",
"30 101 OFFCURVE",
"40 68.667 OFFCURVE",
"60 44 CURVE SMOOTH",
"81.333 17.333 OFFCURVE",
"111.333 4 OFFCURVE",
"150 4 CURVE SMOOTH",
"220.667 4 OFFCURVE",
"299.667 36 OFFCURVE",
"349 88 CURVE",
"353.667 61.333 OFFCURVE",
"357.667 43.333 OFFCURVE",
"361 34 CURVE SMOOTH",
"369.667 11.333 OFFCURVE",
"381.333 0 OFFCURVE",
"396 0 CURVE",
"396 0 LINE"
);
},
{
closed = 1;
nodes = (
"128.667 83 OFFCURVE",
"105 99.333 OFFCURVE",
"105 132 CURVE SMOOTH",
"105 170 OFFCURVE",
"123 213 OFFCURVE",
"159 261 CURVE SMOOTH",
"197.667 310.333 OFFCURVE",
"235.333 335 OFFCURVE",
"272 335 CURVE SMOOTH",
"320 335 OFFCURVE",
"346 307 OFFCURVE",
"346 259 CURVE",
"346 259 LINE",
"346 175 OFFCURVE",
"260 83 OFFCURVE",
"176 83 CURVE",
"176 83 LINE"
);
},
{
closed = 1;
nodes = (
"276 429 OFFCURVE",
"307 464 OFFCURVE",
"307 504 CURVE",
"307 504 LINE",
"307 537.333 OFFCURVE",
"287 571 OFFCURVE",
"255 571 CURVE SMOOTH",
"221.667 571 OFFCURVE",
"189 524.667 OFFCURVE",
"189 490 CURVE SMOOTH",
"189 475.333 OFFCURVE",
"193 461.667 OFFCURVE",
"201 449 CURVE SMOOTH",
"211 435.667 OFFCURVE",
"222.667 429 OFFCURVE",
"236 429 CURVE",
"236 429 LINE"
);
},
{
closed = 1;
nodes = (
"231.667 470 OFFCURVE",
"224 484 OFFCURVE",
"224 496 CURVE SMOOTH",
"224 513.333 OFFCURVE",
"241.667 531 OFFCURVE",
"259 531 CURVE SMOOTH",
"270.333 531 OFFCURVE",
"276 522.667 OFFCURVE",
"276 506 CURVE",
"276 506 LINE",
"276 487.333 OFFCURVE",
"259.667 470 OFFCURVE",
"241 470 CURVE",
"241 470 LINE"
);
}
);
userData = {
assembly = "NPUSHB[ ]	/* 43 values pushed */\0121 70 70 64 71 24 46 31 52 24 18 5 7 13 5 0 65 4 38 58 4 55 3 7 21 15 7 10 67 6 34 61 6 44 49 2 27 1 10 3 1 38 70 \012SROUND[ ]	/* SuperRound */\012MDAP[1]	/* MoveDirectAbsPt */\012SHZ[1]	/* ShiftZoneByLastPoint */\012RTG[ ]	/* RoundToGrid */\012SVTCA[0]	/* SetFreedomAndProjectionVectorToAxis */\012MIAP[1]	/* MoveIndirectAbsPt */\012MIAP[1]	/* MoveIndirectAbsPt */\012MIAP[1]	/* MoveIndirectAbsPt */\012MDAP[1]	/* MoveDirectAbsPt */\012MIRP[11101]	/* MoveIndirectRelPt */\012MDAP[1]	/* MoveDirectAbsPt */\012MIRP[11101]	/* MoveIndirectRelPt */\012SRP0[ ]	/* SetRefPoint0 */\012MIRP[11101]	/* MoveIndirectRelPt */\012MDAP[1]	/* MoveDirectAbsPt */\012MIRP[11101]	/* MoveIndirectRelPt */\012SVTCA[1]	/* SetFreedomAndProjectionVectorToAxis */\012MDAP[1]	/* MoveDirectAbsPt */\012MIRP[11101]	/* MoveIndirectRelPt */\012MDAP[1]	/* MoveDirectAbsPt */\012MIRP[11101]	/* MoveIndirectRelPt */\012MDAP[1]	/* MoveDirectAbsPt */\012MIRP[11101]	/* MoveIndirectRelPt */\012MDAP[1]	/* MoveDirectAbsPt */\012MIRP[11101]	/* MoveIndirectRelPt */\012MDAP[0]	/* MoveDirectAbsPt */\012MDAP[0]	/* MoveDirectAbsPt */\012SVTCA[0]	/* SetFreedomAndProjectionVectorToAxis */\012MDAP[0]	/* MoveDirectAbsPt */\012MDAP[0]	/* MoveDirectAbsPt */\012IUP[1]	/* InterpolateUntPts */\012IUP[0]	/* InterpolateUntPts */\012SVTCA[1]	/* SetFreedomAndProjectionVectorToAxis */\012MD[0]	/* MeasureDistance */\012ROUND[00]	/* Round */\012PUSHW[ ]	/* 2 values pushed */\01238 70 \012MD[0]	/* MeasureDistance */\012ROUND[00]	/* Round */\012SUB[ ]	/* Subtract */\012PUSHB[ ]	/* 1 value pushed */\01264 \012GT[ ]	/* GreaterThan */\012IF[ ]	/* If */\012SHPIX[ ]	/* ShiftZoneByPixel */\012SRP1[ ]	/* SetRefPoint1 */\012SHZ[1]	/* ShiftZoneByLastPoint */\012PUSHW[ ]	/* 2 values pushed */\01270 -64 \012SHPIX[ ]	/* ShiftZoneByPixel */\012EIF[ ]	/* EndIf */";
};
width = 466;
}
);
note = aring;
unicode = 00E5;
},
{
glyphname = atilde;
lastChange = "2019-11-30 15:48:57 +0000";
layers = (
{
layerId = "F775FF55-200A-4C1E-99C8-011CF6498227";
paths = (
{
closed = 1;
nodes = (
"416 0 OFFCURVE",
"436 15.333 OFFCURVE",
"436 34 CURVE",
"436 34 LINE",
"436 42 OFFCURVE",
"433.667 54 OFFCURVE",
"429 70 CURVE SMOOTH",
"424.333 86 OFFCURVE",
"422 98 OFFCURVE",
"422 106 CURVE SMOOTH",
"422 137.333 OFFCURVE",
"422.833 184.167 OFFCURVE",
"424.5 246.5 CURVE SMOOTH",
"426.167 308.833 OFFCURVE",
"427 355.667 OFFCURVE",
"427 387 CURVE SMOOTH",
"427 409.667 OFFCURVE",
"414.667 429 OFFCURVE",
"392 429 CURVE SMOOTH",
"364.667 429 OFFCURVE",
"350.667 417.333 OFFCURVE",
"350 394 CURVE",
"348 393 LINE",
"313.333 405 OFFCURVE",
"286.333 411 OFFCURVE",
"267 411 CURVE SMOOTH",
"225 411 OFFCURVE",
"180.667 388 OFFCURVE",
"134 342 CURVE SMOOTH",
"92.667 302.667 OFFCURVE",
"63 260.667 OFFCURVE",
"45 216 CURVE SMOOTH",
"35 191.333 OFFCURVE",
"30 166.333 OFFCURVE",
"30 141 CURVE SMOOTH",
"30 101 OFFCURVE",
"40 68.667 OFFCURVE",
"60 44 CURVE SMOOTH",
"81.333 17.333 OFFCURVE",
"111.333 4 OFFCURVE",
"150 4 CURVE SMOOTH",
"220.667 4 OFFCURVE",
"299.667 36 OFFCURVE",
"349 88 CURVE",
"353.667 61.333 OFFCURVE",
"357.667 43.333 OFFCURVE",
"361 34 CURVE SMOOTH",
"369.667 11.333 OFFCURVE",
"381.333 0 OFFCURVE",
"396 0 CURVE",
"396 0 LINE"
);
},
{
closed = 1;
nodes = (
"128.667 83 OFFCURVE",
"105 99.333 OFFCURVE",
"105 132 CURVE SMOOTH",
"105 170 OFFCURVE",
"123 213 OFFCURVE",
"159 261 CURVE SMOOTH",
"197.667 310.333 OFFCURVE",
"235.333 335 OFFCURVE",
"272 335 CURVE SMOOTH",
"320 335 OFFCURVE",
"346 307 OFFCURVE",
"346 259 CURVE",
"346 259 LINE",
"346 175 OFFCURVE",
"260 83 OFFCURVE",
"176 83 CURVE",
"176 83 LINE"
);
},
{
closed = 1;
nodes = (
"167.667 474 OFFCURVE",
"179.667 480.5 OFFCURVE",
"195 493.5 CURVE SMOOTH",
"210.333 506.5 OFFCURVE",
"223.667 513 OFFCURVE",
"235 513 CURVE SMOOTH",
"244.333 513 OFFCURVE",
"256.167 508.167 OFFCURVE",
"270.5 498.5 CURVE SMOOTH",
"284.833 488.833 OFFCURVE",
"296.667 484 OFFCURVE",
"306 484 CURVE SMOOTH",
"328.667 484 OFFCURVE",
"389 535.667 OFFCURVE",
"389 557 CURVE",
"389 557 LINE",
"389 566.333 OFFCURVE",
"382.667 571 OFFCURVE",
"370 571 CURVE SMOOTH",
"359.333 571 OFFCURVE",
"346.5 566.667 OFFCURVE",
"331.5 558 CURVE SMOOTH",
"316.5 549.333 OFFCURVE",
"307.333 545 OFFCURVE",
"304 545 CURVE SMOOTH",
"297.333 545 OFFCURVE",
"286.5 549.333 OFFCURVE",
"271.5 558 CURVE SMOOTH",
"256.5 566.667 OFFCURVE",
"244 571 OFFCURVE",
"234 571 CURVE SMOOTH",
"200.667 571 OFFCURVE",
"146 522.333 OFFCURVE",
"146 489 CURVE SMOOTH",
"146 479 OFFCURVE",
"150.333 474 OFFCURVE",
"159 474 CURVE",
"159 474 LINE"
);
}
);
userData = {
assembly = "NPUSHB[ ]	/* 41 values pushed */\0121 68 68 64 69 22 44 29 9 50 22 11 0 63 4 36 56 4 53 3 7 17 6 7 14 65 6 32 59 6 42 47 2 25 1 20 14 3 1 36 70 \012SROUND[ ]	/* SuperRound */\012MDAP[1]	/* MoveDirectAbsPt */\012SHZ[1]	/* ShiftZoneByLastPoint */\012RTG[ ]	/* RoundToGrid */\012SVTCA[0]	/* SetFreedomAndProjectionVectorToAxis */\012MIAP[1]	/* MoveIndirectAbsPt */\012ALIGNRP[ ]	/* AlignRelativePt */\012MIAP[1]	/* MoveIndirectAbsPt */\012MIAP[1]	/* MoveIndirectAbsPt */\012MDAP[1]	/* MoveDirectAbsPt */\012MIRP[11101]	/* MoveIndirectRelPt */\012MDAP[1]	/* MoveDirectAbsPt */\012MIRP[11101]	/* MoveIndirectRelPt */\012SRP0[ ]	/* SetRefPoint0 */\012MIRP[11101]	/* MoveIndirectRelPt */\012MDAP[1]	/* MoveDirectAbsPt */\012MIRP[11101]	/* MoveIndirectRelPt */\012SVTCA[1]	/* SetFreedomAndProjectionVectorToAxis */\012MDAP[1]	/* MoveDirectAbsPt */\012MIRP[11101]	/* MoveIndirectRelPt */\012MDAP[1]	/* MoveDirectAbsPt */\012MIRP[11101]	/* MoveIndirectRelPt */\012MDAP[0]	/* MoveDirectAbsPt */\012MDAP[0]	/* MoveDirectAbsPt */\012MDAP[0]	/* MoveDirectAbsPt */\012MDAP[0]	/* MoveDirectAbsPt */\012SVTCA[0]	/* SetFreedomAndProjectionVectorToAxis */\012MDAP[0]	/* MoveDirectAbsPt */\012MDAP[0]	/* MoveDirectAbsPt */\012MDAP[0]	/* MoveDirectAbsPt */\012IUP[1]	/* InterpolateUntPts */\012IUP[0]	/* InterpolateUntPts */\012SVTCA[1]	/* SetFreedomAndProjectionVectorToAxis */\012MD[0]	/* MeasureDistance */\012ROUND[00]	/* Round */\012PUSHW[ ]	/* 2 values pushed */\01236 68 \012MD[0]	/* MeasureDistance */\012ROUND[00]	/* Round */\012SUB[ ]	/* Subtract */\012PUSHB[ ]	/* 1 value pushed */\01264 \012GT[ ]	/* GreaterThan */\012IF[ ]	/* If */\012SHPIX[ ]	/* ShiftZoneByPixel */\012SRP1[ ]	/* SetRefPoint1 */\012SHZ[1]	/* ShiftZoneByLastPoint */\012PUSHW[ ]	/* 2 values pushed */\01268 -64 \012SHPIX[ ]	/* ShiftZoneByPixel */\012EIF[ ]	/* EndIf */";
};
width = 466;
}
);
note = atilde;
unicode = 00E3;
},
{
glyphname = ae;
lastChange = "2019-11-30 15:48:57 +0000";
layers = (
{
layerId = "F775FF55-200A-4C1E-99C8-011CF6498227";
paths = (
{
closed = 1;
nodes = (
"424.333 0 OFFCURVE",
"436.667 7 OFFCURVE",
"446 21 CURVE",
"468 9 OFFCURVE",
"494.667 3 OFFCURVE",
"526 3 CURVE SMOOTH",
"560.667 3 OFFCURVE",
"599.333 10 OFFCURVE",
"642 24 CURVE SMOOTH",
"696.667 41.333 OFFCURVE",
"724 63 OFFCURVE",
"724 89 CURVE SMOOTH",
"724 109 OFFCURVE",
"710 127 OFFCURVE",
"690 127 CURVE SMOOTH",
"684 127 OFFCURVE",
"664 118.833 OFFCURVE",
"630 102.5 CURVE SMOOTH",
"596 86.167 OFFCURVE",
"568 78 OFFCURVE",
"546 78 CURVE SMOOTH",
"514.667 78 OFFCURVE",
"490.667 88 OFFCURVE",
"474 108 CURVE SMOOTH",
"458.667 126 OFFCURVE",
"451 151.333 OFFCURVE",
"451 184 CURVE SMOOTH",
"451 190 LINE",
"479 191.333 OFFCURVE",
"509.333 192 OFFCURVE",
"542 192 CURVE SMOOTH",
"578 192 OFFCURVE",
"636 191 OFFCURVE",
"716 189 CURVE",
"733.333 215 OFFCURVE",
"742 242.333 OFFCURVE",
"742 271 CURVE",
"742 271 LINE",
"742 313.667 OFFCURVE",
"728.333 350.333 OFFCURVE",
"701 381 CURVE SMOOTH",
"673 413 OFFCURVE",
"638 429 OFFCURVE",
"596 429 CURVE SMOOTH",
"538 429 OFFCURVE",
"486.333 406.667 OFFCURVE",
"441 362 CURVE",
"443.667 406.667 OFFCURVE",
"431.667 429 OFFCURVE",
"405 429 CURVE SMOOTH",
"376.333 429 OFFCURVE",
"361.667 417.333 OFFCURVE",
"361 394 CURVE",
"359 393 LINE",
"345.667 397 OFFCURVE",
"332 400.667 OFFCURVE",
"318 404 CURVE SMOOTH",
"301.333 408.667 OFFCURVE",
"287 411 OFFCURVE",
"275 411 CURVE SMOOTH",
"231.667 411 OFFCURVE",
"186 388.333 OFFCURVE",
"138 343 CURVE SMOOTH",
"96 303.667 OFFCURVE",
"65.333 261.333 OFFCURVE",
"46 216 CURVE SMOOTH",
"35.333 191.333 OFFCURVE",
"30 166 OFFCURVE",
"30 140 CURVE SMOOTH",
"30 100 OFFCURVE",
"40.333 67.667 OFFCURVE",
"61 43 CURVE SMOOTH",
"84.333 17 OFFCURVE",
"115.333 4 OFFCURVE",
"154 4 CURVE SMOOTH",
"227.333 4 OFFCURVE",
"308.333 36 OFFCURVE",
"359 88 CURVE",
"365 60 OFFCURVE",
"369.667 42 OFFCURVE",
"373 34 CURVE SMOOTH",
"381.667 11.333 OFFCURVE",
"393.667 0 OFFCURVE",
"409 0 CURVE",
"409 0 LINE"
);
},
{
closed = 1;
nodes = (
"132 83 OFFCURVE",
"108 99.667 OFFCURVE",
"108 133 CURVE SMOOTH",
"108 171.667 OFFCURVE",
"127 214.333 OFFCURVE",
"165 261 CURVE SMOOTH",
"204.333 311 OFFCURVE",
"242.667 336 OFFCURVE",
"280 336 CURVE SMOOTH",
"328 336 OFFCURVE",
"358 308 OFFCURVE",
"358 260 CURVE",
"358 260 LINE",
"358 174.667 OFFCURVE",
"265.333 83 OFFCURVE",
"180 83 CURVE",
"180 83 LINE"
);
},
{
closed = 1;
nodes = (
"649 265 OFFCURVE",
"634 265.667 OFFCURVE",
"614 267 CURVE SMOOTH",
"594 268.333 OFFCURVE",
"579 269 OFFCURVE",
"569 269 CURVE SMOOTH",
"551 269 OFFCURVE",
"516.667 268.333 OFFCURVE",
"466 267 CURVE",
"479.333 316.333 OFFCURVE",
"533 354 OFFCURVE",
"585 354 CURVE SMOOTH",
"626.333 354 OFFCURVE",
"666 316 OFFCURVE",
"666 276 CURVE",
"666 276 LINE",
"666 268.667 OFFCURVE",
"663.667 265 OFFCURVE",
"659 265 CURVE",
"659 265 LINE"
);
}
);
userData = {
assembly = "NPUSHB[ ]	/* 51 values pushed */\0121 82 82 64 83 0 63 51 46 29 23 14 63 17 70 4 7 6 77 4 36 57 4 0 2 6 68 4 6 65 11 6 21 79 6 21 32 60 6 49 73 6 42 53 49 2 25 1 1 36 70 \012SROUND[ ]	/* SuperRound */\012MDAP[1]	/* MoveDirectAbsPt */\012SHZ[1]	/* ShiftZoneByLastPoint */\012RTG[ ]	/* RoundToGrid */\012SVTCA[0]	/* SetFreedomAndProjectionVectorToAxis */\012MIAP[1]	/* MoveIndirectAbsPt */\012MIAP[1]	/* MoveIndirectAbsPt */\012ALIGNRP[ ]	/* AlignRelativePt */\012MDAP[1]	/* MoveDirectAbsPt */\012MIRP[11101]	/* MoveIndirectRelPt */\012SRP0[ ]	/* SetRefPoint0 */\012MIRP[11101]	/* MoveIndirectRelPt */\012MDAP[1]	/* MoveDirectAbsPt */\012ALIGNRP[ ]	/* AlignRelativePt */\012MIRP[11101]	/* MoveIndirectRelPt */\012SRP0[ ]	/* SetRefPoint0 */\012MIRP[11101]	/* MoveIndirectRelPt */\012MDAP[1]	/* MoveDirectAbsPt */\012MIRP[11101]	/* MoveIndirectRelPt */\012MDAP[1]	/* MoveDirectAbsPt */\012MIRP[11101]	/* MoveIndirectRelPt */\012SVTCA[1]	/* SetFreedomAndProjectionVectorToAxis */\012MDAP[1]	/* MoveDirectAbsPt */\012MIRP[11101]	/* MoveIndirectRelPt */\012MDAP[1]	/* MoveDirectAbsPt */\012MIRP[11101]	/* MoveIndirectRelPt */\012MDAP[1]	/* MoveDirectAbsPt */\012ALIGNRP[ ]	/* AlignRelativePt */\012MIRP[11101]	/* MoveIndirectRelPt */\012MDAP[0]	/* MoveDirectAbsPt */\012MDAP[0]	/* MoveDirectAbsPt */\012SVTCA[0]	/* SetFreedomAndProjectionVectorToAxis */\012MDAP[0]	/* MoveDirectAbsPt */\012MDAP[0]	/* MoveDirectAbsPt */\012MDAP[0]	/* MoveDirectAbsPt */\012MDAP[0]	/* MoveDirectAbsPt */\012MDAP[0]	/* MoveDirectAbsPt */\012MDAP[0]	/* MoveDirectAbsPt */\012IUP[1]	/* InterpolateUntPts */\012IUP[0]	/* InterpolateUntPts */\012SVTCA[1]	/* SetFreedomAndProjectionVectorToAxis */\012MD[0]	/* MeasureDistance */\012ROUND[00]	/* Round */\012PUSHW[ ]	/* 2 values pushed */\01236 82 \012MD[0]	/* MeasureDistance */\012ROUND[00]	/* Round */\012SUB[ ]	/* Subtract */\012PUSHB[ ]	/* 1 value pushed */\01264 \012GT[ ]	/* GreaterThan */\012IF[ ]	/* If */\012SHPIX[ ]	/* ShiftZoneByPixel */\012SRP1[ ]	/* SetRefPoint1 */\012SHZ[1]	/* ShiftZoneByLastPoint */\012PUSHW[ ]	/* 2 values pushed */\01282 -64 \012SHPIX[ ]	/* ShiftZoneByPixel */\012EIF[ ]	/* EndIf */";
};
width = 772;
}
);
note = ae;
unicode = 00E6;
},
{
glyphname = b;
lastChange = "2019-12-01 16:20:08 +0000";
layers = (
{
layerId = "F775FF55-200A-4C1E-99C8-011CF6498227";
paths = (
{
closed = 1;
nodes = (
"219 0 OFFCURVE",
"301.667 46.333 OFFCURVE",
"351 125 CURVE SMOOTH",
"384.333 179 OFFCURVE",
"401 229.667 OFFCURVE",
"401 277 CURVE",
"401 277 LINE",
"401 315 OFFCURVE",
"389.333 348 OFFCURVE",
"366 376 CURVE SMOOTH",
"340.667 406.667 OFFCURVE",
"309.667 422 OFFCURVE",
"273 422 CURVE SMOOTH",
"232.333 422 OFFCURVE",
"185.667 405 OFFCURVE",
"133 371 CURVE",
"133 383 OFFCURVE",
"131.667 420.667 OFFCURVE",
"129 524 CURVE SMOOTH",
"128 543 OFFCURVE",
"128 561 OFFCURVE",
"127 580 CURVE",
"123 601 OFFCURVE",
"112 611 OFFCURVE",
"94 611 CURVE SMOOTH",
"71 611 OFFCURVE",
"59 596 OFFCURVE",
"59 565 CURVE SMOOTH",
"59 532 OFFCURVE",
"59.833 443 OFFCURVE",
"61.5 377 CURVE SMOOTH",
"63.167 311 OFFCURVE",
"64 261.667 OFFCURVE",
"64 229 CURVE SMOOTH",
"64 167.667 OFFCURVE",
"63.667 116.667 OFFCURVE",
"63 76 CURVE",
"41 73.333 OFFCURVE",
"30 64 OFFCURVE",
"30 48 CURVE SMOOTH",
"30 31.333 OFFCURVE",
"42.667 18.333 OFFCURVE",
"68 9 CURVE SMOOTH",
"86.667 3 OFFCURVE",
"106.333 0 OFFCURVE",
"127 0 CURVE",
"127 0 LINE"
);
},
{
closed = 1;
nodes = (
"134 94 OFFCURVE",
"134 116.667 OFFCURVE",
"134 144 CURVE SMOOTH",
"133.333 174.667 OFFCURVE",
"133 197 OFFCURVE",
"133 211 CURVE SMOOTH",
"133 281 LINE",
"197 323.667 OFFCURVE",
"247 345 OFFCURVE",
"283 345 CURVE SMOOTH",
"315 345 OFFCURVE",
"331 327 OFFCURVE",
"331 291 CURVE",
"331 291 LINE",
"331 269.667 OFFCURVE",
"326.333 245.667 OFFCURVE",
"317 219 CURVE SMOOTH",
"300.333 173 OFFCURVE",
"277.667 139 OFFCURVE",
"249 117 CURVE SMOOTH",
"222.333 97 OFFCURVE",
"184 83.333 OFFCURVE",
"134 76 CURVE",
"134 76 LINE"
);
}
);
userData = {
assembly = "NPUSHB[ ]	/* 32 values pushed */\0121 45 45 64 46 0 39 24 13 9 39 5 11 35 34 5 16 30 5 0 32 6 26 26 2 18 3 5 1 1 9 70 \012SROUND[ ]	/* SuperRound */\012MDAP[1]	/* MoveDirectAbsPt */\012SHZ[1]	/* ShiftZoneByLastPoint */\012RTG[ ]	/* RoundToGrid */\012SVTCA[0]	/* SetFreedomAndProjectionVectorToAxis */\012MIAP[1]	/* MoveIndirectAbsPt */\012MIAP[1]	/* MoveIndirectAbsPt */\012MIAP[1]	/* MoveIndirectAbsPt */\012SRP0[ ]	/* SetRefPoint0 */\012MIRP[11101]	/* MoveIndirectRelPt */\012SVTCA[1]	/* SetFreedomAndProjectionVectorToAxis */\012MDAP[1]	/* MoveDirectAbsPt */\012MIRP[11101]	/* MoveIndirectRelPt */\012MDAP[1]	/* MoveDirectAbsPt */\012MIRP[11101]	/* MoveIndirectRelPt */\012ALIGNRP[ ]	/* AlignRelativePt */\012MDAP[1]	/* MoveDirectAbsPt */\012MIRP[11101]	/* MoveIndirectRelPt */\012MDAP[0]	/* MoveDirectAbsPt */\012MDAP[0]	/* MoveDirectAbsPt */\012SVTCA[0]	/* SetFreedomAndProjectionVectorToAxis */\012MDAP[0]	/* MoveDirectAbsPt */\012MDAP[0]	/* MoveDirectAbsPt */\012IUP[1]	/* InterpolateUntPts */\012IUP[0]	/* InterpolateUntPts */\012SVTCA[1]	/* SetFreedomAndProjectionVectorToAxis */\012MD[0]	/* MeasureDistance */\012ROUND[00]	/* Round */\012PUSHW[ ]	/* 2 values pushed */\0129 45 \012MD[0]	/* MeasureDistance */\012ROUND[00]	/* Round */\012SUB[ ]	/* Subtract */\012PUSHB[ ]	/* 1 value pushed */\01264 \012GT[ ]	/* GreaterThan */\012IF[ ]	/* If */\012SHPIX[ ]	/* ShiftZoneByPixel */\012SRP1[ ]	/* SetRefPoint1 */\012SHZ[1]	/* ShiftZoneByLastPoint */\012PUSHW[ ]	/* 2 values pushed */\01245 -64 \012SHPIX[ ]	/* ShiftZoneByPixel */\012EIF[ ]	/* EndIf */";
};
width = 431;
}
);
note = b;
unicode = 0062;
},
{
glyphname = c;
lastChange = "2019-11-30 15:48:57 +0000";
layers = (
{
anchors = (
{
name = bottom;
position = "{201, 0}";
},
{
name = top;
position = "{201, 418}";
}
);
layerId = "F775FF55-200A-4C1E-99C8-011CF6498227";
paths = (
{
closed = 1;
nodes = (
"211.667 0 OFFCURVE",
"249 8.333 OFFCURVE",
"287 25 CURVE SMOOTH",
"333 45.667 OFFCURVE",
"356 72 OFFCURVE",
"356 104 CURVE SMOOTH",
"356 121.333 OFFCURVE",
"341.333 132 OFFCURVE",
"324 132 CURVE SMOOTH",
"318.667 132 OFFCURVE",
"299 122.333 OFFCURVE",
"265 103 CURVE SMOOTH",
"231 83.667 OFFCURVE",
"201.333 74 OFFCURVE",
"176 74 CURVE SMOOTH",
"124.667 74 OFFCURVE",
"99 107.333 OFFCURVE",
"99 174 CURVE SMOOTH",
"99 213.333 OFFCURVE",
"113 251 OFFCURVE",
"141 287 CURVE SMOOTH",
"171.667 325.667 OFFCURVE",
"206 345 OFFCURVE",
"244 345 CURVE SMOOTH",
"265.333 345 OFFCURVE",
"280.333 336.667 OFFCURVE",
"289 320 CURVE",
"293 304.667 OFFCURVE",
"297.333 289.333 OFFCURVE",
"302 274 CURVE SMOOTH",
"306.667 257.333 OFFCURVE",
"315.667 249 OFFCURVE",
"329 249 CURVE SMOOTH",
"353 249 OFFCURVE",
"371 274.667 OFFCURVE",
"371 300 CURVE",
"371 300 LINE",
"371 318.667 OFFCURVE",
"363.333 340 OFFCURVE",
"348 364 CURVE SMOOTH",
"323.333 402.667 OFFCURVE",
"289.333 422 OFFCURVE",
"246 422 CURVE SMOOTH",
"184.667 422 OFFCURVE",
"132.667 395 OFFCURVE",
"90 341 CURVE SMOOTH",
"50 291 OFFCURVE",
"30 234.667 OFFCURVE",
"30 172 CURVE SMOOTH",
"30 120 OFFCURVE",
"41 79.333 OFFCURVE",
"63 50 CURVE SMOOTH",
"87.667 16.667 OFFCURVE",
"125 0 OFFCURVE",
"175 0 CURVE",
"175 0 LINE"
);
}
);
userData = {
assembly = "NPUSHB[ ]	/* 28 values pushed */\0121 37 37 64 38 0 18 21 0 13 5 29 3 6 33 9 6 33 15 6 25 33 2 25 1 1 29 70 \012SROUND[ ]	/* SuperRound */\012MDAP[1]	/* MoveDirectAbsPt */\012SHZ[1]	/* ShiftZoneByLastPoint */\012RTG[ ]	/* RoundToGrid */\012SVTCA[0]	/* SetFreedomAndProjectionVectorToAxis */\012MIAP[1]	/* MoveIndirectAbsPt */\012MIAP[1]	/* MoveIndirectAbsPt */\012SRP0[ ]	/* SetRefPoint0 */\012MIRP[11101]	/* MoveIndirectRelPt */\012SRP0[ ]	/* SetRefPoint0 */\012MIRP[11101]	/* MoveIndirectRelPt */\012SRP0[ ]	/* SetRefPoint0 */\012MIRP[11101]	/* MoveIndirectRelPt */\012SVTCA[1]	/* SetFreedomAndProjectionVectorToAxis */\012MDAP[1]	/* MoveDirectAbsPt */\012MIRP[11101]	/* MoveIndirectRelPt */\012MDAP[0]	/* MoveDirectAbsPt */\012MDAP[0]	/* MoveDirectAbsPt */\012SVTCA[0]	/* SetFreedomAndProjectionVectorToAxis */\012MDAP[0]	/* MoveDirectAbsPt */\012IUP[1]	/* InterpolateUntPts */\012IUP[0]	/* InterpolateUntPts */\012SVTCA[1]	/* SetFreedomAndProjectionVectorToAxis */\012MD[0]	/* MeasureDistance */\012ROUND[00]	/* Round */\012PUSHW[ ]	/* 2 values pushed */\01229 37 \012MD[0]	/* MeasureDistance */\012ROUND[00]	/* Round */\012SUB[ ]	/* Subtract */\012PUSHB[ ]	/* 1 value pushed */\01264 \012GT[ ]	/* GreaterThan */\012IF[ ]	/* If */\012SHPIX[ ]	/* ShiftZoneByPixel */\012SRP1[ ]	/* SetRefPoint1 */\012SHZ[1]	/* ShiftZoneByLastPoint */\012PUSHW[ ]	/* 2 values pushed */\01237 -64 \012SHPIX[ ]	/* ShiftZoneByPixel */\012EIF[ ]	/* EndIf */";
};
width = 401;
}
);
note = c;
unicode = 0063;
},
{
glyphname = d;
lastChange = "2019-12-01 16:19:59 +0000";
layers = (
{
anchors = (
{
name = bottom;
position = "{212, 0}";
},
{
name = center;
position = "{212, 214}";
},
{
name = top;
position = "{166, 531}";
},
{
name = topright;
position = "{327, 641}";
}
);
layerId = "F775FF55-200A-4C1E-99C8-011CF6498227";
paths = (
{
closed = 1;
nodes = (
"372.667 0 OFFCURVE",
"393 19 OFFCURVE",
"393 39 CURVE",
"393 39 LINE",
"393 45.667 OFFCURVE",
"390.333 54.667 OFFCURVE",
"385 66 CURVE SMOOTH",
"377.667 81.333 OFFCURVE",
"373.667 90 OFFCURVE",
"373 92 CURVE SMOOTH",
"367 110.667 OFFCURVE",
"364 142 OFFCURVE",
"364 186 CURVE SMOOTH",
"364 224.667 OFFCURVE",
"364.5 282.333 OFFCURVE",
"365.5 359 CURVE SMOOTH",
"366.5 435.667 OFFCURVE",
"367 563 OFFCURVE",
"367 601 CURVE SMOOTH",
"367 622 OFFCURVE",
"348 641 OFFCURVE",
"327 641 CURVE SMOOTH",
"303 641 OFFCURVE",
"291 613 OFFCURVE",
"291 558 CURVE SMOOTH",
"291 505 OFFCURVE",
"291 406.333 OFFCURVE",
"291 401 CURVE",
"267.667 421.667 OFFCURVE",
"241.333 432 OFFCURVE",
"212 432 CURVE SMOOTH",
"168 432 OFFCURVE",
"128 407.667 OFFCURVE",
"92 359 CURVE SMOOTH",
"61.333 317 OFFCURVE",
"42 272 OFFCURVE",
"34 224 CURVE SMOOTH",
"31.333 207.333 OFFCURVE",
"30 189 OFFCURVE",
"30 169 CURVE SMOOTH",
"30 125.667 OFFCURVE",
"41 89.667 OFFCURVE",
"63 61 CURVE SMOOTH",
"87 29 OFFCURVE",
"120.333 13 OFFCURVE",
"163 13 CURVE SMOOTH",
"185.667 13 OFFCURVE",
"211 20 OFFCURVE",
"239 34 CURVE SMOOTH",
"261 47.333 OFFCURVE",
"283.333 60.667 OFFCURVE",
"306 74 CURVE",
"315.333 24.667 OFFCURVE",
"331.333 0 OFFCURVE",
"354 0 CURVE",
"354 0 LINE"
);
},
{
closed = 1;
nodes = (
"142.667 94 OFFCURVE",
"125.333 103.667 OFFCURVE",
"114 123 CURVE SMOOTH",
"104.667 139 OFFCURVE",
"100 159.333 OFFCURVE",
"100 184 CURVE SMOOTH",
"100 216.667 OFFCURVE",
"110.333 251.667 OFFCURVE",
"131 289 CURVE SMOOTH",
"154.333 330.333 OFFCURVE",
"181 351 OFFCURVE",
"211 351 CURVE SMOOTH",
"247.667 351 OFFCURVE",
"275.333 334.333 OFFCURVE",
"294 301 CURVE",
"295.333 281.667 OFFCURVE",
"296 265 OFFCURVE",
"296 251 CURVE",
"296 251 LINE",
"296 181.667 OFFCURVE",
"270.333 134 OFFCURVE",
"219 108 CURVE SMOOTH",
"200.333 98.667 OFFCURVE",
"182.667 94 OFFCURVE",
"166 94 CURVE",
"166 94 LINE"
);
}
);
userData = {
assembly = "NPUSHB[ ]	/* 32 values pushed */\0121 53 53 64 54 0 21 5 28 0 45 5 13 23 5 31 37 5 31 49 6 9 41 6 19 25 3 3 1 1 13 70 \012SROUND[ ]	/* SuperRound */\012MDAP[1]	/* MoveDirectAbsPt */\012SHZ[1]	/* ShiftZoneByLastPoint */\012RTG[ ]	/* RoundToGrid */\012SVTCA[0]	/* SetFreedomAndProjectionVectorToAxis */\012MIAP[1]	/* MoveIndirectAbsPt */\012MIAP[1]	/* MoveIndirectAbsPt */\012MDAP[1]	/* MoveDirectAbsPt */\012MIRP[11101]	/* MoveIndirectRelPt */\012MDAP[1]	/* MoveDirectAbsPt */\012MIRP[11101]	/* MoveIndirectRelPt */\012SVTCA[1]	/* SetFreedomAndProjectionVectorToAxis */\012MDAP[1]	/* MoveDirectAbsPt */\012MIRP[11101]	/* MoveIndirectRelPt */\012SRP0[ ]	/* SetRefPoint0 */\012MIRP[11101]	/* MoveIndirectRelPt */\012MDAP[1]	/* MoveDirectAbsPt */\012MIRP[11101]	/* MoveIndirectRelPt */\012MDAP[0]	/* MoveDirectAbsPt */\012MDAP[0]	/* MoveDirectAbsPt */\012SVTCA[0]	/* SetFreedomAndProjectionVectorToAxis */\012MDAP[0]	/* MoveDirectAbsPt */\012MDAP[0]	/* MoveDirectAbsPt */\012IUP[1]	/* InterpolateUntPts */\012IUP[0]	/* InterpolateUntPts */\012SVTCA[1]	/* SetFreedomAndProjectionVectorToAxis */\012MD[0]	/* MeasureDistance */\012ROUND[00]	/* Round */\012PUSHW[ ]	/* 2 values pushed */\01213 53 \012MD[0]	/* MeasureDistance */\012ROUND[00]	/* Round */\012SUB[ ]	/* Subtract */\012PUSHB[ ]	/* 1 value pushed */\01264 \012GT[ ]	/* GreaterThan */\012IF[ ]	/* If */\012SHPIX[ ]	/* ShiftZoneByPixel */\012SRP1[ ]	/* SetRefPoint1 */\012SHZ[1]	/* ShiftZoneByLastPoint */\012PUSHW[ ]	/* 2 values pushed */\01253 -64 \012SHPIX[ ]	/* ShiftZoneByPixel */\012EIF[ ]	/* EndIf */";
};
width = 423;
}
);
note = d;
unicode = 0064;
},
{
glyphname = e;
lastChange = "2019-11-30 15:48:57 +0000";
layers = (
{
anchors = (
{
name = bottom;
position = "{207, 0}";
},
{
name = ogonek;
position = "{373, 10}";
},
{
name = top;
position = "{207, 429}";
}
);
layerId = "F775FF55-200A-4C1E-99C8-011CF6498227";
paths = (
{
closed = 1;
nodes = (
"210 0 OFFCURVE",
"247.667 7 OFFCURVE",
"289 21 CURVE SMOOTH",
"341 39 OFFCURVE",
"367 61 OFFCURVE",
"367 87 CURVE SMOOTH",
"367 107 OFFCURVE",
"354 125 OFFCURVE",
"334 125 CURVE SMOOTH",
"328.667 125 OFFCURVE",
"309.5 116.833 OFFCURVE",
"276.5 100.5 CURVE SMOOTH",
"243.5 84.167 OFFCURVE",
"216.333 76 OFFCURVE",
"195 76 CURVE SMOOTH",
"134.333 76 OFFCURVE",
"104 111 OFFCURVE",
"104 181 CURVE SMOOTH",
"104 188 LINE",
"130.667 189.333 OFFCURVE",
"159.667 190 OFFCURVE",
"191 190 CURVE SMOOTH",
"227 190 OFFCURVE",
"283 188.667 OFFCURVE",
"359 186 CURVE",
"375.667 212.667 OFFCURVE",
"384 240.333 OFFCURVE",
"384 269 CURVE",
"384 269 LINE",
"384 311 OFFCURVE",
"371.333 347.667 OFFCURVE",
"346 379 CURVE SMOOTH",
"318.667 412.333 OFFCURVE",
"284.667 429 OFFCURVE",
"244 429 CURVE SMOOTH",
"188.667 429 OFFCURVE",
"140.333 408 OFFCURVE",
"99 366 CURVE SMOOTH",
"59 324.667 OFFCURVE",
"36.333 276.333 OFFCURVE",
"31 221 CURVE SMOOTH",
"30.333 209.667 OFFCURVE",
"30 196.333 OFFCURVE",
"30 181 CURVE SMOOTH",
"30 60.333 OFFCURVE",
"78.667 0 OFFCURVE",
"176 0 CURVE",
"176 0 LINE"
);
},
{
closed = 1;
nodes = (
"294 264 OFFCURVE",
"279.333 264.667 OFFCURVE",
"260 266 CURVE SMOOTH",
"240.667 267.333 OFFCURVE",
"226.333 268 OFFCURVE",
"217 268 CURVE SMOOTH",
"199.667 268 OFFCURVE",
"166.667 267.333 OFFCURVE",
"118 266 CURVE",
"131.333 314 OFFCURVE",
"182.333 353 OFFCURVE",
"233 353 CURVE SMOOTH",
"273 353 OFFCURVE",
"311 315 OFFCURVE",
"311 275 CURVE",
"311 275 LINE",
"311 267.667 OFFCURVE",
"308.667 264 OFFCURVE",
"304 264 CURVE",
"304 264 LINE"
);
}
);
userData = {
assembly = "NPUSHB[ ]	/* 36 values pushed */\0121 44 44 64 45 0 37 12 37 15 7 6 5 21 31 5 0 2 6 42 4 6 39 9 6 19 34 6 27 27 2 19 1 1 21 70 \012SROUND[ ]	/* SuperRound */\012MDAP[1]	/* MoveDirectAbsPt */\012SHZ[1]	/* ShiftZoneByLastPoint */\012RTG[ ]	/* RoundToGrid */\012SVTCA[0]	/* SetFreedomAndProjectionVectorToAxis */\012MIAP[1]	/* MoveIndirectAbsPt */\012MIAP[1]	/* MoveIndirectAbsPt */\012SRP0[ ]	/* SetRefPoint0 */\012MIRP[11101]	/* MoveIndirectRelPt */\012SRP0[ ]	/* SetRefPoint0 */\012MIRP[11101]	/* MoveIndirectRelPt */\012MDAP[1]	/* MoveDirectAbsPt */\012MIRP[11101]	/* MoveIndirectRelPt */\012MDAP[1]	/* MoveDirectAbsPt */\012MIRP[11101]	/* MoveIndirectRelPt */\012SVTCA[1]	/* SetFreedomAndProjectionVectorToAxis */\012MDAP[1]	/* MoveDirectAbsPt */\012MIRP[11101]	/* MoveIndirectRelPt */\012MDAP[1]	/* MoveDirectAbsPt */\012MIRP[11101]	/* MoveIndirectRelPt */\012ALIGNRP[ ]	/* AlignRelativePt */\012MDAP[0]	/* MoveDirectAbsPt */\012MDAP[0]	/* MoveDirectAbsPt */\012SVTCA[0]	/* SetFreedomAndProjectionVectorToAxis */\012MDAP[0]	/* MoveDirectAbsPt */\012MDAP[0]	/* MoveDirectAbsPt */\012IUP[1]	/* InterpolateUntPts */\012IUP[0]	/* InterpolateUntPts */\012SVTCA[1]	/* SetFreedomAndProjectionVectorToAxis */\012MD[0]	/* MeasureDistance */\012ROUND[00]	/* Round */\012PUSHW[ ]	/* 2 values pushed */\01221 44 \012MD[0]	/* MeasureDistance */\012ROUND[00]	/* Round */\012SUB[ ]	/* Subtract */\012PUSHB[ ]	/* 1 value pushed */\01264 \012GT[ ]	/* GreaterThan */\012IF[ ]	/* If */\012SHPIX[ ]	/* ShiftZoneByPixel */\012SRP1[ ]	/* SetRefPoint1 */\012SHZ[1]	/* ShiftZoneByLastPoint */\012PUSHW[ ]	/* 2 values pushed */\01244 -64 \012SHPIX[ ]	/* ShiftZoneByPixel */\012EIF[ ]	/* EndIf */";
};
width = 414;
}
);
note = e;
unicode = 0065;
},
{
glyphname = ecircumflex;
lastChange = "2019-11-30 15:48:57 +0000";
layers = (
{
layerId = "F775FF55-200A-4C1E-99C8-011CF6498227";
paths = (
{
closed = 1;
nodes = (
"209.333 0 OFFCURVE",
"247 7 OFFCURVE",
"289 21 CURVE SMOOTH",
"341 39 OFFCURVE",
"367 60.667 OFFCURVE",
"367 86 CURVE SMOOTH",
"367 106 OFFCURVE",
"354 125 OFFCURVE",
"334 125 CURVE SMOOTH",
"328.667 125 OFFCURVE",
"309.5 116.833 OFFCURVE",
"276.5 100.5 CURVE SMOOTH",
"243.5 84.167 OFFCURVE",
"216 76 OFFCURVE",
"194 76 CURVE SMOOTH",
"134 76 OFFCURVE",
"104 111 OFFCURVE",
"104 181 CURVE SMOOTH",
"104 188 LINE",
"130.667 189.333 OFFCURVE",
"159.667 190 OFFCURVE",
"191 190 CURVE SMOOTH",
"227 190 OFFCURVE",
"283 188.667 OFFCURVE",
"359 186 CURVE",
"375.667 212 OFFCURVE",
"384 239.667 OFFCURVE",
"384 269 CURVE",
"384 269 LINE",
"384 311 OFFCURVE",
"371.333 347.667 OFFCURVE",
"346 379 CURVE SMOOTH",
"318.667 412.333 OFFCURVE",
"284.333 429 OFFCURVE",
"243 429 CURVE SMOOTH",
"133.667 429 OFFCURVE",
"41.667 332 OFFCURVE",
"31 220 CURVE SMOOTH",
"30.333 209.333 OFFCURVE",
"30 196.333 OFFCURVE",
"30 181 CURVE SMOOTH",
"30 60.333 OFFCURVE",
"78.667 0 OFFCURVE",
"176 0 CURVE",
"176 0 LINE"
);
},
{
closed = 1;
nodes = (
"293.667 264 OFFCURVE",
"279.333 264.667 OFFCURVE",
"260 266 CURVE SMOOTH",
"240.667 267.333 OFFCURVE",
"226 268 OFFCURVE",
"216 268 CURVE SMOOTH",
"198.667 268 OFFCURVE",
"165.667 267.333 OFFCURVE",
"117 266 CURVE",
"130.333 312.667 OFFCURVE",
"183.667 352 OFFCURVE",
"233 352 CURVE SMOOTH",
"273 352 OFFCURVE",
"310 316 OFFCURVE",
"310 276 CURVE",
"310 276 LINE",
"310 268 OFFCURVE",
"307.667 264 OFFCURVE",
"303 264 CURVE",
"303 264 LINE"
);
},
{
closed = 1;
nodes = (
"323.333 466 OFFCURVE",
"326 468.667 OFFCURVE",
"326 474 CURVE",
"326 474 LINE",
"326 487.333 OFFCURVE",
"315.333 506.333 OFFCURVE",
"294 531 CURVE SMOOTH",
"272 557.667 OFFCURVE",
"253.667 571 OFFCURVE",
"239 571 CURVE SMOOTH",
"225.667 571 OFFCURVE",
"211 564.333 OFFCURVE",
"195 551 CURVE SMOOTH",
"155.667 517 OFFCURVE",
"136 492.667 OFFCURVE",
"136 478 CURVE SMOOTH",
"136 473.333 OFFCURVE",
"138.667 471 OFFCURVE",
"144 471 CURVE SMOOTH",
"165.333 471 OFFCURVE",
"196 486.667 OFFCURVE",
"236 518 CURVE",
"273.333 483.333 OFFCURVE",
"300.667 466 OFFCURVE",
"318 466 CURVE",
"318 466 LINE"
);
}
);
userData = {
assembly = "NPUSHB[ ]	/* 46 values pushed */\0121 59 59 64 60 16 52 28 6 2 52 31 8 4 0 23 22 5 37 46 5 16 4 7 12 57 6 18 54 6 20 25 6 35 49 6 42 42 2 35 1 12 3 1 37 70 \012SROUND[ ]	/* SuperRound */\012MDAP[1]	/* MoveDirectAbsPt */\012SHZ[1]	/* ShiftZoneByLastPoint */\012RTG[ ]	/* RoundToGrid */\012SVTCA[0]	/* SetFreedomAndProjectionVectorToAxis */\012MIAP[1]	/* MoveIndirectAbsPt */\012MIAP[1]	/* MoveIndirectAbsPt */\012MIAP[1]	/* MoveIndirectAbsPt */\012SRP0[ ]	/* SetRefPoint0 */\012MIRP[11101]	/* MoveIndirectRelPt */\012SRP0[ ]	/* SetRefPoint0 */\012MIRP[11101]	/* MoveIndirectRelPt */\012MDAP[1]	/* MoveDirectAbsPt */\012MIRP[11101]	/* MoveIndirectRelPt */\012MDAP[1]	/* MoveDirectAbsPt */\012MIRP[11101]	/* MoveIndirectRelPt */\012SRP0[ ]	/* SetRefPoint0 */\012MIRP[11101]	/* MoveIndirectRelPt */\012SVTCA[1]	/* SetFreedomAndProjectionVectorToAxis */\012MDAP[1]	/* MoveDirectAbsPt */\012MIRP[11101]	/* MoveIndirectRelPt */\012MDAP[1]	/* MoveDirectAbsPt */\012MIRP[11101]	/* MoveIndirectRelPt */\012ALIGNRP[ ]	/* AlignRelativePt */\012MDAP[1]	/* MoveDirectAbsPt */\012MIRP[11101]	/* MoveIndirectRelPt */\012MDAP[0]	/* MoveDirectAbsPt */\012MDAP[0]	/* MoveDirectAbsPt */\012SVTCA[0]	/* SetFreedomAndProjectionVectorToAxis */\012MDAP[0]	/* MoveDirectAbsPt */\012MDAP[0]	/* MoveDirectAbsPt */\012MDAP[0]	/* MoveDirectAbsPt */\012MDAP[0]	/* MoveDirectAbsPt */\012IUP[1]	/* InterpolateUntPts */\012IUP[0]	/* InterpolateUntPts */\012SVTCA[1]	/* SetFreedomAndProjectionVectorToAxis */\012MD[0]	/* MeasureDistance */\012ROUND[00]	/* Round */\012PUSHW[ ]	/* 2 values pushed */\01237 59 \012MD[0]	/* MeasureDistance */\012ROUND[00]	/* Round */\012SUB[ ]	/* Subtract */\012PUSHB[ ]	/* 1 value pushed */\01264 \012GT[ ]	/* GreaterThan */\012IF[ ]	/* If */\012SHPIX[ ]	/* ShiftZoneByPixel */\012SRP1[ ]	/* SetRefPoint1 */\012SHZ[1]	/* ShiftZoneByLastPoint */\012PUSHW[ ]	/* 2 values pushed */\01259 -64 \012SHPIX[ ]	/* ShiftZoneByPixel */\012EIF[ ]	/* EndIf */";
};
width = 414;
}
);
note = ecircumflex;
unicode = 00EA;
},
